SplineFontDB: 3.0
FontName: Sahel-Black
FullName: Sahel Black
FamilyName: Sahel Black
Weight: Black
Copyright: Copyright (c) 2016 by Saber Rastikerdar. All Rights Reserved.\nBased on DejaVu font.\nNon-Arabic(Latin) glyphs and data are imported from Open Sans font under the Apache License, Version 2.0.
Version: 1.0.0-alpha22
ItalicAngle: 0
UnderlinePosition: -500
UnderlineWidth: 100
Ascent: 1638
Descent: 410
InvalidEm: 0
LayerCount: 2
Layer: 0 1 "Back" 1
Layer: 1 1 "Fore" 0
XUID: [1021 502 1027637223 355691]
UniqueID: 4254074
UseUniqueID: 1
FSType: 0
OS2Version: 1
OS2_WeightWidthSlopeOnly: 0
OS2_UseTypoMetrics: 1
CreationTime: 1431850356
ModificationTime: 1535594746
PfmFamily: 33
TTFWeight: 900
TTFWidth: 5
LineGap: 0
VLineGap: 0
Panose: 2 11 6 3 3 8 4 2 2 4
OS2TypoAscent: 2200
OS2TypoAOffset: 0
OS2TypoDescent: -1000
OS2TypoDOffset: 0
OS2TypoLinegap: 0
OS2WinAscent: 2200
OS2WinAOffset: 0
OS2WinDescent: 1000
OS2WinDOffset: 0
HheadAscent: 2200
HheadAOffset: 0
HheadDescent: -1000
HheadDOffset: 0
OS2SubXSize: 1331
OS2SubYSize: 1433
OS2SubXOff: 0
OS2SubYOff: 286
OS2SupXSize: 1331
OS2SupYSize: 1433
OS2SupXOff: 0
OS2SupYOff: 983
OS2StrikeYSize: 102
OS2StrikeYPos: 530
OS2CapHeight: 1638
OS2XHeight: 1082
OS2Vendor: '    '
OS2CodePages: 00000041.20080000
OS2UnicodeRanges: 8000200f.80000000.00000008.00000000
Lookup: 1 9 0 "'fina' Terminal Forms in Arabic lookup 9" { "'fina' Terminal Forms in Arabic lookup 9 subtable"  } ['fina' ('arab' <'KUR ' 'SND ' 'URD ' 'dflt' > ) ]
Lookup: 1 9 0 "'medi' Medial Forms in Arabic lookup 11" { "'medi' Medial Forms in Arabic lookup 11 subtable"  } ['medi' ('arab' <'KUR ' 'SND ' 'URD ' 'dflt' > ) ]
Lookup: 1 9 0 "'init' Initial Forms in Arabic lookup 13" { "'init' Initial Forms in Arabic lookup 13 subtable"  } ['init' ('arab' <'KUR ' 'SND ' 'URD ' 'dflt' > ) ]
Lookup: 4 1 1 "'rlig' Required Ligatures in Arabic lookup 14" { "'rlig' Required Ligatures in Arabic lookup 14 subtable"  } ['rlig' ('arab' <'KUR ' 'dflt' > ) ]

StartChar: afii57388
Encoding: 1548 1548 2
Width: 708
VWidth: 3395
GlyphClass: 2
Flags: W
LayerCount: 2
Fore
SplineSet
377.251953125 404.2265625 m 5,0,1
 436.541992188 401.134765625 436.541992188 401.134765625 476 375.106445312 c 4,2,3
 558.478515625 320.702148438 558.478515625 320.702148438 559.15234375 208.252929688 c 4,4,5
 559.862304688 102.399414062 559.862304688 102.399414062 501.478515625 42.0771484375 c 4,6,7
 451.178710938 -10.208984375 451.178710938 -10.208984375 354 -10.1171875 c 4,8,9
 129.171875 -9.90234375 129.171875 -9.90234375 128.41796875 221 c 4,10,11
 127.331054688 553.70703125 127.331054688 553.70703125 470.161132812 759.361328125 c 4,12,13
 507.595703125 781.861328125 507.595703125 781.861328125 539.400390625 781.211914062 c 4,14,15
 573.728515625 779.728515625 573.728515625 779.728515625 594.712890625 750.4921875 c 4,16,17
 619.595703125 715.728515625 619.595703125 715.728515625 539.130859375 642.149414062 c 4,18,19
 416.9296875 532.263671875 416.9296875 532.263671875 377.251953125 404.2265625 c 5,0,1
EndSplineSet
EndChar

StartChar: uni0615
Encoding: 1557 1557 3
Width: 0
VWidth: 3443
GlyphClass: 4
Flags: W
AnchorPoint: "Anchor-10" 770.381 1882.78 mark 0
AnchorPoint: "Anchor-9" 770.381 1882.78 mark 0
AnchorPoint: "Anchor-1" 770.381 2975.96 basemark 0
AnchorPoint: "Anchor-1" 770.381 1882.78 mark 0
LayerCount: 2
Fore
SplineSet
792.641601562 2199.6953125 m 1,0,1
 981 2203 981 2203 1018 2268.92856606 c 0,2,3
 1026 2283 1026 2283 1025.99316406 2298.8203125 c 0,4,5
 1026 2333 1026 2333 990 2333.22005814 c 0,6,7
 924 2333 924 2333 792.641601562 2199.6953125 c 1,0,1
1200.61035156 2196.57421875 m 0,8,9
 1123.03411434 1995.08860379 1123.03411434 1995.08860379 727.290039062 1994.84375 c 2,10,-1
 387.94140625 1994.63378906 l 1,11,-1
 300.638317403 2162 l 2,12,13
 281.040039062 2199.57128906 281.040039062 2199.57128906 321 2199.57128906 c 2,14,-1
 451.905273438 2199.57128906 l 1,15,-1
 451.905273438 2870.609375 l 1,16,-1
 658.31640625 2870.609375 l 1,17,-1
 658.31640625 2351.63964844 l 1,18,19
 837.598727859 2556.25936379 837.598727859 2556.25936379 995.480615907 2556.25936379 c 0,20,21
 997.595254852 2556.25936379 997.595254852 2556.25936379 999.706054688 2556.22265625 c 0,22,23
 1168.31248388 2553.03193469 1168.31248388 2553.03193469 1214.26953125 2401.38769531 c 0,24,25
 1225.87580901 2362.44985638 1225.87580901 2362.44985638 1225.87580901 2321.54749075 c 0,26,27
 1225.87580901 2261.19912279 1225.87580901 2261.19912279 1200.61035156 2196.57421875 c 0,8,9
EndSplineSet
EndChar

StartChar: uni061B
Encoding: 1563 1563 4
Width: 708
VWidth: 3395
GlyphClass: 2
Flags: W
LayerCount: 2
Fore
SplineSet
377.251953125 994.2265625 m 1,0,1
 436.541992188 991.134765625 436.541992188 991.134765625 476 965.106445312 c 0,2,3
 558.478515625 910.702148438 558.478515625 910.702148438 559.15234375 798.252929688 c 0,4,5
 559.862304688 692.399414062 559.862304688 692.399414062 501.478515625 632.077148438 c 0,6,7
 451.178710938 579.791015625 451.178710938 579.791015625 354 579.8828125 c 0,8,9
 129.171875 580.09765625 129.171875 580.09765625 128.41796875 811 c 0,10,11
 127.331054688 1143.70703125 127.331054688 1143.70703125 470.161132812 1349.36132812 c 0,12,13
 507.595703125 1371.86132812 507.595703125 1371.86132812 539.400390625 1371.21191406 c 0,14,15
 573.728515625 1369.72851562 573.728515625 1369.72851562 594.712890625 1340.4921875 c 0,16,17
 619.595703125 1305.72851562 619.595703125 1305.72851562 539.130859375 1232.14941406 c 0,18,19
 416.9296875 1122.26367188 416.9296875 1122.26367188 377.251953125 994.2265625 c 1,0,1
120.46484375 233.598632812 m 128,-1,21
 120.46484375 330.665039062 120.46484375 330.665039062 188.731445312 398.930664062 c 128,-1,22
 256.997070312 467.197265625 256.997070312 467.197265625 354.063476562 467.197265625 c 128,-1,23
 451.129882812 467.197265625 451.129882812 467.197265625 519.395507812 398.930664062 c 128,-1,24
 587.662109375 330.665039062 587.662109375 330.665039062 587.662109375 233.598632812 c 128,-1,25
 587.662109375 136.532226562 587.662109375 136.532226562 519.395507812 68.2666015625 c 128,-1,26
 451.129882812 0 451.129882812 0 354.063476562 0 c 128,-1,27
 256.997070312 0 256.997070312 0 188.731445312 68.2666015625 c 128,-1,20
 120.46484375 136.532226562 120.46484375 136.532226562 120.46484375 233.598632812 c 128,-1,21
EndSplineSet
EndChar

StartChar: uni061F
Encoding: 1567 1567 5
Width: 1049
VWidth: 3386
GlyphClass: 2
Flags: W
LayerCount: 2
Fore
SplineSet
390.130859375 233.598632812 m 128,-1,1
 390.130859375 330.665039062 390.130859375 330.665039062 458.396484375 398.930664062 c 128,-1,2
 526.663085938 467.197265625 526.663085938 467.197265625 623.729492188 467.197265625 c 128,-1,3
 720.794921875 467.197265625 720.794921875 467.197265625 789.061523438 398.930664062 c 128,-1,4
 857.327148438 330.665039062 857.327148438 330.665039062 857.327148438 233.598632812 c 128,-1,5
 857.327148438 136.532226562 857.327148438 136.532226562 789.061523438 68.2666015625 c 128,-1,6
 720.794921875 0 720.794921875 0 623.729492188 0 c 128,-1,7
 526.663085938 0 526.663085938 0 458.396484375 68.2666015625 c 128,-1,0
 390.130859375 136.532226562 390.130859375 136.532226562 390.130859375 233.598632812 c 128,-1,1
479.530273438 625.241210938 m 2,8,-1
 479.530273438 635.204101562 l 2,9,10
 479.991999779 676.288146671 479.991999779 676.288146671 354.09375 754.217773438 c 2,11,-1
 250.240234375 818.501953125 l 2,12,13
 60 936 60 936 59.9462890625 1121.66503906 c 0,14,15
 59 1373 59 1373 295.834960938 1496.17578125 c 0,16,17
 390 1545 390 1545 540.321289062 1545.49902344 c 0,18,19
 776 1545 776 1545 901.166992188 1369.85644531 c 0,20,21
 975 1266 975 1266 976.436523438 1118.53710938 c 0,22,23
 977 1045 977 1045 968.958984375 1001.32226562 c 1,24,-1
 783.189453125 999.975585938 l 1,25,26
 778 1141 778 1141 689.059570312 1188.43847656 c 0,27,28
 650 1209 650 1209 581.9296875 1209.16015625 c 0,29,30
 482 1209 482 1209 445.227539062 1148.56152344 c 0,31,32
 428 1120 428 1120 427.209960938 1085.45898438 c 0,33,34
 425.999538678 1023.97656753 425.999538678 1023.97656753 541.321289062 938.135742188 c 2,35,-1
 593.99609375 898.926757812 l 2,36,37
 758.461914062 776.656595472 758.461914062 776.656595472 758.461914062 641.0625 c 2,38,-1
 758.461914062 626.486328125 l 2,39,40
 757.995683813 598.743164062 757.995683813 598.743164062 721.12890625 598.743164062 c 2,41,-1
 525.620117188 598.743164062 l 6,42,43
 480 599 480 599 479.530273438 625.241210938 c 2,8,-1
EndSplineSet
EndChar

StartChar: uni0621
Encoding: 1569 1569 6
Width: 891
VWidth: 3747
GlyphClass: 2
Flags: W
AnchorPoint: "Anchor-7" 474.756 -43.488 basechar 0
AnchorPoint: "Anchor-10" 436.642 1235.47 basechar 0
LayerCount: 2
Fore
SplineSet
538.663085938 711.862304688 m 0,0,1
 375 712 375 712 347.248046875 606.561523438 c 0,2,3
 341 582 341 582 408.711914062 535.482421875 c 0,4,5
 433 519 433 519 488.544921875 489.829101562 c 1,6,7
 529.371494908 493.029118041 529.371494908 493.029118041 620.060546875 516.067382812 c 2,8,-1
 723.807617188 542.422851562 l 2,9,10
 785 558 785 558 802.127929688 549.330078125 c 0,11,12
 819.411266256 539.772574069 819.411266256 539.772574069 814.2578125 468.616210938 c 2,13,-1
 795.532226562 210.0625 l 1,14,15
 449 186 449 186 84.2666015625 13.8662109375 c 1,16,-1
 85.1328125 370.797851562 l 1,17,-1
 213.447265625 407.6171875 l 1,18,19
 138 495 138 495 138.384995965 612 c 0,20,21
 139 779 139 779 229 874 c 0,22,23
 331 981 331 981 475 983.455078125 c 0,24,25
 574 985 574 985 667.873046875 943.552734375 c 0,26,27
 733 915 733 915 755.359375 892.53515625 c 1,28,-1
 701.525390625 673.025390625 l 1,29,30
 623 712 623 712 538.663085938 711.862304688 c 0,0,1
EndSplineSet
EndChar

StartChar: uni0627
Encoding: 1575 1575 12
Width: 539
VWidth: 3713
GlyphClass: 2
Flags: W
AnchorPoint: "Anchor-10" 258.382 1624.85 basechar 0
AnchorPoint: "Anchor-7" 260.029 -201.043 basechar 0
LayerCount: 2
Fore
SplineSet
132.131835938 484.262695312 m 28,0,1
 117 944 117 944 46.890625 1367.53320312 c 5,2,-1
 371.73046875 1570.20703125 l 6,3,4
 420 1600 420 1600 425.703125 1523 c 4,5,6
 456 1092 456 1092 456.455078125 693 c 4,7,8
 457 168 457 168 387.16796875 70.576171875 c 4,9,10
 321.043945312 -20.939453125 321.043945312 -20.939453125 164.516601562 -14.86328125 c 6,11,-1
 144.014648438 -14.0673828125 l 5,12,-1
 132.131835938 484.262695312 l 28,0,1
EndSplineSet
Substitution2: "'fina' Terminal Forms in Arabic lookup 9 subtable" uniFE8E
EndChar

StartChar: uni062D
Encoding: 1581 1581 18
Width: 1362
VWidth: 3747
GlyphClass: 2
Flags: W
AnchorPoint: "Anchor-7" 637.069 -849.641 basechar 0
AnchorPoint: "Anchor-10" 680.639 1364.02 basechar 0
LayerCount: 2
Fore
SplineSet
788.170898438 -301.796875 m 4,0,1
 351 -302 351 -302 350.491210938 -64.4912109375 c 4,2,3
 350 162 350 162 689.989257812 329.810546875 c 0,4,5
 874 421 874 421 1207.77148438 494.755859375 c 1,6,-1
 1291.61425781 857.727539062 l 2,7,8
 1295.91564327 878.590838852 1295.91564327 878.590838852 1277.85839844 878.306640625 c 2,9,-1
 1267.93066406 878.150390625 l 2,10,11
 1258 878 1258 878 1249.2421875 878.001953125 c 0,12,13
 1118 878 1118 878 1017.93554688 907.670898438 c 0,14,15
 515 1057 515 1057 432.877929688 1056.58691406 c 0,16,17
 305 1056 305 1056 206.786132812 925.567382812 c 0,18,19
 134 830 134 830 81.0341796875 640.51953125 c 1,20,-1
 223.229492188 564.515625 l 1,21,22
 327 689 327 689 422.965820312 689.239257812 c 0,23,24
 492 689 492 689 664.129882812 649.313476562 c 1,25,26
 564 616 564 616 483.4375 566.014648438 c 0,27,28
 122 342 122 342 121.922851562 -89.9970703125 c 4,29,30
 122.00055611 -398.20576522 122.00055611 -398.20576522 282.359375 -547.043945312 c 4,31,32
 445 -697 445 -697 816.908203125 -697.46875 c 4,33,34
 885 -697 885 -697 967 -691.137695312 c 4,35,36
 1054.95088443 -684.003983772 1054.95088443 -684.003983772 1107 -593 c 6,37,-1
 1224.8203125 -387 l 6,38,39
 1263 -320 1263 -320 1263 -295 c 28,40,41
 1263 -259 1263 -259 1217 -267.903320312 c 4,42,43
 1037 -302 1037 -302 788.170898438 -301.796875 c 4,0,1
EndSplineSet
Substitution2: "'fina' Terminal Forms in Arabic lookup 9 subtable" uniFEA2
Substitution2: "'medi' Medial Forms in Arabic lookup 11 subtable" uniFEA4
Substitution2: "'init' Initial Forms in Arabic lookup 13 subtable" uniFEA3
EndChar

StartChar: uni062F
Encoding: 1583 1583 20
Width: 1048
VWidth: 3745
GlyphClass: 2
Flags: W
AnchorPoint: "Anchor-10" 458.728 1454.38 basechar 0
AnchorPoint: "Anchor-7" 431.616 -195.827 basechar 0
LayerCount: 2
Fore
SplineSet
261.962890625 568.719726562 m 0,0,1
 261 495 261 495 467.852539062 495.565429688 c 0,2,3
 650 496 650 496 723.728515625 544.549804688 c 0,4,5
 738 554 738 554 737.010742188 563.927734375 c 0,6,7
 733 631 733 631 544 771.995117188 c 0,8,9
 456 837 456 837 333.331054688 909.327148438 c 1,10,-1
 459.720703125 1230.39160156 l 2,11,12
 476.905331519 1273.26870915 476.905331519 1273.26870915 516.788085938 1244.25878906 c 0,13,14
 642 1157 642 1157 767.0234375 1023 c 0,15,16
 976.995836207 802.138692828 976.995836207 802.138692828 977.193359375 510.9296875 c 0,17,18
 977 366 977 366 919.015625 240.24609375 c 0,19,20
 809 2 809 2 464.383789062 1.947265625 c 0,21,22
 84 2 84 2 65.814453125 345.59765625 c 0,23,24
 59 478 59 478 109.895507812 632.474609375 c 1,25,-1
 263.328125 615.879882812 l 1,26,27
 262 602 262 602 261.962890625 568.719726562 c 0,0,1
EndSplineSet
PairPos2: "'kern' Horizontal Kerning lookup 15-7" uniFB90 dx=-120 dy=0 dh=-120 dv=0 dx=0 dy=0 dh=0 dv=0
PairPos2: "'kern' Horizontal Kerning lookup 15-7" uni06A9 dx=-120 dy=0 dh=-120 dv=0 dx=0 dy=0 dh=0 dv=0
PairPos2: "'kern' Horizontal Kerning lookup 15-7" uniFB94 dx=-120 dy=0 dh=-120 dv=0 dx=0 dy=0 dh=0 dv=0
PairPos2: "'kern' Horizontal Kerning lookup 15-7" afii57509 dx=-120 dy=0 dh=-120 dv=0 dx=0 dy=0 dh=0 dv=0
Substitution2: "'fina' Terminal Forms in Arabic lookup 9 subtable" uniFEAA
EndChar

StartChar: uni0631
Encoding: 1585 1585 22
Width: 803
VWidth: 3518
GlyphClass: 2
Flags: W
AnchorPoint: "Anchor-7" 371.246 -706.137 basechar 0
AnchorPoint: "Anchor-10" 507.21 1115.21 basechar 0
LayerCount: 2
Fore
SplineSet
675.493164062 -178 m 0,0,1
 620 -405 620 -405 523 -483.046875 c 4,2,3
 477 -520 477 -520 365 -520 c 6,4,-1
 121 -520 l 6,5,6
 -34 -520 -34 -520 -34.095703125 -469.412109375 c 4,7,8
 -34 -448 -34 -448 46.8935546875 -391.8828125 c 4,9,10
 326 -197 326 -197 483 76.4130859375 c 0,11,12
 501 108 501 108 495.185546875 137 c 0,13,14
 479 217 479 217 259 468 c 1,15,-1
 478 792 l 1,16,17
 616 659 616 659 682.102539062 436 c 0,18,19
 721 304 721 304 720.990234375 156 c 0,20,21
 721 3 721 3 675.493164062 -178 c 0,0,1
EndSplineSet
PairPos2: "'kern' Horizontal Kerning lookup 15-1" uniFEF3 dx=20 dy=0 dh=20 dv=0 dx=0 dy=0 dh=0 dv=0
PairPos2: "'kern' Horizontal Kerning lookup 15-1" uniFB58 dx=20 dy=0 dh=20 dv=0 dx=0 dy=0 dh=0 dv=0
PairPos2: "'kern' Horizontal Kerning lookup 15-1" uniFBFE dx=20 dy=0 dh=20 dv=0 dx=0 dy=0 dh=0 dv=0
PairPos2: "'kern' Horizontal Kerning lookup 15-4" uni0621 dx=-196 dy=0 dh=-196 dv=0 dx=0 dy=0 dh=0 dv=0
PairPos2: "'kern' Horizontal Kerning lookup 15-3" uni0648 dx=-43 dy=0 dh=-43 dv=0 dx=0 dy=0 dh=0 dv=0
PairPos2: "'kern' Horizontal Kerning lookup 15-1" uni0632 dx=-43 dy=0 dh=-43 dv=0 dx=0 dy=0 dh=0 dv=0
PairPos2: "'kern' Horizontal Kerning lookup 15-1" uni0631 dx=-43 dy=0 dh=-43 dv=0 dx=0 dy=0 dh=0 dv=0
PairPos2: "'kern' Horizontal Kerning lookup 15-1" uni06CC dx=-43 dy=0 dh=-43 dv=0 dx=0 dy=0 dh=0 dv=0
PairPos2: "'kern' Horizontal Kerning lookup 15-1" uniFEEB dx=-128 dy=0 dh=-128 dv=0 dx=0 dy=0 dh=0 dv=0
PairPos2: "'kern' Horizontal Kerning lookup 15-1" uniFB7C dx=-115 dy=0 dh=-115 dv=0 dx=0 dy=0 dh=0 dv=0
PairPos2: "'kern' Horizontal Kerning lookup 15-1" uniFEDF dx=-128 dy=0 dh=-128 dv=0 dx=0 dy=0 dh=0 dv=0
PairPos2: "'kern' Horizontal Kerning lookup 15-1" uniFB90 dx=-213 dy=0 dh=-213 dv=0 dx=0 dy=0 dh=0 dv=0
PairPos2: "'kern' Horizontal Kerning lookup 15-1" uni06A9 dx=-213 dy=0 dh=-213 dv=0 dx=0 dy=0 dh=0 dv=0
PairPos2: "'kern' Horizontal Kerning lookup 15-1" uni0649 dx=-43 dy=0 dh=-43 dv=0 dx=0 dy=0 dh=0 dv=0
PairPos2: "'kern' Horizontal Kerning lookup 15-1" uni0647 dx=-128 dy=0 dh=-128 dv=0 dx=0 dy=0 dh=0 dv=0
PairPos2: "'kern' Horizontal Kerning lookup 15-1" uniFEE7 dx=-128 dy=0 dh=-128 dv=0 dx=0 dy=0 dh=0 dv=0
PairPos2: "'kern' Horizontal Kerning lookup 15-1" uniFEE3 dx=-128 dy=0 dh=-128 dv=0 dx=0 dy=0 dh=0 dv=0
PairPos2: "'kern' Horizontal Kerning lookup 15-1" uni0645 dx=-128 dy=0 dh=-128 dv=0 dx=0 dy=0 dh=0 dv=0
PairPos2: "'kern' Horizontal Kerning lookup 15-1" uni0644 dx=-43 dy=0 dh=-43 dv=0 dx=0 dy=0 dh=0 dv=0
PairPos2: "'kern' Horizontal Kerning lookup 15-1" uniFEDB dx=-213 dy=0 dh=-213 dv=0 dx=0 dy=0 dh=0 dv=0
PairPos2: "'kern' Horizontal Kerning lookup 15-1" uniFED7 dx=-128 dy=0 dh=-128 dv=0 dx=0 dy=0 dh=0 dv=0
PairPos2: "'kern' Horizontal Kerning lookup 15-1" uni0642 dx=-43 dy=0 dh=-43 dv=0 dx=0 dy=0 dh=0 dv=0
PairPos2: "'kern' Horizontal Kerning lookup 15-1" uniFED3 dx=-128 dy=0 dh=-128 dv=0 dx=0 dy=0 dh=0 dv=0
PairPos2: "'kern' Horizontal Kerning lookup 15-1" uni0641 dx=-128 dy=0 dh=-128 dv=0 dx=0 dy=0 dh=0 dv=0
PairPos2: "'kern' Horizontal Kerning lookup 15-1" uniFECF dx=-128 dy=0 dh=-128 dv=0 dx=0 dy=0 dh=0 dv=0
PairPos2: "'kern' Horizontal Kerning lookup 15-1" uniFECB dx=-128 dy=0 dh=-128 dv=0 dx=0 dy=0 dh=0 dv=0
PairPos2: "'kern' Horizontal Kerning lookup 15-1" uniFEC7 dx=-128 dy=0 dh=-128 dv=0 dx=0 dy=0 dh=0 dv=0
PairPos2: "'kern' Horizontal Kerning lookup 15-1" uni0638 dx=-128 dy=0 dh=-128 dv=0 dx=0 dy=0 dh=0 dv=0
PairPos2: "'kern' Horizontal Kerning lookup 15-1" uniFEC3 dx=-128 dy=0 dh=-128 dv=0 dx=0 dy=0 dh=0 dv=0
PairPos2: "'kern' Horizontal Kerning lookup 15-1" uni0637 dx=-128 dy=0 dh=-128 dv=0 dx=0 dy=0 dh=0 dv=0
PairPos2: "'kern' Horizontal Kerning lookup 15-1" uniFEBF dx=-128 dy=0 dh=-128 dv=0 dx=0 dy=0 dh=0 dv=0
PairPos2: "'kern' Horizontal Kerning lookup 15-1" uni0636 dx=-128 dy=0 dh=-128 dv=0 dx=0 dy=0 dh=0 dv=0
PairPos2: "'kern' Horizontal Kerning lookup 15-1" uniFEBB dx=-128 dy=0 dh=-128 dv=0 dx=0 dy=0 dh=0 dv=0
PairPos2: "'kern' Horizontal Kerning lookup 15-1" uni0635 dx=-128 dy=0 dh=-128 dv=0 dx=0 dy=0 dh=0 dv=0
PairPos2: "'kern' Horizontal Kerning lookup 15-1" uniFEB7 dx=-128 dy=0 dh=-128 dv=0 dx=0 dy=0 dh=0 dv=0
PairPos2: "'kern' Horizontal Kerning lookup 15-1" uni0634 dx=-128 dy=0 dh=-128 dv=0 dx=0 dy=0 dh=0 dv=0
PairPos2: "'kern' Horizontal Kerning lookup 15-1" uniFEB3 dx=-128 dy=0 dh=-128 dv=0 dx=0 dy=0 dh=0 dv=0
PairPos2: "'kern' Horizontal Kerning lookup 15-1" uni0633 dx=-128 dy=0 dh=-128 dv=0 dx=0 dy=0 dh=0 dv=0
PairPos2: "'kern' Horizontal Kerning lookup 15-1" uni0630 dx=-128 dy=0 dh=-128 dv=0 dx=0 dy=0 dh=0 dv=0
PairPos2: "'kern' Horizontal Kerning lookup 15-1" uni062F dx=-128 dy=0 dh=-128 dv=0 dx=0 dy=0 dh=0 dv=0
PairPos2: "'kern' Horizontal Kerning lookup 15-1" uniFEA7 dx=-128 dy=0 dh=-128 dv=0 dx=0 dy=0 dh=0 dv=0
PairPos2: "'kern' Horizontal Kerning lookup 15-1" uniFEA3 dx=-128 dy=0 dh=-128 dv=0 dx=0 dy=0 dh=0 dv=0
PairPos2: "'kern' Horizontal Kerning lookup 15-1" uniFE9F dx=-128 dy=0 dh=-128 dv=0 dx=0 dy=0 dh=0 dv=0
PairPos2: "'kern' Horizontal Kerning lookup 15-1" uniFE9B dx=-128 dy=0 dh=-128 dv=0 dx=0 dy=0 dh=0 dv=0
PairPos2: "'kern' Horizontal Kerning lookup 15-1" uni062B dx=-128 dy=0 dh=-128 dv=0 dx=0 dy=0 dh=0 dv=0
PairPos2: "'kern' Horizontal Kerning lookup 15-1" uniFE97 dx=-128 dy=0 dh=-128 dv=0 dx=0 dy=0 dh=0 dv=0
PairPos2: "'kern' Horizontal Kerning lookup 15-1" uni062A dx=-128 dy=0 dh=-128 dv=0 dx=0 dy=0 dh=0 dv=0
PairPos2: "'kern' Horizontal Kerning lookup 15-1" uni0629 dx=-128 dy=0 dh=-128 dv=0 dx=0 dy=0 dh=0 dv=0
PairPos2: "'kern' Horizontal Kerning lookup 15-1" uniFE91 dx=-53 dy=0 dh=-53 dv=0 dx=0 dy=0 dh=0 dv=0
PairPos2: "'kern' Horizontal Kerning lookup 15-1" uni0628 dx=-128 dy=0 dh=-128 dv=0 dx=0 dy=0 dh=0 dv=0
PairPos2: "'kern' Horizontal Kerning lookup 15-1" uni0627 dx=-150 dy=0 dh=-150 dv=0 dx=0 dy=0 dh=0 dv=0
PairPos2: "'kern' Horizontal Kerning lookup 15-1" uni0622 dx=-150 dy=0 dh=-150 dv=0 dx=0 dy=0 dh=0 dv=0
PairPos2: "'kern' Horizontal Kerning lookup 15-1" uniFB94 dx=-235 dy=0 dh=-235 dv=0 dx=0 dy=0 dh=0 dv=0
PairPos2: "'kern' Horizontal Kerning lookup 15-1" afii57509 dx=-235 dy=0 dh=-235 dv=0 dx=0 dy=0 dh=0 dv=0
PairPos2: "'kern' Horizontal Kerning lookup 15-1" uniFB56 dx=-128 dy=0 dh=-128 dv=0 dx=0 dy=0 dh=0 dv=0
PairPos2: "'kern' Horizontal Kerning lookup 15-1" afii57506 dx=-128 dy=0 dh=-128 dv=0 dx=0 dy=0 dh=0 dv=0
Substitution2: "'fina' Terminal Forms in Arabic lookup 9 subtable" uniFEAE
EndChar

StartChar: uni0633
Encoding: 1587 1587 24
Width: 2389
VWidth: 3752
GlyphClass: 2
Flags: W
AnchorPoint: "Anchor-7" 630.413 -811.066 basechar 0
AnchorPoint: "Anchor-10" 1620.87 1280.76 basechar 0
LayerCount: 2
Fore
SplineSet
1457.80175781 0.033203125 m 0,0,1
 1406 -1 1406 -1 1337.47265625 34.34375 c 1,2,3
 1311 -306 1311 -306 1109.25488281 -455.1953125 c 0,4,5
 959 -567 959 -567 718.983398438 -567.462890625 c 4,6,7
 396 -567 396 -567 234.981445312 -405.92578125 c 4,8,9
 76.9931892879 -242.489654328 76.9931892879 -242.489654328 77.33203125 30.6279296875 c 0,10,11
 77 289 77 289 203.59765625 549.059570312 c 1,12,-1
 380.661132812 494.107421875 l 1,13,14
 329 321 329 321 328.901367188 207.822265625 c 0,15,16
 329 89 329 89 380.943359375 24.2216796875 c 0,17,18
 479 -96 479 -96 724.557617188 -95.9609375 c 0,19,20
 991 -96 991 -96 1087.68945312 42.5625 c 0,21,22
 1118 86 1118 86 1107.05957031 115.955078125 c 0,23,24
 1103 127 1103 127 1084.39941406 161.391601562 c 0,25,26
 1047 232 1047 232 931.727539062 401.73046875 c 1,27,-1
 1144.41015625 697.595703125 l 2,28,29
 1164.88141418 725.83640736 1164.88141418 725.83640736 1189.67578125 691.1953125 c 2,30,-1
 1247.9765625 609.741210938 l 2,31,32
 1329 496 1329 496 1458.54199219 496.599609375 c 0,33,34
 1578.28151866 497.000943574 1578.28151866 497.000943574 1597.06054688 626.698242188 c 2,35,-1
 1616.22558594 759.061523438 l 1,36,-1
 1764.90527344 759.061523438 l 1,37,-1
 1789.78515625 632.560546875 l 2,38,39
 1817 495 1817 495 1929.50292969 494.930664062 c 0,40,41
 2001 495 2001 495 2027.00195312 522.958984375 c 0,42,43
 2055 554 2055 554 2047.12402344 599 c 0,44,45
 2039.96082234 639.219974908 2039.96082234 639.219974908 2010 696 c 2,46,-1
 1959.94140625 790.868164062 l 1,47,-1
 2138.86523438 1013.32714844 l 2,48,49
 2166 1047 2166 1047 2188.50878906 1012.26074219 c 0,50,51
 2315 817 2315 817 2314.36425781 591.590820312 c 0,52,53
 2313 337 2313 337 2176.70800781 144.848632812 c 0,54,55
 2073 -1 2073 -1 1909 0 c 0,56,57
 1790 1 1790 1 1683.68554688 171.181640625 c 1,58,59
 1579 3 1579 3 1457.80175781 0.033203125 c 0,0,1
EndSplineSet
Substitution2: "'fina' Terminal Forms in Arabic lookup 9 subtable" uniFEB2
Substitution2: "'medi' Medial Forms in Arabic lookup 11 subtable" uniFEB4
Substitution2: "'init' Initial Forms in Arabic lookup 13 subtable" uniFEB3
EndChar

StartChar: uni0635
Encoding: 1589 1589 26
Width: 2616
VWidth: 3753
GlyphClass: 2
Flags: W
AnchorPoint: "Anchor-7" 634.28 -771.732 basechar 0
AnchorPoint: "Anchor-10" 2046.87 1406.76 basechar 0
LayerCount: 2
Fore
SplineSet
931.727539062 401.73046875 m 1,0,-1
 1140.25488281 692.262695312 l 2,1,2
 1164.85626277 725.804029747 1164.85626277 725.804029747 1188.0625 695.461914062 c 2,3,-1
 1251.17578125 612.94140625 l 2,4,5
 1338 499 1338 499 1441.16210938 498.990234375 c 1,6,7
 1559 647 1559 647 1610.37402344 702.991210938 c 0,8,9
 1929 1052 1929 1052 2212.71191406 1050.88769531 c 0,10,11
 2420 1050 2420 1050 2502.8671875 887.485351562 c 0,12,13
 2545 805 2545 805 2545.11230469 702.662109375 c 0,14,15
 2545 520 2545 520 2458.98535156 366.149414062 c 0,16,17
 2253.02523676 0.0448596300059 2253.02523676 0.0448596300059 1790.41503906 0.013671875 c 2,18,-1
 1587.61914062 0 l 2,19,20
 1443 -0 1443 -0 1337.47265625 34.34375 c 1,21,22
 1311 -305 1311 -305 1109.25488281 -455.1953125 c 0,23,24
 959 -567 959 -567 698.983398438 -567.462890625 c 4,25,26
 396 -567 396 -567 234.981445312 -405.92578125 c 4,27,28
 76.9931892879 -242.489654328 76.9931892879 -242.489654328 77.33203125 30.6279296875 c 0,29,30
 77 289 77 289 203.59765625 549.059570312 c 1,31,-1
 380.661132812 494.107421875 l 1,32,33
 329 321 329 321 328.901367188 207.822265625 c 0,34,35
 329 89 329 89 380.943359375 24.2216796875 c 0,36,37
 479 -96 479 -96 704.557617188 -95.9609375 c 0,38,39
 991 -96 991 -96 1087.68945312 42.5625 c 0,40,41
 1118 86 1118 86 1107.05957031 115.955078125 c 0,42,43
 1103 127 1103 127 1084.39941406 161.391601562 c 0,44,45
 1047 232 1047 232 931.727539062 401.73046875 c 1,0,-1
1671.22167969 496.548828125 m 1,46,-1
 1912.92089844 496.548828125 l 2,47,48
 2216.41710469 497.00362207 2216.41710469 497.00362207 2281.58496094 543.228515625 c 0,49,50
 2301 557 2301 557 2296.33691406 583.42578125 c 0,51,52
 2278 692 2278 692 2089.85253906 691.2890625 c 0,53,54
 1932 690 1932 690 1738.36914062 548.94921875 c 0,55,56
 1711 529 1711 529 1671.22167969 496.548828125 c 1,46,-1
EndSplineSet
Substitution2: "'fina' Terminal Forms in Arabic lookup 9 subtable" uniFEBA
Substitution2: "'medi' Medial Forms in Arabic lookup 11 subtable" uniFEBC
Substitution2: "'init' Initial Forms in Arabic lookup 13 subtable" uniFEBB
EndChar

StartChar: uni0637
Encoding: 1591 1591 28
Width: 1624
VWidth: 3753
GlyphClass: 2
Flags: W
AnchorPoint: "Anchor-10" 540.374 1658.33 basechar 0
AnchorPoint: "Anchor-7" 761.973 -190.535 basechar 0
LayerCount: 2
Fore
SplineSet
679.622070312 494.455078125 m 1,0,-1
 921.321289062 494.455078125 l 2,1,2
 1224 494 1224 494 1289.98535156 541.134765625 c 0,3,4
 1309 555 1309 555 1304.73730469 581.33203125 c 0,5,6
 1287 690 1287 690 1098.25390625 689.1953125 c 0,7,8
 944 688 944 688 746.76953125 546.856445312 c 0,9,10
 719 527 719 527 679.622070312 494.455078125 c 1,0,-1
733.862304688 811.049804688 m 1,11,12
 1005 1049 1005 1049 1221.11230469 1048.79394531 c 0,13,14
 1427 1048 1427 1048 1511.26757812 885.391601562 c 0,15,16
 1554 802 1554 802 1553.81835938 695.1953125 c 0,17,18
 1553 517 1553 517 1467.38574219 364.055664062 c 0,19,20
 1261.97258938 -2.0488534955 1261.97258938 -2.0488534955 798.815429688 -2.080078125 c 2,21,-1
 596.01953125 -2.09375 l 2,22,-1
 299.203125 -0.7548828125 l 1,23,24
 160 172 160 172 70.3994140625 369.064453125 c 0,25,26
 13.1984532694 494.564589266 13.1984532694 494.564589266 113.862304688 494.588867188 c 2,27,-1
 437.79296875 494.666992188 l 1,28,29
 421 1047 421 1047 368.059570312 1371.72949219 c 5,30,-1
 680.529296875 1574.83984375 l 6,31,32
 734.522657518 1609.69188141 734.522657518 1609.69188141 734.463867188 1538.58984375 c 6,33,-1
 733.862304688 811.049804688 l 1,11,12
EndSplineSet
Substitution2: "'fina' Terminal Forms in Arabic lookup 9 subtable" uniFEC2
Substitution2: "'medi' Medial Forms in Arabic lookup 11 subtable" uniFEC4
Substitution2: "'init' Initial Forms in Arabic lookup 13 subtable" uniFEC3
EndChar

StartChar: uni0639
Encoding: 1593 1593 30
Width: 1283
VWidth: 3747
GlyphClass: 2
Flags: W
AnchorPoint: "Anchor-7" 602.803 -830.44 basechar 0
AnchorPoint: "Anchor-10" 658.718 1462.67 basechar 0
LayerCount: 2
Fore
SplineSet
748.170898438 -301.796875 m 0,0,1
 987 -302 987 -302 1167 -267.903320312 c 0,2,3
 1213 -259 1213 -259 1213 -295 c 24,4,5
 1213 -320.245673364 1213 -320.245673364 1174.8203125 -387 c 2,6,-1
 1057 -593 l 6,7,8
 1005 -684 1005 -684 917 -691.137695312 c 0,9,10
 835 -697 835 -697 766.908203125 -697.46875 c 0,11,12
 406 -697 406 -697 246.725585938 -547.250976562 c 0,13,14
 86 -397 86 -397 85.654296875 -91.4033203125 c 0,15,16
 86 278 86 278 402.255859375 489.606445312 c 1,17,18
 282 616 282 616 282.235351562 772.006835938 c 0,19,20
 282 827 282 827 297.098632812 885.810546875 c 0,21,22
 306 921 306 921 312.353515625 938.684570312 c 0,23,24
 350 1038 350 1038 421 1105.84863281 c 0,25,26
 545 1222 545 1222 705.393554688 1221.53613281 c 0,27,28
 917 1222 917 1222 1053.33789062 1068.29296875 c 1,29,-1
 991.099609375 853.662109375 l 1,30,31
 856 911 856 911 772.166992188 911.411132812 c 0,32,33
 629 911 629 911 536.5546875 843.259765625 c 0,34,35
 490 809 490 809 490.434570312 770.40234375 c 0,36,37
 490 715 490 715 654.70703125 628.009765625 c 0,38,39
 683 613 683 613 687.451171875 613.979492188 c 0,40,41
 975 673 975 673 1101.65332031 674.502929688 c 0,42,43
 1133.08511051 674.871879742 1133.08511051 674.871879742 1147 667.804836038 c 0,44,45
 1171.4875709 655.368177168 1171.4875709 655.368177168 1160.47070312 601.517578125 c 2,46,-1
 1093.03613281 271.896484375 l 1,47,48
 732 267 732 267 508.4765625 153.208984375 c 0,49,50
 315 55 315 55 315.306640625 -78 c 0,51,52
 315 -302 315 -302 748.170898438 -301.796875 c 0,0,1
EndSplineSet
Substitution2: "'fina' Terminal Forms in Arabic lookup 9 subtable" uniFECA
Substitution2: "'medi' Medial Forms in Arabic lookup 11 subtable" uniFECC
Substitution2: "'init' Initial Forms in Arabic lookup 13 subtable" uniFECB
EndChar

StartChar: afii57440
Encoding: 1600 1600 32
Width: 245
VWidth: 3780
GlyphClass: 2
Flags: W
AnchorPoint: "Anchor-10" 130.433 1096.74 basechar 0
AnchorPoint: "Anchor-7" 129.767 -194.27 basechar 0
LayerCount: 2
Fore
SplineSet
-4.6591796875 494.930664062 m 6,0,-1
 250 494.930664062 l 2,1,2
 275.340820312 495.000945244 275.340820312 495.000945244 275.340820312 303 c 2,3,-1
 275.340820312 171 l 2,4,5
 275 0 275 0 250 0 c 2,6,-1
 -4.6591796875 0 l 2,7,8
 -60 0 -60 0 -60 171 c 2,9,-1
 -60 303 l 2,10,11
 -60 495 -60 495 -4.6591796875 494.930664062 c 6,0,-1
EndSplineSet
EndChar

StartChar: uni0643
Encoding: 1603 1603 35
Width: 1934
VWidth: 3713
GlyphClass: 2
Flags: W
AnchorPoint: "Anchor-10" 931.587 1581.45 basechar 0
AnchorPoint: "Anchor-7" 759.161 -199.19 basechar 0
LayerCount: 2
Fore
SplineSet
882 491 m 4,0,1
 1441 491 1441 491 1490.57128906 605.1171875 c 4,2,3
 1520 672 1520 672 1489.36230469 979.356445312 c 4,4,5
 1473 1147 1473 1147 1440.63476562 1371.25195312 c 5,6,-1
 1773.85449219 1572.67773438 l 6,7,8
 1811.56445312 1594.74512351 1811.56445312 1594.74512351 1811.56445312 1531.18945312 c 6,9,-1
 1811.56445312 741.268554688 l 6,10,11
 1812 309 1812 309 1593.30859375 160.013671875 c 4,12,13
 1358 0 1358 0 852 0 c 4,14,15
 500 0 500 0 312.755859375 102.430664062 c 4,16,17
 79 230 79 230 78.4521484375 537.642578125 c 4,18,19
 78 771 78 771 191.454101562 994.09375 c 5,20,-1
 345.512695312 938.196289062 l 5,21,22
 316 830 316 830 315.83335666 756.286267699 c 4,23,24
 316 687 316 687 341.935546875 647.479492188 c 4,25,26
 444 491 444 491 882 491 c 4,0,1
1091.23339844 727.109375 m 4,27,28
 942 626 942 626 638.579101562 722.51171875 c 5,29,-1
 658.5859375 927.451171875 l 5,30,31
 808 874 808 874 903.1953125 874.49609375 c 4,32,33
 975 875 975 875 1015.58203125 892.038085938 c 4,34,35
 1044 904 1044 904 1046.55273438 923.125 c 5,36,37
 1040 944 1040 944 939.1328125 965.841796875 c 4,38,39
 736 1010 736 1010 741.818359375 1203.54296875 c 4,40,41
 749 1412 749 1412 1086.58886719 1455.87304688 c 4,42,43
 1156 1465 1156 1465 1167.62792969 1447.36328125 c 4,44,45
 1183 1426 1183 1426 1162.75683594 1379.70605469 c 5,46,-1
 1119.82519531 1256.83789062 l 5,47,48
 882 1234 882 1234 881.956054688 1185.328125 c 4,49,50
 882 1166 882 1166 974.064453125 1150.328125 c 4,51,52
 1066 1134 1066 1134 1108.37304688 1106.43652344 c 4,53,54
 1193 1050 1193 1050 1195.92285156 925.239257812 c 4,55,56
 1199 801 1199 801 1091.23339844 727.109375 c 4,27,28
EndSplineSet
Substitution2: "'fina' Terminal Forms in Arabic lookup 9 subtable" uniFEDA
Substitution2: "'medi' Medial Forms in Arabic lookup 11 subtable" uniFEDC
Substitution2: "'init' Initial Forms in Arabic lookup 13 subtable" uniFEDB
EndChar

StartChar: uni0644
Encoding: 1604 1604 36
Width: 1452
VWidth: 3753
GlyphClass: 2
Flags: W
AnchorPoint: "Anchor-10" 575.865 1159.54 basechar 0
AnchorPoint: "Anchor-7" 634.818 -787.482 basechar 0
LayerCount: 2
Fore
SplineSet
1339 235 m 6,0,1
 1353.32020498 -236.731857326 1353.32020498 -236.731857326 1112.65917969 -438.263671875 c 4,2,3
 957 -568 957 -568 698.983398438 -567.462890625 c 28,4,5
 393 -567 393 -567 233.981445312 -395.92578125 c 4,6,7
 77 -228 77 -228 77.33203125 30.6279296875 c 4,8,9
 77 309 77 309 203.59765625 549.059570312 c 5,10,-1
 380.661132812 494.107421875 l 5,11,12
 329 321 329 321 328.901367188 207.822265625 c 4,13,14
 329 89 329 89 380.943359375 24.2216796875 c 4,15,16
 478 -95 478 -95 704.557617188 -95.9609375 c 4,17,18
 927 -97 927 -97 1020.31640625 50.4208984375 c 4,19,20
 1052 101 1052 101 1046.52636719 182.3984375 c 4,21,22
 1014 678 1014 678 935.416015625 1371.65039062 c 5,23,-1
 1234 1553.92773438 l 6,24,25
 1297.77973392 1592.86552664 1297.77973392 1592.86552664 1300.17382812 1514 c 6,26,-1
 1339 235 l 6,0,1
EndSplineSet
Substitution2: "'fina' Terminal Forms in Arabic lookup 9 subtable" uniFEDE
Substitution2: "'medi' Medial Forms in Arabic lookup 11 subtable" uniFEE0
Substitution2: "'init' Initial Forms in Arabic lookup 13 subtable" uniFEDF
EndChar

StartChar: uni0645
Encoding: 1605 1605 37
Width: 1207
VWidth: 3783
GlyphClass: 2
Flags: W
AnchorPoint: "Anchor-10" 644.993 1412.86 basechar 0
AnchorPoint: "Anchor-7" 258.265 -907.098 basechar 0
LayerCount: 2
Fore
SplineSet
92.013671875 -559 m 4,0,-1
 80.63671875 -231.83203125 l 2,1,2
 78 -156 78 -156 77.91796875 -117.653320312 c 0,3,4
 78 120 78 120 108.061523438 234.493164062 c 0,5,6
 167 460 167 460 323.703125 523.305664062 c 1,7,8
 424 899 424 899 598.233398438 974.072265625 c 0,9,10
 654 998 654 998 710.322265625 998.298828125 c 0,11,12
 881 998 881 998 1017.87304688 814 c 0,13,14
 1101 702 1101 702 1126.56835938 575.728515625 c 0,15,16
 1139 513 1139 513 1139.26660156 453.817382812 c 0,17,18
 1139 344 1139 344 1085.0078125 214 c 0,19,20
 1022 62 1022 62 941.494140625 23.0205078125 c 0,21,22
 918 12 918 12 895.561523438 11.9580078125 c 0,23,24
 885 12 885 12 875.1875 14.1796875 c 0,25,26
 606 74 606 74 451.659179688 73.8720703125 c 0,27,28
 392 74 392 74 350.572265625 55.486328125 c 1,29,-1
 365.454101562 -389.473632812 l 6,30,31
 369 -497 369 -497 239.278320312 -639 c 4,32,33
 154 -733 154 -733 120 -734 c 4,34,35
 97.4369701629 -734 97.4369701629 -734 94.9267578125 -653 c 6,36,-1
 92.013671875 -559 l 4,0,-1
901.943359375 483.497070312 m 1,37,38
 893 544 893 544 831 621.553710938 c 0,39,40
 772 696 772 696 694.38671875 695.893554688 c 0,41,42
 612 696 612 696 542.778320312 580.1953125 c 0,43,44
 529 557 529 557 519.029296875 533.71875 c 1,45,46
 708 530 708 530 901.943359375 483.497070312 c 1,37,38
EndSplineSet
Substitution2: "'init' Initial Forms in Arabic lookup 13 subtable" uniFEE3
Substitution2: "'medi' Medial Forms in Arabic lookup 11 subtable" uniFEE4
Substitution2: "'fina' Terminal Forms in Arabic lookup 9 subtable" uniFEE2
EndChar

StartChar: uni0647
Encoding: 1607 1607 39
Width: 947
VWidth: 3746
GlyphClass: 2
Flags: W
AnchorPoint: "Anchor-10" 404.569 1360.81 basechar 0
AnchorPoint: "Anchor-7" 452.886 -195.5 basechar 0
LayerCount: 2
Fore
SplineSet
411.143554688 681.3046875 m 1,0,1
 280.53125 523.3671875 280.53125 523.3671875 322.099609375 480.587890625 c 0,2,3
 358.397460938 443.154296875 358.397460938 443.154296875 475.942382812 444.290039062 c 0,4,5
 626.129882812 445.16015625 626.129882812 445.16015625 645.311523438 515.793945312 c 0,6,7
 651.729492188 540.412109375 651.729492188 540.412109375 627.388671875 570.76171875 c 0,8,9
 589.86328125 619.623046875 589.86328125 619.623046875 428.806640625 675.203125 c 0,10,11
 421.331054688 677.77734375 421.331054688 677.77734375 411.143554688 681.3046875 c 1,0,1
876.616210938 513.616210938 m 0,12,13
 879.994140625 267.688476562 879.994140625 267.688476562 762.028320312 126.057617188 c 0,14,15
 654.9296875 -2.02734375 654.9296875 -2.02734375 467.197265625 1.984375 c 128,-1,16
 279.46484375 5.9951171875 279.46484375 5.9951171875 183.108398438 111.965820312 c 0,17,18
 75.732421875 229.587890625 75.732421875 229.587890625 74.6650390625 416.802734375 c 0,19,20
 73.599609375 707.857421875 73.599609375 707.857421875 317.375976562 1033.65722656 c 0,21,22
 359.46484375 1089.87011719 359.46484375 1089.87011719 418.420898438 1067.13671875 c 0,23,24
 785.413085938 924.884765625 785.413085938 924.884765625 853.040039062 666.982421875 c 0,25,26
 874.661132812 583.526367188 874.661132812 583.526367188 876.616210938 513.616210938 c 0,12,13
EndSplineSet
Substitution2: "'fina' Terminal Forms in Arabic lookup 9 subtable" uniFEEA
Substitution2: "'medi' Medial Forms in Arabic lookup 11 subtable" uniFEEC
Substitution2: "'init' Initial Forms in Arabic lookup 13 subtable" uniFEEB
EndChar

StartChar: uni0648
Encoding: 1608 1608 40
Width: 878
VWidth: 3781
GlyphClass: 2
Flags: W
AnchorPoint: "Anchor-7" 321.246 -726.137 basechar 0
AnchorPoint: "Anchor-10" 397.92 1194.73 basechar 0
LayerCount: 2
Fore
SplineSet
114.893554688 -391.8828125 m 4,0,1
 359 -223 359 -223 507 -2.1806640625 c 9,2,3
 473 -5 473 -5 437.790039062 -5.3291015625 c 0,4,5
 253 -8 253 -8 164.194335938 100.319335938 c 0,6,7
 78 205 78 205 77.5810546875 368.064453125 c 0,8,9
 78 486 78 486 122.798828125 633.66015625 c 0,10,11
 170 787 170 787 240.213867188 865.26171875 c 0,12,13
 327 962 327 962 443.234375 962.008789062 c 0,14,15
 671 962 671 962 755.818359375 663.370117188 c 0,16,17
 800 508 800 508 800.877929688 309.974609375 c 0,18,19
 801.978130312 60.9500867245 801.978130312 60.9500867245 742.493164062 -178 c 16,20,21
 685 -409 685 -409 591 -483.046875 c 4,22,23
 545 -520 545 -520 433 -520 c 6,24,-1
 189 -520 l 6,25,26
 34 -520 34 -520 33.904296875 -469.412109375 c 4,27,28
 34 -448 34 -448 114.893554688 -391.8828125 c 4,0,1
583.155273438 486.203125 m 1,29,30
 562 541 562 541 537.75 576 c 0,31,32
 491 642 491 642 408 642.52734375 c 0,33,34
 332.950195312 641.872070312 332.950195312 641.872070312 308.184570312 577.583984375 c 0,35,36
 300.897460938 557.783203125 300.897460938 557.783203125 300.897460938 542.310546875 c 0,37,38
 300.897460938 497.939453125 300.897460938 497.939453125 360.825195312 489.162109375 c 0,39,40
 389.982421875 485.000976562 389.982421875 485.000976562 475.258789062 485.000976562 c 0,41,42
 521.099609375 485.000976562 521.099609375 485.000976562 583.155273438 486.203125 c 1,29,30
EndSplineSet
Substitution2: "'fina' Terminal Forms in Arabic lookup 9 subtable" uniFEEE
EndChar

StartChar: uni0649
Encoding: 1609 1609 41
Width: 1590
VWidth: 3753
GlyphClass: 2
Flags: W
AnchorPoint: "Anchor-10" 705.179 1171.08 basechar 0
AnchorPoint: "Anchor-7" 662.738 -737.887 basechar 0
LayerCount: 2
Fore
SplineSet
730 -547 m 0,0,1
 405 -547 405 -547 235.998046875 -385.462890625 c 4,2,3
 77.9938445452 -229.874654692 77.9938445452 -229.874654692 78.3486328125 51.0908203125 c 0,4,5
 78 348 78 348 232.936523438 643.952148438 c 1,6,-1
 402 581 l 1,7,8
 330 378 330 378 329.91796875 238.28515625 c 0,9,10
 330 -91 330 -91 755.352539062 -90.4990234375 c 0,11,12
 1032 -90 1032 -90 1197.59179688 39.5400390625 c 0,13,14
 1211.08734768 50.0681413692 1211.08734768 50.0681413692 1190.12597656 53.3037109375 c 2,15,-1
 920 95 l 2,16,17
 783 116 783 116 751.728515625 177.598632812 c 0,18,19
 733 215 733 215 733.0859375 276.4453125 c 0,20,21
 733 349 733 349 759.249023438 454.127929688 c 0,22,23
 808 649 808 649 944 800 c 0,24,25
 1110 984 1110 984 1326.0390625 983.649414062 c 0,26,27
 1445 984 1445 984 1526.43847656 919.826171875 c 1,28,29
 1500 746 1500 746 1473.85742188 571.462890625 c 1,30,31
 1422 583 1422 583 1349.29101562 583.436523438 c 0,32,33
 1122 583 1122 583 987.060546875 448.129882812 c 1,34,-1
 1133.59277344 423.596679688 l 2,35,36
 1330.07123157 390.664197649 1330.07123157 390.664197649 1381.5234375 357 c 4,37,38
 1461 305 1461 305 1461.35644531 172.098632812 c 0,39,40
 1461 -156 1461 -156 1261.32519531 -350.076171875 c 0,41,42
 1059 -547 1059 -547 730 -547 c 0,0,1
EndSplineSet
Substitution2: "'fina' Terminal Forms in Arabic lookup 9 subtable" uniFEF0
Substitution2: "'medi' Medial Forms in Arabic lookup 11 subtable" uniFBE9
Substitution2: "'init' Initial Forms in Arabic lookup 13 subtable" uniFBE8
EndChar

StartChar: uni064B
Encoding: 1611 1611 43
Width: -25
VWidth: 2410
GlyphClass: 4
Flags: W
AnchorPoint: "Anchor-10" 637 1182.3 mark 0
AnchorPoint: "Anchor-9" 637 1182.3 mark 0
AnchorPoint: "Anchor-1" 595.196 1736 basemark 0
AnchorPoint: "Anchor-1" 637 1182.3 mark 0
LayerCount: 2
Fore
SplineSet
344 1118 m 1,0,-1
 344 1286.07714844 l 1,1,-1
 797 1471.07324219 l 1,2,-1
 797 1303 l 1,3,-1
 344 1118 l 1,0,-1
344 1380 m 1,4,-1
 344 1548.07714844 l 1,5,-1
 797 1734.07324219 l 1,6,-1
 797 1566 l 1,7,-1
 344 1380 l 1,4,-1
EndSplineSet
EndChar

StartChar: uni064C
Encoding: 1612 1612 44
Width: -25
VWidth: 2410
GlyphClass: 4
Flags: W
AnchorPoint: "Anchor-10" 706.932 1291.33 mark 0
AnchorPoint: "Anchor-9" 706.932 1291.33 mark 0
AnchorPoint: "Anchor-1" 593.593 2014.74 basemark 0
AnchorPoint: "Anchor-1" 706.932 1291.33 mark 0
LayerCount: 2
Fore
SplineSet
717.16015625 1678.85058594 m 1,0,1
 732 1713 732 1713 731.6796875 1740.08789062 c 4,2,3
 732 1765 732 1765 721.3359375 1782.35839844 c 0,4,5
 707 1806 707 1806 675.055664062 1805.66210938 c 0,6,7
 621 1806 621 1806 621.223384359 1759.81238533 c 0,8,9
 621 1713 621 1713 682.21875 1690.63183594 c 0,10,11
 695 1686 695 1686 717.16015625 1678.85058594 c 1,0,1
864.051757812 1655.39355469 m 1,12,13
 899 1654 899 1654 945.5625 1653.02832031 c 1,14,-1
 945.5625 1508.87695312 l 1,15,-1
 913.05078125 1509.3984375 l 2,16,17
 875.968195018 1509.99254467 875.968195018 1509.99254467 801.72265625 1517.12792969 c 1,18,19
 737.95703125 1385.80957031 737.95703125 1385.80957031 617.995117188 1301.38867188 c 0,20,21
 548.068359375 1252.18359375 548.068359375 1252.18359375 481.021484375 1251.87207031 c 0,22,23
 480.24249952 1251.86844242 480.24249952 1251.86844242 479.466184791 1251.86844242 c 0,24,25
 357.368249224 1251.86844242 357.368249224 1251.86844242 301.3203125 1341.61035156 c 0,26,27
 244.916992188 1431.92382812 244.916992188 1431.92382812 241.787109375 1597.25390625 c 2,28,-1
 241.171875 1629.85839844 l 1,29,-1
 360.03515625 1629.85839844 l 1,30,-1
 362.076171875 1600.04199219 l 2,31,32
 369.756835938 1487.72265625 369.756835938 1487.72265625 381.821289062 1461.1640625 c 0,33,34
 399.028320312 1423.28515625 399.028320312 1423.28515625 415.466796875 1408.31640625 c 128,-1,35
 431.904296875 1393.34765625 431.904296875 1393.34765625 451.89453125 1393.82421875 c 0,36,37
 583.236328125 1396.95507812 583.236328125 1396.95507812 664.440429688 1546.90234375 c 1,38,39
 474.161860818 1592.27747057 474.161860818 1592.27747057 474.161860818 1750.33780208 c 0,40,41
 474.161860818 1904.63942568 474.161860818 1904.63942568 607.904296875 1941.70898438 c 0,42,43
 646.472222937 1952.39672841 646.472222937 1952.39672841 691.903320312 1949.17773438 c 0,44,45
 818.53125 1940.20703125 818.53125 1940.20703125 861.67578125 1825.03613281 c 0,46,47
 875.892578125 1787.09570312 875.892578125 1787.09570312 875.892578125 1742.10058594 c 128,-1,48
 875.892578125 1697.10546875 875.892578125 1697.10546875 864.051757812 1655.39355469 c 1,12,13
EndSplineSet
EndChar

StartChar: uni064D
Encoding: 1613 1613 45
Width: -24
VWidth: 2238
GlyphClass: 4
Flags: W
AnchorPoint: "Anchor-7" 534.761 99.6797 mark 0
AnchorPoint: "Anchor-6" 534.761 99.6797 mark 0
AnchorPoint: "Anchor-0" 614.975 -406.579 basemark 0
AnchorPoint: "Anchor-0" 534.761 99.6797 mark 0
LayerCount: 2
Fore
SplineSet
301 -496 m 5,0,-1
 301 -327.922851562 l 5,1,-1
 754 -142.926757812 l 5,2,-1
 754 -311 l 5,3,-1
 301 -496 l 5,0,-1
301 -234 m 5,4,-1
 301 -65.9228515625 l 5,5,-1
 754 120.073242188 l 5,6,-1
 754 -48 l 5,7,-1
 301 -234 l 5,4,-1
EndSplineSet
EndChar

StartChar: uni064E
Encoding: 1614 1614 46
Width: -24
VWidth: 2238
GlyphClass: 4
Flags: W
AnchorPoint: "Anchor-10" 541.027 1343.54 mark 0
AnchorPoint: "Anchor-9" 541.027 1343.54 mark 0
AnchorPoint: "Anchor-1" 520.452 1658.02 basemark 0
AnchorPoint: "Anchor-1" 541.027 1343.54 mark 0
LayerCount: 2
Fore
SplineSet
277 1289 m 5,0,-1
 277 1457.07714844 l 5,1,-1
 730 1643.07324219 l 5,2,-1
 730 1475 l 5,3,-1
 277 1289 l 5,0,-1
EndSplineSet
EndChar

StartChar: uni064F
Encoding: 1615 1615 47
Width: -24
VWidth: 2238
GlyphClass: 4
Flags: W
AnchorPoint: "Anchor-10" 597.961 1290.64 mark 0
AnchorPoint: "Anchor-9" 597.961 1290.64 mark 0
AnchorPoint: "Anchor-1" 528.853 1887.42 basemark 0
AnchorPoint: "Anchor-1" 597.961 1290.64 mark 0
LayerCount: 2
Fore
SplineSet
745.669921875 1557.06347656 m 1,0,1
 770.879882812 1555.7890625 770.879882812 1555.7890625 790.764648438 1555.640625 c 2,2,-1
 822.53125 1555.40917969 l 1,3,-1
 822.53125 1416.41894531 l 1,4,-1
 789.965820312 1416.99121094 l 2,5,6
 743.30078125 1417.82421875 743.30078125 1417.82421875 680.61328125 1424.00585938 c 1,7,8
 625.995117188 1353.79101562 625.995117188 1353.79101562 534.109375 1297.05566406 c 128,-1,9
 442.223632812 1240.31933594 442.223632812 1240.31933594 308.266601562 1233.11035156 c 2,10,-1
 274.546875 1231.29394531 l 1,11,-1
 274.546875 1370.22753906 l 1,12,-1
 305.043945312 1371.65917969 l 2,13,14
 437.852539062 1377.90722656 437.852539062 1377.90722656 523.892578125 1465.21679688 c 1,15,16
 463.083984375 1487.99121094 463.083984375 1487.99121094 428.815429688 1526.34765625 c 0,17,18
 381.462890625 1579.35058594 381.462890625 1579.35058594 381.293945312 1635.36816406 c 0,19,20
 381.292678327 1635.78753223 381.292678327 1635.78753223 381.292678327 1636.20621711 c 0,21,22
 381.292678327 1738.41009415 381.292678327 1738.41009415 456.790039062 1799.8984375 c 0,23,24
 499.241210938 1834.67480469 499.241210938 1834.67480469 569.72265625 1834.88378906 c 0,25,26
 760.241831432 1834.33976649 760.241831432 1834.33976649 760.241831432 1651.49647941 c 0,27,28
 760.211573691 1608.6611725 760.211573691 1608.6611725 745.669921875 1557.06347656 c 1,0,1
606.05078125 1579.79003906 m 1,29,30
 619 1617 619 1617 619.122439406 1642.12001754 c 0,31,32
 619 1691 619 1691 568.283203125 1691.21582031 c 0,33,34
 530 1691 530 1691 522.856445312 1655.60449219 c 0,35,36
 516 1620 516 1620 560 1597 c 4,37,38
 584 1585 584 1585 606.05078125 1579.79003906 c 1,29,30
EndSplineSet
EndChar

StartChar: uni0650
Encoding: 1616 1616 48
Width: -24
VWidth: 2238
GlyphClass: 4
Flags: W
AnchorPoint: "Anchor-7" 551.05 -3.2773 mark 0
AnchorPoint: "Anchor-6" 551.05 -3.2773 mark 0
AnchorPoint: "Anchor-0" 595.143 -289.976 basemark 0
AnchorPoint: "Anchor-0" 551.05 -3.2773 mark 0
LayerCount: 2
Fore
SplineSet
326 -338 m 1,0,-1
 326 -169.922851562 l 1,1,-1
 779 16.0732421875 l 1,2,-1
 779 -152 l 1,3,-1
 326 -338 l 1,0,-1
EndSplineSet
EndChar

StartChar: uni0651
Encoding: 1617 1617 49
Width: -24
VWidth: 2238
GlyphClass: 4
Flags: W
AnchorPoint: "Anchor-10" 589.815 1371.68 mark 0
AnchorPoint: "Anchor-9" 589.815 1371.68 mark 0
AnchorPoint: "Anchor-1" 560.134 1807.24 basemark 0
AnchorPoint: "Anchor-1" 589.815 1371.68 mark 0
LayerCount: 2
Fore
SplineSet
353.83203125 1656.94726562 m 1,0,-1
 355.810546875 1578.97949219 l 2,1,2
 357 1544 357 1544 372.067382812 1526.75292969 c 4,3,4
 387 1509 387 1509 418.973632812 1510.33007812 c 4,5,6
 481.074761287 1512.00201278 481.074761287 1512.00201278 481.462890625 1582.42480469 c 2,7,-1
 482.21484375 1718.86035156 l 1,8,9
 537.658764103 1736.52859628 537.658764103 1736.52859628 595.13671875 1742.21191406 c 2,10,-1
 618.119140625 1744.484375 l 1,11,-1
 620.259765625 1633.97949219 l 2,12,13
 621 1592 621 1592 648.248046875 1578.29785156 c 4,14,15
 662 1571 662 1571 689.600585938 1571.44628906 c 4,16,17
 747 1571 747 1571 744.17440215 1637.05772828 c 0,18,19
 744 1641 744 1641 744.009765625 1645.58886719 c 2,20,-1
 740.892578125 1728.54003906 l 1,21,22
 837 1791 837 1791 844.498046875 1796.46386719 c 2,23,-1
 874.421875 1815.75488281 l 1,24,-1
 882.05859375 1722.22949219 l 2,25,26
 885 1686 885 1686 885.238509928 1647.59948709 c 0,27,28
 885 1381 885 1381 700.627470971 1380.78996632 c 0,29,30
 630 1381 630 1381 577.015625 1421.66015625 c 1,31,32
 521 1320 521 1320 408.310920297 1319.93476457 c 0,33,34
 218 1320 218 1320 220.688136987 1555.45071899 c 0,35,36
 221.002554203 1583.22563261 221.002554203 1583.22563261 222.551757812 1604.63378906 c 2,37,-1
 229.995117188 1707.4921875 l 1,38,-1
 257.140625 1696.54003906 l 2,39,40
 257 1696 257 1696 353.83203125 1656.94726562 c 1,0,-1
EndSplineSet
EndChar

StartChar: uni0652
Encoding: 1618 1618 50
Width: -31
VWidth: 2796
GlyphClass: 4
Flags: W
AnchorPoint: "Anchor-10" 721.878 1527.92 mark 0
AnchorPoint: "Anchor-9" 721.878 1527.92 mark 0
AnchorPoint: "Anchor-1" 702.956 2110.45 basemark 0
AnchorPoint: "Anchor-1" 721.878 1527.92 mark 0
LayerCount: 2
Fore
SplineSet
710.6171875 1694.85058594 m 0,0,1
 777 1695 777 1695 801.74582865 1754.29622404 c 0,2,3
 809 1771 809 1771 808.651367188 1788.46875 c 0,4,5
 809 1806 809 1806 805.562604609 1818.29536653 c 0,6,7
 803 1830 803 1830 795.088474827 1842.07577188 c 0,8,9
 788 1854 788 1854 775.604952198 1866.04273 c 0,10,11
 750 1891 750 1891 710.61328125 1889.43652344 c 0,12,13
 701 1889 701 1889 692.319747615 1888.24782369 c 0,14,15
 684 1887 684 1887 675.886485279 1884.67663458 c 0,16,17
 668 1882 668 1882 661.271004637 1878.69996615 c 0,18,19
 654 1875 654 1875 648.448404413 1870.31071307 c 0,20,21
 642 1866 642 1866 637.375022446 1859.48482643 c 0,22,23
 632 1853 632 1853 628.025957463 1846.21520089 c 0,24,25
 624 1839 624 1839 620.358719855 1830.4788465 c 0,26,27
 618 1825 618 1825 616.509472795 1817.46889208 c 128,-1,28
 615 1810 615 1810 614.137890408 1801.01493886 c 0,29,30
 613 1792 613 1792 613.32421875 1781.2265625 c 0,31,32
 613 1748 613 1748 634.810546875 1726.05664062 c 0,33,34
 649 1712 649 1712 666.234942982 1704.31968865 c 0,35,36
 672 1702 672 1702 676.673551806 1700.34893097 c 0,37,38
 681 1699 681 1699 684.163531898 1698.00259838 c 0,39,40
 688 1697 688 1697 692.579766486 1696.25498211 c 0,41,42
 697 1696 697 1696 701.395381069 1695.20296732 c 0,43,44
 706 1695 706 1695 710.6171875 1694.85058594 c 0,0,1
938.738984016 1746.20899967 m 128,-1,46
 936.645497215 1734.95139171 936.645497215 1734.95139171 933.487283567 1724.14146486 c 128,-1,47
 930.329069918 1713.33153802 930.329069918 1713.33153802 926.107330257 1702.97808131 c 0,48,49
 917.653931429 1682.24991157 917.653931429 1682.24991157 904.985163349 1663.43662109 c 128,-1,50
 892.423850666 1644.78370526 892.423850666 1644.78370526 875.694178196 1627.9454115 c 0,51,52
 808.472931345 1560.296875 808.472931345 1560.296875 711.337890625 1560.296875 c 128,-1,53
 614.199811465 1560.296875 614.199811465 1560.296875 546.982524451 1627.94644358 c 128,-1,54
 479.79296875 1695.56520433 479.79296875 1695.56520433 479.79296875 1792.63574219 c 0,55,56
 479.79296875 1811.99962425 479.79296875 1811.99962425 482.488601351 1830.21893705 c 128,-1,57
 485.184233952 1848.43824985 485.184233952 1848.43824985 490.57160826 1865.48273186 c 128,-1,58
 495.958982567 1882.52721388 495.958982567 1882.52721388 504.025823651 1898.38146124 c 128,-1,59
 512.092664734 1914.23570861 512.092664734 1914.23570861 522.845767372 1928.89020393 c 128,-1,60
 533.59887001 1943.54469924 533.59887001 1943.54469924 547.015273598 1956.96329454 c 0,61,62
 580.55873459 1990.50625735 580.55873459 1990.50625735 621.731618591 2007.34394899 c 128,-1,63
 662.904502592 2024.18164062 662.904502592 2024.18164062 711.337890625 2024.18164062 c 0,64,65
 804.244711625 2024.18164062 804.244711625 2024.18164062 861.069480319 1979.10191026 c 128,-1,66
 917.894249012 1934.02217989 917.894249012 1934.02217989 937.470906418 1844.73193563 c 2,67,-1
 937.501320605 1844.5932148 l 1,68,-1
 937.523811891 1844.45299128 l 1,69,-1
 941.416390016 1820.18443659 l 1,70,-1
 941.452491963 1819.91149356 l 2,71,72
 942.883789062 1806.19473047 942.883789062 1806.19473047 942.883789062 1787.44824219 c 0,73,74
 942.883789062 1777.95049688 942.883789062 1777.95049688 941.846013382 1767.64453777 c 128,-1,45
 940.808237701 1757.33857866 940.808237701 1757.33857866 938.738984016 1746.20899967 c 128,-1,46
EndSplineSet
EndChar

StartChar: uni0653
Encoding: 1619 1619 51
Width: -3
VWidth: 2763
GlyphClass: 4
Flags: W
AnchorPoint: "Anchor-10" 485.314 1591.4 mark 0
AnchorPoint: "Anchor-9" 485.314 1591.4 mark 0
AnchorPoint: "Anchor-1" 455.074 2066.98 basemark 0
AnchorPoint: "Anchor-1" 485.314 1591.4 mark 0
LayerCount: 2
Fore
SplineSet
361.295898438 1668.19628906 m 1,0,1
 284 1666 284 1666 180.21484375 1573.33007812 c 1,2,3
 130 1605 130 1605 102.891601562 1642.38769531 c 1,4,5
 145 1817 145 1817 215.411132812 1899.19140625 c 0,6,7
 254 1944 254 1944 323.298828125 1944.29101562 c 0,8,9
 384 1944 384 1944 517.91015625 1926.82910156 c 0,10,11
 652 1909 652 1909 733.3671875 1929.69335938 c 0,12,13
 839 1957 839 1957 855.4609375 1944.25488281 c 0,14,15
 885 1921 885 1921 813 1806 c 4,16,17
 770 1737 770 1737 727.30078125 1699.53613281 c 0,18,19
 665 1643 665 1643 361.295898438 1668.19628906 c 1,0,1
EndSplineSet
EndChar

StartChar: uni0657
Encoding: 1623 1623 54
Width: -34
VWidth: 3019
GlyphClass: 4
Flags: W
AnchorPoint: "Anchor-10" 743.995 1787.47 mark 0
AnchorPoint: "Anchor-9" 743.995 1787.47 mark 0
AnchorPoint: "Anchor-1" 743.995 2746.93 basemark 0
AnchorPoint: "Anchor-1" 743.995 1787.47 mark 0
LayerCount: 2
Fore
SplineSet
554.524414062 1886.17578125 m 0,0,1
 334.931640625 1970.12109375 334.931640625 1970.12109375 416.420898438 2239.11523438 c 1,2,3
 365.309570312 2241.49902344 365.309570312 2241.49902344 341.5 2241.67675781 c 2,4,-1
 309.739257812 2241.9140625 l 1,5,-1
 309.739257812 2411.05371094 l 1,6,-1
 342.375 2410.40332031 l 2,7,8
 410.6640625 2408.51855469 410.6640625 2408.51855469 496.09765625 2400.4375 c 1,9,10
 700.958007812 2678.86132812 700.958007812 2678.86132812 1017.12011719 2706.36523438 c 6,11,-1
 1051.89257812 2709.390625 l 1,12,-1
 1051.89257812 2539.68652344 l 1,13,-1
 1021.70605469 2537.97363281 l 2,14,15
 908.793945312 2531.18457031 908.793945312 2531.18457031 747.431640625 2404.85058594 c 0,16,17
 716.795898438 2380.78515625 716.795898438 2380.78515625 689.543945312 2353.01269531 c 1,18,19
 833.061523438 2305.05273438 833.061523438 2305.05273438 876.724609375 2182.59863281 c 0,20,21
 915.194335938 2076.78710938 915.194335938 2076.78710938 852.967773438 1970.91210938 c 0,22,23
 793.594726562 1869.85449219 793.594726562 1869.85449219 641.2890625 1871.32519531 c 0,24,25
 591.99609375 1871.98828125 591.99609375 1871.98828125 554.524414062 1886.17578125 c 0,0,1
586.366210938 2211.47949219 m 1,26,27
 565.678710938 2163.21484375 565.678710938 2163.21484375 565.678710938 2130.35839844 c 128,-1,28
 565.678710938 2097.50292969 565.678710938 2097.50292969 570.026367188 2087.21679688 c 0,29,30
 587.501953125 2045.87402344 587.501953125 2045.87402344 627.271484375 2040.17480469 c 1,31,32
 715.662109375 2040.17480469 715.662109375 2040.17480469 715.662109375 2110.73632812 c 0,33,34
 715.662109375 2170.25 715.662109375 2170.25 586.366210938 2211.47949219 c 1,26,27
EndSplineSet
EndChar

StartChar: uni065A
Encoding: 1626 1626 55
Width: 1473
VWidth: 3019
GlyphClass: 4
Flags: W
AnchorPoint: "Anchor-10" 743.995 1787.47 mark 0
AnchorPoint: "Anchor-9" 743.995 1787.47 mark 0
AnchorPoint: "Anchor-1" 741.044 2451.72 basemark 0
AnchorPoint: "Anchor-1" 743.995 1787.47 mark 0
LayerCount: 2
Fore
SplineSet
632.928710938 1875.75097656 m 1,0,-1
 341.216796875 2363.43554688 l 1,1,-1
 553.84375 2363.43554688 l 1,2,-1
 743.995117188 2078.19726562 l 1,3,-1
 934.1484375 2363.43554688 l 1,4,-1
 1146.77929688 2363.43554688 l 1,5,-1
 855.061523438 1875.75097656 l 1,6,-1
 632.928710938 1875.75097656 l 1,0,-1
EndSplineSet
EndChar

StartChar: afii57392
Encoding: 1632 1632 56
Width: 897
VWidth: 3399
GlyphClass: 2
Flags: W
LayerCount: 2
Fore
SplineSet
450.950195312 902.525390625 m 5,0,-1
 756.166992188 597.309570312 l 5,1,-1
 445.200195312 286.341796875 l 5,2,-1
 139.983398438 591.559570312 l 5,3,-1
 450.950195312 902.525390625 l 5,0,-1
EndSplineSet
EndChar

StartChar: afii57393
Encoding: 1633 1633 57
Width: 788
VWidth: 3386
GlyphClass: 2
Flags: W
LayerCount: 2
Fore
SplineSet
607.756835938 326.870117188 m 4,0,1
 609 184 609 184 587.899414062 98.638671875 c 4,2,3
 568.045898438 16.1923828125 568.045898438 16.1923828125 357.724609375 -0.0732421875 c 6,4,-1
 334.364257812 -1.8798828125 l 5,5,6
 321 672 321 672 90.7626953125 1266.70019531 c 5,7,-1
 360.326171875 1518.96289062 l 6,8,9
 413 1568 413 1568 436.22265625 1501.68066406 c 4,10,11
 602 1034 602 1034 607.756835938 326.870117188 c 4,0,1
EndSplineSet
EndChar

StartChar: afii57394
Encoding: 1634 1634 58
Width: 1220
VWidth: 3386
GlyphClass: 2
Flags: W
LayerCount: 2
Fore
SplineSet
713.595703125 1204.52539062 m 1052,0,-1
493.391601562 1321 m 24,1,2
 528 1204 528 1204 713.595703125 1204.52539062 c 4,3,4
 897.659179688 1204.99902344 897.659179688 1204.99902344 920.655273438 1432.37988281 c 2,5,-1
 927.66796875 1501.71972656 l 1,6,-1
 1129.40917969 1501.71972656 l 1,7,8
 1128.67382812 1418.72363281 l 2,9,10
 1123 764 1123 764 682.958007812 763.93359375 c 4,11,12
 645 764 645 764 586.186523438 770 c 5,13,14
 606 573 606 573 607.756835938 336.870117188 c 0,15,16
 609 197 609 197 587.899414062 98.638671875 c 0,17,18
 570.076171875 16.349609375 570.076171875 16.349609375 357.724609375 -0.0732421875 c 2,19,-1
 334.364257812 -1.8798828125 l 1,20,21
 321 694 321 694 90.7626953125 1286.70019531 c 5,22,-1
 360.326171875 1518.96289062 l 2,23,24
 415 1566 415 1566 436.22265625 1501.68066406 c 0,25,26
 478 1374 478 1374 493.391601562 1321 c 24,1,2
EndSplineSet
EndChar

StartChar: afii57395
Encoding: 1635 1635 59
Width: 1385
VWidth: 3386
GlyphClass: 2
Flags: W
LayerCount: 2
Fore
SplineSet
493.391601562 1321 m 16,0,1
 526 1206 526 1206 626.705078125 1205.0859375 c 0,2,3
 717.014648438 1205 717.014648438 1205 728.073242188 1341.21875 c 2,4,-1
 737.745117188 1460.36035156 l 1,5,-1
 933.865234375 1460.36035156 l 1,6,-1
 933.43359375 1354.27734375 l 2,7,8
 933 1205 933 1205 1013.859375 1201.85839844 c 0,9,10
 1082.34863281 1198.98535156 1082.34863281 1198.98535156 1095.90136719 1356.35449219 c 6,11,-1
 1106.48339844 1479.23046875 l 1,12,-1
 1307.87207031 1479.23046875 l 1,13,-1
 1307.10351562 1409.98828125 l 2,14,15
 1300 791 1300 791 1002.66601562 790.286132812 c 0,16,17
 880 790 880 790 807.8984375 915.590820312 c 1,18,19
 720 775 720 775 586.186523438 772 c 1,20,21
 606 575 606 575 607.756835938 336.870117188 c 0,22,23
 609 197 609 197 587.899414062 98.638671875 c 0,24,25
 570.076171875 16.349609375 570.076171875 16.349609375 357.724609375 -0.0732421875 c 2,26,-1
 334.364257812 -1.8798828125 l 1,27,28
 321 694 321 694 90.7626953125 1286.70019531 c 1,29,-1
 360.326171875 1518.96289062 l 2,30,31
 415 1566 415 1566 436.22265625 1501.68066406 c 0,32,33
 478 1374 478 1374 493.391601562 1321 c 16,0,1
EndSplineSet
EndChar

StartChar: afii57396
Encoding: 1636 1636 60
Width: 982
VWidth: 3393
GlyphClass: 2
Flags: W
LayerCount: 2
Fore
SplineSet
470.2421875 1019.82910156 m 1,0,1
 613.868164062 930.328125 613.868164062 930.328125 762.387695312 865.700195312 c 2,2,-1
 792.2265625 852.715820312 l 1,3,-1
 806.072265625 695.647460938 l 1,4,-1
 771.713867188 680.793945312 l 2,5,6
 504 565 504 565 435.151367188 496.099609375 c 1,7,8
 625.69921875 430.104492188 625.69921875 430.104492188 842.826171875 437.603515625 c 6,9,-1
 910.40234375 439.9375 l 5,10,-1
 904.430664062 129.09765625 l 6,11,12
 903 45 903 45 889.4609375 29.8662109375 c 4,13,14
 870 7 870 7 790.802734375 10.8759765625 c 4,15,16
 330 31 330 31 179.40234375 148.140625 c 0,17,18
 -4 291 -4 291 195.04296875 542.53125 c 0,19,20
 239 598 239 598 377.530273438 701.181640625 c 1,21,22
 80 853 80 853 80.6357421875 1008.33886719 c 0,23,24
 81 1233 81 1233 692.37890625 1516.22558594 c 0,25,26
 787 1560 787 1560 818.528320312 1538.65722656 c 0,27,28
 840.7734375 1524.14746094 840.7734375 1524.14746094 823.017578125 1434.09570312 c 2,29,-1
 755.642578125 1092.39648438 l 1,30,-1
 714.045898438 1085.58984375 l 2,31,32
 637 1073 637 1073 470.2421875 1019.82910156 c 1,0,1
EndSplineSet
EndChar

StartChar: afii57397
Encoding: 1637 1637 61
Width: 1226
VWidth: 3735
GlyphClass: 2
Flags: W
LayerCount: 2
Fore
SplineSet
590.791992188 940.575195312 m 1,0,1
 382 684 382 684 382.098632812 587.369140625 c 0,2,3
 382 427 382 427 627.502929688 426.6640625 c 0,4,5
 862 427 862 427 861.958007812 579.209960938 c 0,6,7
 862 682 862 682 590.791992188 940.575195312 c 1,0,1
135.06640625 215.28515625 m 0,8,9
 67 328 67 328 67.4443359375 486.298828125 c 0,10,11
 67 742 67 742 382.0546875 1117.74121094 c 1,12,-1
 308.307617188 1173.05175781 l 1,13,-1
 506.115234375 1524.4375 l 1,14,-1
 565.776367188 1469.32617188 l 2,15,16
 1156 924 1156 924 1156.18945312 513.743164062 c 0,17,18
 1156 232 1156 232 943.764648438 84.822265625 c 0,19,20
 806 -11 806 -11 584.544921875 -10.736328125 c 0,21,22
 271 -11 271 -11 135.06640625 215.28515625 c 0,8,9
EndSplineSet
EndChar

StartChar: afii57398
Encoding: 1638 1638 62
Width: 1259
VWidth: 3396
GlyphClass: 2
Flags: W
LayerCount: 2
Fore
SplineSet
976.635742188 1411.57226562 m 6,0,1
 998.999023438 746.006835938 998.999023438 746.006835938 1039.31640625 511.03515625 c 4,2,3
 1073 314 1073 314 1150.12597656 216.798828125 c 5,4,-1
 939.994140625 -20 l 5,5,6
 798 93 798 93 761.71875 323.221679688 c 4,7,8
 700 718 700 718 691.049804688 1030.63378906 c 5,9,10
 526 1005 526 1005 374.943359375 1009.35449219 c 4,11,12
 154 1016 154 1016 105.047851562 1119.07128906 c 4,13,14
 69 1196 69 1196 68.7353515625 1403.54492188 c 4,15,16
 69 1512 69 1512 99.599609375 1513.53515625 c 4,17,18
 107 1514 107 1514 180.626953125 1487.01757812 c 4,19,20
 437.434570312 1391.2109375 437.434570312 1391.2109375 915.461914062 1462.53027344 c 6,21,-1
 974.626953125 1471.35742188 l 5,22,-1
 976.635742188 1411.57226562 l 6,0,1
EndSplineSet
EndChar

StartChar: afii57399
Encoding: 1639 1639 63
Width: 1321
VWidth: 3397
GlyphClass: 2
Flags: W
LayerCount: 2
Fore
SplineSet
1018.52636719 1528.65136719 m 2,0,-1
 1270.49902344 1294.17773438 l 1,1,2
 946 690 946 690 780.166992188 -1.7333984375 c 5,3,-1
 551.494140625 -1.7333984375 l 5,4,5
 390 711 390 711 51.4208984375 1290.52441406 c 1,6,-1
 273.46484375 1535.05175781 l 2,7,8
 310 1575 310 1575 342.797851562 1507.31835938 c 0,9,10
 517 1148 517 1148 662.291992188 560.884765625 c 5,11,12
 802 1188 802 1188 948.126953125 1492.38476562 c 0,13,14
 982 1563 982 1563 1018.52636719 1528.65136719 c 2,0,-1
EndSplineSet
EndChar

StartChar: afii57400
Encoding: 1640 1640 64
Width: 1321
VWidth: 3397
GlyphClass: 2
Flags: W
LayerCount: 2
Fore
SplineSet
1018.52636719 -8.3330078125 m 6,0,1
 981.776367188 -42.53125 981.776367188 -42.53125 948.126953125 27.93359375 c 4,2,3
 802 332 802 332 662.291992188 959.43359375 c 5,4,5
 517 373 517 373 342.797851562 13 c 4,6,7
 310.009765625 -54.9794921875 310.009765625 -54.9794921875 273.46484375 -14.7333984375 c 6,8,-1
 51.4208984375 229.793945312 l 5,9,10
 390 810 390 810 551.494140625 1522.05175781 c 5,11,-1
 780.166992188 1522.05175781 l 5,12,13
 946 830 946 830 1270.49902344 226.140625 c 5,14,-1
 1018.52636719 -8.3330078125 l 6,0,1
EndSplineSet
EndChar

StartChar: afii57401
Encoding: 1641 1641 65
Width: 1150
VWidth: 3397
GlyphClass: 2
Flags: W
LayerCount: 2
Fore
SplineSet
657.422851562 611.849609375 m 1,0,1
 316 564 316 564 197.798828125 669.0625 c 0,2,3
 87 768 87 768 88.4658203125 969.326171875 c 0,4,5
 90 1133 90 1133 157.751953125 1282 c 0,6,7
 243 1471 243 1471 402 1514.03417969 c 0,8,9
 453 1528 453 1528 508 1527.66503906 c 0,10,11
 666 1528 666 1528 781.26171875 1400.25683594 c 0,12,13
 914 1253 914 1253 918.31640625 988.03125 c 0,14,15
 928 387 928 387 1071.39355469 215.731445312 c 1,16,-1
 874.061523438 -20 l 1,17,18
 671 92 671 92 657.422851562 611.849609375 c 1,0,1
326.096679688 1067.72070312 m 0,19,20
 323 1055 323 1055 322.995117188 1045 c 0,21,22
 323 995 323 995 395.501953125 988.674804688 c 0,23,24
 436 985 436 985 479 985.309570312 c 0,25,26
 556 985 556 985 639.814453125 997.127929688 c 1,27,-1
 636.455078125 1019.97851562 l 2,28,29
 612 1184 612 1184 461.987304688 1182.47167969 c 0,30,31
 354 1181 354 1181 326.096679688 1067.72070312 c 0,19,20
EndSplineSet
EndChar

StartChar: afii57381
Encoding: 1642 1642 66
Width: 1311
VWidth: 3443
GlyphClass: 2
Flags: W
LayerCount: 2
Fore
SplineSet
120.9453125 1310.31152344 m 128,-1,1
 120.9453125 1402.57714844 120.9453125 1402.57714844 186.01171875 1467.64355469 c 128,-1,2
 251.078125 1532.70996094 251.078125 1532.70996094 343.34375 1532.17675781 c 128,-1,3
 435.610351562 1531.64355469 435.610351562 1531.64355469 500.676757812 1467.64355469 c 0,4,5
 565.743164062 1402.57714844 565.743164062 1402.57714844 565.208984375 1310.31152344 c 128,-1,6
 564.67578125 1218.04492188 564.67578125 1218.04492188 500.676757812 1152.97851562 c 0,7,8
 435.610351562 1087.91308594 435.610351562 1087.91308594 343.34375 1087.91308594 c 128,-1,9
 251.078125 1087.91308594 251.078125 1087.91308594 186.01171875 1152.97851562 c 128,-1,0
 120.9453125 1218.04492188 120.9453125 1218.04492188 120.9453125 1310.31152344 c 128,-1,1
746.701171875 375.357421875 m 0,10,11
 747 467 747 467 811.767578125 532.689453125 c 0,12,13
 878 598 878 598 969.099609375 597.22265625 c 0,14,15
 1062 596 1062 596 1126.43164062 532.689453125 c 0,16,17
 1191 468 1191 468 1190.96484375 375.357421875 c 0,18,19
 1191 283 1191 283 1126.43164062 218.025390625 c 128,-1,20
 1062 153 1062 153 969.099609375 152.958984375 c 0,21,22
 877 153 877 153 811.767578125 218.025390625 c 0,23,24
 747 283 747 283 746.701171875 375.357421875 c 0,10,11
826.73828125 1500.02832031 m 5,25,-1
 1077 1370.38183594 l 5,26,-1
 379.663085938 10.990234375 l 1,27,-1
 129 145 l 1,28,-1
 826.73828125 1500.02832031 l 5,25,-1
EndSplineSet
EndChar

StartChar: uni066B
Encoding: 1643 1643 67
Width: 908
VWidth: 3443
GlyphClass: 2
Flags: W
LayerCount: 2
Fore
SplineSet
548.930664062 820.301757812 m 5,0,-1
 783.224609375 722.064453125 l 5,1,-1
 237 -423 l 5,2,-1
 0.69140625 -321.692382812 l 5,3,-1
 548.930664062 820.301757812 l 5,0,-1
EndSplineSet
PairPos2: "'kern' Horizontal Kerning lookup 15-5" uni06F4 dx=-110 dy=0 dh=-110 dv=0 dx=0 dy=0 dh=0 dv=0
PairPos2: "'kern' Horizontal Kerning lookup 15-5" uni06F3 dx=-130 dy=0 dh=-130 dv=0 dx=0 dy=0 dh=0 dv=0
PairPos2: "'kern' Horizontal Kerning lookup 15-5" uni06F2 dx=-130 dy=0 dh=-130 dv=0 dx=0 dy=0 dh=0 dv=0
EndChar

StartChar: uni066C
Encoding: 1644 1644 68
Width: 529
VWidth: 3395
GlyphClass: 2
Flags: W
LayerCount: 2
Fore
SplineSet
228.336914062 1.775390625 m 1,0,1
 147 9 147 9 105.6015625 68.9736328125 c 0,2,3
 65 129 65 129 80.5634765625 208.342773438 c 0,4,5
 97 292 97 292 156.458984375 332.873046875 c 0,6,7
 204 365 204 365 261 364.5 c 0,8,9
 319 364 319 364 362.375 334.73046875 c 0,10,11
 457 274 457 274 443.956054688 115.380859375 c 0,12,13
 421 -157 421 -157 132.708984375 -327.955078125 c 0,14,15
 67 -367 67 -367 35.1396484375 -316.015625 c 1,16,17
 17 -279 17 -279 58.9169921875 -247.848632812 c 0,18,19
 133 -193 133 -193 179.260742188 -120.840820312 c 0,20,21
 225 -49 225 -49 228.336914062 1.775390625 c 1,0,1
EndSplineSet
PairPos2: "'kern' Horizontal Kerning lookup 15-5" uni06F4 dx=-130 dy=0 dh=-130 dv=0 dx=0 dy=0 dh=0 dv=0
PairPos2: "'kern' Horizontal Kerning lookup 15-5" uni06F3 dx=-150 dy=0 dh=-150 dv=0 dx=0 dy=0 dh=0 dv=0
PairPos2: "'kern' Horizontal Kerning lookup 15-5" uni06F2 dx=-130 dy=0 dh=-130 dv=0 dx=0 dy=0 dh=0 dv=0
EndChar

StartChar: afii63167
Encoding: 1645 1645 69
Width: 1734
VWidth: 3194
GlyphClass: 2
Flags: W
LayerCount: 2
Fore
SplineSet
123.602539062 1218.84375 m 1,0,-1
 691.711914062 1218.84375 l 1,1,-1
 868.931640625 1758.40332031 l 1,2,-1
 1046.1484375 1218.84375 l 1,3,-1
 1614.26171875 1218.84375 l 1,4,-1
 1155.34570312 883.364257812 l 1,5,-1
 1331.00683594 343.712890625 l 1,6,-1
 868.931640625 677.615234375 l 1,7,-1
 406.853515625 343.71484375 l 1,8,-1
 582.512695312 883.364257812 l 1,9,-1
 123.602539062 1218.84375 l 1,0,-1
EndSplineSet
EndChar

StartChar: uni066E
Encoding: 1646 1646 70
Width: 1815
VWidth: 3753
GlyphClass: 2
Flags: W
AnchorPoint: "Anchor-10" 798.573 1300.55 basechar 0
AnchorPoint: "Anchor-7" 656.479 -183.49 basechar 0
LayerCount: 2
Fore
SplineSet
853.188476562 491.239257812 m 24,0,1
 1376 492 1376 492 1467.34472656 559.986328125 c 0,2,3
 1489.58855178 576.471702756 1489.58855178 576.471702756 1481.30957031 603.081054688 c 0,4,5
 1461 665 1461 665 1392.90234375 808.35546875 c 1,6,-1
 1575.49023438 1033.19140625 l 2,7,8
 1599 1062 1599 1062 1614 1037 c 0,9,10
 1744 829 1744 829 1744.55371094 607.0625 c 0,11,12
 1745 429 1745 429 1692.921875 312.6640625 c 0,13,14
 1552 0 1552 0 833.678710938 0 c 0,15,16
 500 0 500 0 312.755859375 102.430664062 c 0,17,18
 79 230 79 230 78.4521484375 537.642578125 c 0,19,20
 78 771 78 771 191.454101562 994.09375 c 1,21,-1
 345.512695312 938.196289062 l 1,22,23
 316 830 316 830 315.83335666 756.286267699 c 0,24,25
 316 687 316 687 341.935546875 647.479492188 c 0,26,27
 444 491 444 491 853.188476562 491.239257812 c 24,0,1
EndSplineSet
Substitution2: "'init' Initial Forms in Arabic lookup 13 subtable" uni066E.init
Substitution2: "'medi' Medial Forms in Arabic lookup 11 subtable" uni066E.medi
Substitution2: "'fina' Terminal Forms in Arabic lookup 9 subtable" uni066E.fina
EndChar

StartChar: uni066F
Encoding: 1647 1647 71
Width: 1438
VWidth: 3781
GlyphClass: 2
Flags: W
AnchorPoint: "Anchor-10" 557.965 1195.3 basechar 0
AnchorPoint: "Anchor-7" 578.603 -667.213 basechar 0
LayerCount: 2
Fore
SplineSet
1166.11132812 190.608398438 m 1,0,1
 1064 176 1064 176 987.07829428 176.310633963 c 0,2,3
 731 176 731 176 701.485351562 361.08984375 c 0,4,5
 696 395 696 395 695.980792895 435.959178084 c 0,6,7
 696 495 696 495 707.551757812 567.124023438 c 0,8,9
 768 950 768 950 1027.61914062 950.026367188 c 0,10,11
 1152 950 1152 950 1227.37402344 854.563476562 c 0,12,13
 1368 677 1368 677 1368.02275868 334.829887671 c 0,14,15
 1368 38 1368 38 1304.52539062 -116.265625 c 0,16,17
 1160 -466 1160 -466 709.040039062 -466.14453125 c 4,18,19
 396 -466 396 -466 235.038085938 -304.607421875 c 0,20,21
 76.9925846331 -141.112075698 76.9925846331 -141.112075698 77.388671875 131.946289062 c 0,22,23
 77 410 77 410 203.654296875 650.377929688 c 1,24,-1
 380.717773438 595.42578125 l 5,25,26
 329 422 329 422 328.958007812 309.140625 c 0,27,28
 329 190 329 190 381 125.540039062 c 0,29,30
 479 5 479 5 732.66341625 5.3951845207 c 0,31,32
 1088 5 1088 5 1166.11132812 190.608398438 c 1,0,1
1164.29785156 520.643554688 m 1,33,34
 1103.9783231 657.409251334 1103.9783231 657.409251334 1005.57898653 657.409251334 c 0,35,36
 930.909104468 657.409251334 930.909104468 657.409251334 905.336914062 606.038085938 c 0,37,38
 892.020606166 578.954529877 892.020606166 578.954529877 892.020606166 560.026895108 c 0,39,40
 892.020606166 543.539214511 892.020606166 543.539214511 902.125 533.240234375 c 0,41,42
 924.026908394 510.819290072 924.026908394 510.819290072 1022.49502138 510.819290072 c 0,43,44
 1047.0442483 510.819290072 1047.0442483 510.819290072 1076.35253906 512.212890625 c 0,45,46
 1130.01855469 514.829101562 1130.01855469 514.829101562 1164.29785156 520.643554688 c 1,33,34
EndSplineSet
Substitution2: "'init' Initial Forms in Arabic lookup 13 subtable" uni066F.init
Substitution2: "'medi' Medial Forms in Arabic lookup 11 subtable" uni066F.medi
Substitution2: "'fina' Terminal Forms in Arabic lookup 9 subtable" uni066F.fina
EndChar

StartChar: uni0670
Encoding: 1648 1648 72
Width: 0
VWidth: 2983
GlyphClass: 4
Flags: W
AnchorPoint: "Anchor-10" 756.062 1779.01 mark 0
AnchorPoint: "Anchor-9" 756.062 1779.01 mark 0
AnchorPoint: "Anchor-1" 744.304 2296.37 basemark 0
AnchorPoint: "Anchor-1" 756.062 1779.01 mark 0
LayerCount: 2
Fore
SplineSet
713.022460938 1797.3671875 m 1,0,-1
 650.764648438 2184.63183594 l 5,1,-1
 835.50390625 2294.63867188 l 5,2,-1
 835.50390625 1838.10839844 l 1,3,-1
 713.022460938 1797.3671875 l 1,0,-1
EndSplineSet
EndChar

StartChar: uni0674
Encoding: 1652 1652 73
Width: 802
VWidth: 2763
GlyphClass: 2
Flags: W
LayerCount: 2
Fore
SplineSet
584.380859375 2195.33984375 m 1,0,1
 378 2274 378 2274 327.571289062 2172.16210938 c 0,2,3
 324 2165 324 2165 327.932617188 2157.57421875 c 0,4,5
 363 2078 363 2078 543.197265625 2119.43261719 c 0,6,7
 608 2134 608 2134 622 2126 c 152,-1,8
 636 2118 636 2118 636.946261999 2105.95882201 c 0,9,10
 637.934322058 2098.49606168 637.934322058 2098.49606168 637.592773438 2061.08398438 c 2,11,-1
 636.5390625 1945.6640625 l 1,12,13
 394.206801151 1868.06622033 394.206801151 1868.06622033 212.834960938 1780.62695312 c 2,14,-1
 176.665039062 1763.18945312 l 1,15,-1
 204.932617188 1965.98828125 l 5,16,17
 233 1982 233 1982 261.473632812 1997.43847656 c 5,18,19
 136 2068 136 2068 189.20703125 2246.41894531 c 0,20,21
 203 2292 203 2292 256.150390625 2346.20703125 c 0,22,23
 323 2416 323 2416 435.5 2416 c 128,-1,24
 548 2416 548 2416 640.684570312 2325.21582031 c 1,25,-1
 584.380859375 2195.33984375 l 1,0,1
EndSplineSet
EndChar

StartChar: uni06A1
Encoding: 1697 1697 77
Width: 1730
VWidth: 3781
GlyphClass: 2
Flags: W
AnchorPoint: "Anchor-10" 740.373 1477.19 basechar 0
AnchorPoint: "Anchor-7" 633.96 -168.962 basechar 0
LayerCount: 2
Fore
SplineSet
1448.05957031 927.244140625 m 1,0,1
 1387.11425781 1065.42871094 1387.11425781 1065.42871094 1287.29492188 1063.99511719 c 0,2,3
 1214.31542969 1063.29589844 1214.31542969 1063.29589844 1189.09863281 1012.63867188 c 0,4,5
 1164.18261719 961.962890625 1164.18261719 961.962890625 1185.88671875 939.840820312 c 0,6,7
 1213.24902344 911.830078125 1213.24902344 911.830078125 1360.11425781 918.813476562 c 0,8,9
 1413.78125 921.4296875 1413.78125 921.4296875 1448.05957031 927.244140625 c 1,0,1
1659.05273438 622.451171875 m 16,10,11
 1646 314 1646 314 1548 190 c 0,12,13
 1396 0 1396 0 968.259765625 0 c 2,14,-1
 846.345703125 0 l 2,15,16
 502 0 502 0 312.881835938 102.362304688 c 0,17,18
 78 231 78 231 79.4775390625 542.9296875 c 0,19,20
 80 811 80 811 191.778320312 994.575195312 c 1,21,-1
 345.325195312 937.671875 l 1,22,23
 288 726 288 726 346.754882812 640.196289062 c 0,24,25
 426 525 426 525 664.052734375 499.48046875 c 0,26,27
 753 490 753 490 960.560546875 489.890625 c 4,28,29
 1243 490 1243 490 1350.83886719 514.84765625 c 4,30,31
 1435.61147933 533.174312445 1435.61147933 533.174312445 1449.87304688 607.208984375 c 1,32,33
 1347 592 1347 592 1267.50097656 592.91796875 c 0,34,35
 1012 595 1012 595 985.247070312 767.690429688 c 0,36,37
 972 851 972 851 991.313476562 973.724609375 c 0,38,39
 1049 1356 1049 1356 1311.38183594 1356.62695312 c 0,40,41
 1435 1357 1435 1357 1510.92285156 1261.34375 c 0,42,43
 1677 1051 1677 1051 1659.05273438 622.451171875 c 16,10,11
EndSplineSet
Substitution2: "'init' Initial Forms in Arabic lookup 13 subtable" uni06A1.init
Substitution2: "'medi' Medial Forms in Arabic lookup 11 subtable" uni06A1.medi
Substitution2: "'fina' Terminal Forms in Arabic lookup 9 subtable" uni06A1.fina
EndChar

StartChar: uni06A9
Encoding: 1705 1705 78
Width: 1940
VWidth: 3732
GlyphClass: 2
Flags: W
AnchorPoint: "Anchor-10" 988.15 1561.04 basechar 0
AnchorPoint: "Anchor-7" 827.197 -209.588 basechar 0
LayerCount: 2
Fore
SplineSet
823.188476562 491.239257812 m 28,0,1
 1305 491 1305 491 1345.85742188 589.857421875 c 0,2,3
 1366 640 1366 640 1127 838.551757812 c 0,4,5
 1040 911 1040 911 920.705078125 1005.05761719 c 1,6,-1
 993.993164062 1348.203125 l 1,7,-1
 1830 1617.61132812 l 2,8,9
 1877.08041615 1633.02632974 1877.08041615 1633.02632974 1871.2109375 1590 c 2,10,-1
 1828.28613281 1275.33886719 l 1,11,-1
 1328.13085938 1115.45898438 l 1,12,13
 1673 831 1673 831 1669.32519531 559 c 0,14,15
 1665 243 1665 243 1351 89.7060546875 c 0,16,17
 1168 0 1168 0 803.678710938 0 c 0,18,19
 500 0 500 0 312.755859375 102.430664062 c 0,20,21
 79 230 79 230 78.4521484375 537.642578125 c 0,22,23
 78 771 78 771 191.454101562 994.09375 c 1,24,-1
 345.512695312 938.196289062 l 1,25,26
 316 830 316 830 315.833007812 756.286132812 c 0,27,28
 316 687 316 687 341.935546875 647.479492188 c 0,29,30
 445 491 445 491 823.188476562 491.239257812 c 28,0,1
EndSplineSet
Substitution2: "'init' Initial Forms in Arabic lookup 13 subtable" uniFB90
Substitution2: "'medi' Medial Forms in Arabic lookup 11 subtable" uniFB91
Substitution2: "'fina' Terminal Forms in Arabic lookup 9 subtable" uniFB8F
EndChar

StartChar: afii57509
Encoding: 1711 1711 79
Width: 1940
VWidth: 3742
GlyphClass: 2
Flags: W
AnchorPoint: "Anchor-10" 1052.82 1622.38 basechar 0
AnchorPoint: "Anchor-7" 750.53 -220.255 basechar 0
LayerCount: 2
Fore
SplineSet
823.188476562 491.239257812 m 16
 1324 491 1324 491 1330 579.381835938 c 0
 1332 608 1332 608 1160 744 c 0
 1067 817 1067 817 921.831054688 900.287109375 c 1
 994.993164062 1238.203125 l 1
 1831 1507.61132812 l 2
 1878.08041615 1523.02632974 1878.08041615 1523.02632974 1872.2109375 1480 c 2
 1829.28613281 1165.33886719 l 1
 1329 1006 l 1
 1661 763 1661 763 1661.49804688 532 c 0
 1663 224 1663 224 1331 78 c 0
 1154 0 1154 0 803.678710938 0 c 0
 500 0 500 0 312.755859375 102.430664062 c 0
 79 230 79 230 78.4521484375 537.642578125 c 0
 78 771 78 771 191.454101562 994.09375 c 1
 345.512695312 938.196289062 l 1
 316 830 316 830 315.833007812 756.286132812 c 0
 316 687 316 687 341.935546875 647.479492188 c 0
 445 491 445 491 823.188476562 491.239257812 c 16
EndSplineSet
Refer: 270 -1 N 1.1342 0 0 1.1342 1014.95 -601.254 2
Substitution2: "'init' Initial Forms in Arabic lookup 13 subtable" uniFB94
Substitution2: "'medi' Medial Forms in Arabic lookup 11 subtable" uniFB95
Substitution2: "'fina' Terminal Forms in Arabic lookup 9 subtable" uniFB93
EndChar

StartChar: afii57514
Encoding: 1722 1722 80
Width: 1427
VWidth: 3753
GlyphClass: 2
Flags: W
LayerCount: 2
Fore
SplineSet
931.727539062 540.396484375 m 1,0,-1
 1143.57910156 835.194335938 l 2,1,2
 1165 865 1165 865 1186.89746094 837.328125 c 0,3,4
 1356 619 1356 619 1356.08300781 255.322265625 c 0,5,6
 1356 -134 1356 -134 1109.25488281 -316.529296875 c 0,7,8
 957 -429 957 -429 698.983398438 -428.796875 c 4,9,10
 396 -428 396 -428 234.981445312 -267.259765625 c 0,11,12
 76.9927664474 -103.823201282 76.9927664474 -103.823201282 77.33203125 169.293945312 c 0,13,14
 77 428 77 428 203.59765625 687.725585938 c 1,15,-1
 380.661132812 632.7734375 l 5,16,17
 329 460 329 460 329 344 c 128,-1,18
 329 228 329 228 380.943359375 162.887695312 c 0,19,20
 479 43 479 43 704.557617188 42.705078125 c 0,21,22
 992 43 992 43 1087.68945312 181.228515625 c 0,23,24
 1118 225 1118 225 1107.05957031 254.62109375 c 0,25,26
 1103 265 1103 265 1084.39941406 300.057617188 c 0,27,28
 1047 371 1047 371 931.727539062 540.396484375 c 1,0,-1
EndSplineSet
Substitution2: "'init' Initial Forms in Arabic lookup 13 subtable" uni06BA.init
Substitution2: "'medi' Medial Forms in Arabic lookup 11 subtable" uni06BA.medi
Substitution2: "'fina' Terminal Forms in Arabic lookup 9 subtable" uniFB9F
EndChar

StartChar: uni06F4
Encoding: 1780 1780 87
Width: 1308
VWidth: 3386
GlyphClass: 2
Flags: W
LayerCount: 2
Fore
SplineSet
585 785 m 5,0,1
 606 577 606 577 607.756835938 336.870117188 c 4,2,3
 609 197 609 197 587.899414062 98.638671875 c 4,4,5
 570.076171875 16.349609375 570.076171875 16.349609375 357.724609375 -0.0732421875 c 6,6,-1
 334.364257812 -1.8798828125 l 5,7,8
 321 672 321 672 90.7626953125 1266.70019531 c 5,9,-1
 360.326171875 1518.96289062 l 6,10,11
 414 1569 414 1569 436.22265625 1501.68066406 c 4,12,13
 479 1373 479 1373 493.391601562 1321 c 22,14,15
 529 1207 529 1207 583.765625 1171.66015625 c 5,16,17
 582 1197 582 1197 582.264648438 1220 c 4,18,19
 584 1374 584 1374 696 1466.54492188 c 4,20,21
 781 1537 781 1537 914.357421875 1536.32617188 c 4,22,23
 1068.07128906 1536 1068.07128906 1536 1178.2734375 1401.74121094 c 6,24,-1
 1190.91601562 1386.33886719 l 5,25,-1
 1128.99414062 1230.79101562 l 5,26,-1
 1100.78027344 1241.79003906 l 6,27,28
 886 1326 886 1326 795.1953125 1193.59179688 c 4,29,30
 777 1167 777 1167 771.411132812 1129.59277344 c 4,31,32
 764 1077 764 1077 828.26171875 1048.30664062 c 4,33,34
 977 981 977 981 1192.72949219 1073.31640625 c 5,35,-1
 1227.19238281 838.39453125 l 5,36,37
 1106 717 1106 717 906.127929688 709.27734375 c 4,38,39
 733 703 733 703 585 785 c 5,0,1
EndSplineSet
PairPos2: "'kern' Horizontal Kerning lookup 15-5" uni06F8 dx=-70 dy=0 dh=-70 dv=0 dx=0 dy=0 dh=0 dv=0
PairPos2: "'kern' Horizontal Kerning lookup 15-5" uni06F5 dx=-70 dy=0 dh=-70 dv=0 dx=0 dy=0 dh=0 dv=0
EndChar

StartChar: uni06F5
Encoding: 1781 1781 88
Width: 1256
VWidth: 3183
GlyphClass: 2
Flags: W
LayerCount: 2
Fore
SplineSet
699.743164062 606.58203125 m 1,0,1
 710.080078125 565 l 6,2,3
 754 390 754 390 853.372070312 390.139648438 c 0,4,5
 944 390 944 390 944.3671875 465.838867188 c 0,6,7
 944 625 944 625 589.520507812 975.022460938 c 1,8,9
 317 582 317 582 317.521484375 468.459960938 c 0,10,11
 318 390 318 390 414.84765625 390.05078125 c 0,12,13
 506.838867188 390 506.838867188 390 549.408203125 563.909179688 c 6,14,-1
 560.569335938 609.505859375 l 1,15,-1
 699.743164062 606.58203125 l 1,0,1
386.869140625 4.9697265625 m 0,16,17
 71 5 71 5 70.767578125 371.564453125 c 0,18,19
 71 704 71 704 390.912109375 1198.80664062 c 1,20,-1
 348.806640625 1246.79980469 l 1,21,-1
 531.8203125 1516 l 2,22,23
 550.180664062 1543.26757812 550.180664062 1543.26757812 580.88671875 1512 c 2,24,-1
 601.77734375 1490.72753906 l 2,25,26
 1186 896 1186 896 1185.65820312 388.813476562 c 0,27,28
 1186 4 1186 4 893.44140625 4.6298828125 c 0,29,30
 737 5 737 5 637.561523438 139.28125 c 1,31,32
 548 5 548 5 386.869140625 4.9697265625 c 0,16,17
EndSplineSet
PairPos2: "'kern' Horizontal Kerning lookup 15-5" uni06F0 dx=-30 dy=0 dh=-30 dv=0 dx=0 dy=0 dh=0 dv=0
PairPos2: "'kern' Horizontal Kerning lookup 15-5" uni06F7 dx=-70 dy=0 dh=-70 dv=0 dx=0 dy=0 dh=0 dv=0
PairPos2: "'kern' Horizontal Kerning lookup 15-5" uni06F6 dx=-70 dy=0 dh=-70 dv=0 dx=0 dy=0 dh=0 dv=0
PairPos2: "'kern' Horizontal Kerning lookup 15-5" uni06F4 dx=-70 dy=0 dh=-70 dv=0 dx=0 dy=0 dh=0 dv=0
PairPos2: "'kern' Horizontal Kerning lookup 15-5" uni06F3 dx=-100 dy=0 dh=-100 dv=0 dx=0 dy=0 dh=0 dv=0
PairPos2: "'kern' Horizontal Kerning lookup 15-5" uni06F2 dx=-100 dy=0 dh=-100 dv=0 dx=0 dy=0 dh=0 dv=0
EndChar

StartChar: uni06F6
Encoding: 1782 1782 89
Width: 1180
VWidth: 3397
GlyphClass: 2
Flags: W
LayerCount: 2
Fore
SplineSet
380.454101562 619.698242188 m 1,0,1
 91 737 91 737 90.23046875 1033.29589844 c 0,2,3
 90 1123 90 1123 129.799804688 1216.7890625 c 0,4,5
 261 1527 261 1527 566.262695312 1527.04003906 c 0,6,7
 745 1527 745 1527 908.526367188 1382.06933594 c 1,8,-1
 820.377929688 1146.45117188 l 1,9,10
 631 1228 631 1228 498.799804688 1175.56054688 c 0,11,12
 402 1137 402 1137 369.796875 1067.53320312 c 0,13,14
 358 1042 358 1042 380.509765625 1008.45117188 c 0,15,16
 444 916 444 916 694.42578125 912.250976562 c 1,17,18
 862 1010 862 1010 933.092773438 1044.17382812 c 0,19,20
 1035 1093 1035 1093 1053.7265625 1060.39257812 c 0,21,22
 1065.84375 1039.27148438 1065.84375 1039.27148438 1058.48828125 961.953125 c 2,23,-1
 1033.55664062 699.887695312 l 1,24,25
 712 558 712 558 312.75 -27.48046875 c 5,26,-1
 145.465820312 79.732421875 l 2,27,28
 102.182617188 107.47265625 102.182617188 107.47265625 119.866210938 153.33203125 c 0,29,30
 213 396 213 396 380.454101562 619.698242188 c 1,0,1
EndSplineSet
EndChar

StartChar: uniFB8F
Encoding: 64399 64399 104
Width: 2131
VWidth: 3732
GlyphClass: 2
Flags: W
AnchorPoint: "Anchor-7" 827.197 -209.588 basechar 0
AnchorPoint: "Anchor-10" 1010.15 1561.04 basechar 0
LayerCount: 2
Fore
SplineSet
823.188476562 491.239257812 m 28,0,1
 1307 491 1307 491 1347.85742188 589.857421875 c 0,2,3
 1368 640 1368 640 1129 838.551757812 c 0,4,5
 1042 911 1042 911 922.705078125 1005.05761719 c 1,6,-1
 995.993164062 1348.203125 l 1,7,-1
 1832 1617.61132812 l 2,8,9
 1879.08041615 1633.02632974 1879.08041615 1633.02632974 1873.2109375 1590 c 2,10,-1
 1830.28613281 1275.33886719 l 1,11,-1
 1330.13085938 1115.45898438 l 1,12,13
 1409.16190563 1045.25296083 1409.16190563 1045.25296083 1769 705.248046875 c 0,14,15
 1992.0735413 494.930664062 1992.0735413 494.930664062 2120.55859375 494.930664062 c 2,16,-1
 2136 494.930664062 l 2,17,18
 2161.34082031 495.000945244 2161.34082031 495.000945244 2161.34082031 313 c 2,19,-1
 2161.34082031 171 l 2,20,21
 2161 0 2161 0 2136 0 c 2,22,-1
 2114.18359375 0 l 2,23,24
 1828 0 1828 0 1576 315 c 1,25,26
 1404 0 1404 0 813.678710938 0 c 4,27,28
 500 0 500 0 312.755859375 102.430664062 c 0,29,30
 79 230 79 230 78.4521484375 537.642578125 c 0,31,32
 78 771 78 771 191.454101562 994.09375 c 1,33,-1
 345.512695312 938.196289062 l 1,34,35
 316 830 316 830 315.833007812 756.286132812 c 0,36,37
 316 687 316 687 341.935546875 647.479492188 c 0,38,39
 446 491 446 491 823.188476562 491.239257812 c 28,0,1
EndSplineSet
EndChar

StartChar: uniFB93
Encoding: 64403 64403 108
Width: 2046
VWidth: 3742
GlyphClass: 2
Flags: W
AnchorPoint: "Anchor-7" 762.53 -214.255 basechar 0
AnchorPoint: "Anchor-10" 1041.82 1616.38 basechar 0
LayerCount: 2
Fore
SplineSet
1329 1006 m 1
 1561 807 1561 807 1583.92871094 787.676757812 c 0
 1933.33118055 495.001718368 1933.33118055 495.001718368 2043.68652344 494.930664062 c 2
 2051 494.930664062 l 2
 2076.00012984 494.930664062 2076.00012984 494.930664062 2076.34082031 313 c 2
 2076.34082031 181 l 2
 2076.34082031 0 2076.34082031 0 2051 0 c 2
 2039.2109375 0 l 2
 1744 0 1744 0 1521.20117188 279.59765625 c 1
 1347 0 1347 0 813.678710938 0 c 0
 500 0 500 0 312.755859375 102.430664062 c 0
 79 230 79 230 78.4521484375 537.642578125 c 0
 78 771 78 771 191.454101562 994.09375 c 1
 345.512695312 938.196289062 l 1
 316 830 316 830 315.833007812 756.286132812 c 0
 316 687 316 687 341.935546875 647.479492188 c 0
 445 491 445 491 843.188476562 491.239257812 c 16
 1324 491 1324 491 1330 579.381835938 c 0
 1332 610 1332 610 1160 744 c 0
 1067 817 1067 817 921.831054688 900.287109375 c 1
 994.993164062 1238.203125 l 1
 1831 1507.61132812 l 2
 1877.96585191 1522.74635481 1877.96585191 1522.74635481 1872.2109375 1480 c 2
 1829.28613281 1165.33886719 l 1
 1329 1006 l 1
EndSplineSet
Refer: 270 -1 S 1.1342 0 0 1.1342 1014.95 -601.254 2
EndChar

StartChar: uniFB94
Encoding: 64404 64404 109
Width: 1030
VWidth: 3742
GlyphClass: 2
Flags: W
AnchorPoint: "Anchor-10" 289.998 2022.17 basechar 0
AnchorPoint: "Anchor-7" 334.15 -223.806 basechar 0
LayerCount: 2
Fore
SplineSet
79.8857421875 0 m 6
 -5.6591796875 0 l 2
 -60 0 -60 0 -60 171 c 2
 -60 303 l 2
 -60 494.930664062 -60 494.930664062 -5.6591796875 494.930664062 c 2
 83.630859375 494.930664062 l 6
 361 495 361 495 415.59765625 545.063476562 c 0
 454 580 454 580 264.96875 721.319335938 c 24
 71 866 71 866 11.837890625 896.287109375 c 1
 83.9931640625 1236.203125 l 1
 920 1505.61132812 l 2
 967.080416148 1521.02632974 967.080416148 1521.02632974 961.2109375 1478 c 2
 918.286132812 1163.33886719 l 1
 417 1004 l 1
 767 738 767 738 757.712890625 478.483398438 c 0
 740 0 740 0 79.8857421875 0 c 6
EndSplineSet
Refer: 270 -1 N 1.1342 0 0 1.1342 105.231 -601.254 2
EndChar

StartChar: uniFB95
Encoding: 64405 64405 110
Width: 1135
VWidth: 3742
GlyphClass: 2
Flags: W
AnchorPoint: "Anchor-10" 226.55 1987.67 basechar 0
AnchorPoint: "Anchor-7" 367.424 -197.155 basechar 0
LayerCount: 2
Fore
SplineSet
1140.00683594 494.930664062 m 6
 1165.34082031 494.930664062 1165.34082031 494.930664062 1165.34082031 303 c 6
 1165.34082031 171 l 6
 1165 0 1165 0 1140 0 c 6
 1128.28320312 0 l 6
 918 0 918 0 689.172851562 265.46484375 c 5
 554 0 554 0 111.219726562 0 c 2
 -5.6591796875 0 l 2
 -61 0 -61 0 -61 181 c 2
 -61 313 l 2
 -61 494.930664062 -61 494.930664062 -5.6591796875 494.930664062 c 2
 113.630859375 494.930664062 l 2
 361 495 361 495 415.59765625 545.063476562 c 4
 453 580 453 580 255.96875 728.319335938 c 4
 86 856 86 856 11.837890625 898.287109375 c 5
 85 1236.203125 l 5
 921.006835938 1505.61132812 l 2
 968.087572285 1521.02867696 968.087572285 1521.02867696 962.217773438 1478 c 6
 919.29296875 1163.33886719 l 5
 418.006835938 1004 l 5
 608 843 608 843 678.935546875 785.676757812 c 4
 1021.64033208 495.001505242 1021.64033208 495.001505242 1132.69335938 494.930664062 c 6
 1140.00683594 494.930664062 l 6
EndSplineSet
Refer: 270 -1 N 1.1342 0 0 1.1342 105.231 -601.254 2
EndChar

StartChar: uniFB9F
Encoding: 64415 64415 112
Width: 1449
VWidth: 3752
GlyphClass: 2
Flags: W
AnchorPoint: "Anchor-10" 591.322 1035.5 basechar 0
AnchorPoint: "Anchor-7" 466.537 -978.647 basechar 0
LayerCount: 2
Fore
SplineSet
931.727539062 401.73046875 m 1,0,-1
 1146.07128906 699.728515625 l 2,1,2
 1164.84121506 725.779619638 1164.84121506 725.779619638 1189.98144531 694.395507812 c 2,3,-1
 1254.37597656 614.0078125 l 2,4,5
 1350.05571215 494.930664062 1350.05571215 494.930664062 1411.49414062 494.930664062 c 2,6,-1
 1454 494.930664062 l 2,7,8
 1479.34082031 495.000945244 1479.34082031 495.000945244 1479.34082031 313 c 2,9,-1
 1479.34082031 181 l 2,10,11
 1479 0 1479 0 1454 0 c 2,12,-1
 1422.35839844 0 l 2,13,14
 1385 0 1385 0 1337.47265625 34.34375 c 1,15,16
 1311 -305 1311 -305 1109.25488281 -455.1953125 c 0,17,18
 959 -567 959 -567 708.983398438 -567.462890625 c 0,19,20
 396 -567 396 -567 234.981445312 -405.92578125 c 4,21,22
 76.9931892879 -242.489654328 76.9931892879 -242.489654328 77.33203125 30.6279296875 c 0,23,24
 77 289 77 289 203.59765625 549.059570312 c 1,25,-1
 380.661132812 494.107421875 l 1,26,27
 329 321 329 321 328.901367188 207.822265625 c 0,28,29
 329 89 329 89 380.943359375 24.2216796875 c 0,30,31
 479 -96 479 -96 714.557617188 -95.9609375 c 0,32,33
 991 -96 991 -96 1087.68945312 42.5625 c 0,34,35
 1118 86 1118 86 1107.05957031 115.955078125 c 0,36,37
 1103 127 1103 127 1084.39941406 161.391601562 c 0,38,39
 1047 232 1047 232 931.727539062 401.73046875 c 1,0,-1
EndSplineSet
EndChar

StartChar: uniFBE8
Encoding: 64488 64488 115
Width: 648
VWidth: 3752
GlyphClass: 2
Flags: W
AnchorPoint: "Anchor-10" 303.261 1302.53 basechar 0
AnchorPoint: "Anchor-7" 350.876 -228.542 basechar 0
LayerCount: 2
Fore
SplineSet
-4.6591796875 0 m 2,0,1
 -60 0 -60 0 -60 171 c 2,2,-1
 -60 303 l 2,3,4
 -60 494.930664062 -60 494.930664062 -4.6591796875 494.930664062 c 2,5,-1
 147.458007812 494.930664062 l 6,6,7
 262 495 262 495 307.95703125 540.958984375 c 0,8,9
 325 558 325 558 317 598 c 0,10,11
 306.849419958 646.722784202 306.849419958 646.722784202 286 693 c 2,12,-1
 232.896484375 810.868164062 l 1,13,-1
 411.8203125 1033.32714844 l 2,14,15
 439 1067 439 1067 461.463867188 1032.26074219 c 0,16,17
 587 838 587 838 587.323242188 594.215820312 c 0,18,19
 587 322 587 322 449.663085938 144.848632812 c 0,20,21
 337 0 337 0 116.955078125 0 c 2,22,-1
 -4.6591796875 0 l 2,0,1
EndSplineSet
EndChar

StartChar: uniFBE9
Encoding: 64489 64489 116
Width: 728
VWidth: 3731
GlyphClass: 2
Flags: W
AnchorPoint: "Anchor-10" 375.951 1190.37 basechar 0
AnchorPoint: "Anchor-7" 350.317 -187.507 basechar 0
LayerCount: 2
Fore
SplineSet
-4.6591796875 0 m 2,0,1
 -60 0 -60 0 -60 171 c 2,2,-1
 -60 303 l 2,3,4
 -60 494.930664062 -60 494.930664062 -4.6591796875 494.930664062 c 2,5,-1
 107.84765625 494.930664062 l 6,6,7
 303.337261282 495.000119826 303.337261282 495.000119826 326.54296875 655.153320312 c 2,8,-1
 346.51171875 792.966796875 l 1,9,-1
 508.443359375 793.048828125 l 1,10,-1
 529.337890625 658.008789062 l 2,11,12
 555.010915402 494.930664062 555.010915402 494.930664062 714.548828125 494.930664062 c 2,13,-1
 733 494.930664062 l 2,14,15
 758.340820312 495.000945244 758.340820312 495.000945244 758.340820312 303 c 2,16,-1
 758.340820312 171 l 2,17,18
 758 0 758 0 733 0 c 2,19,-1
 712.407226562 0 l 2,20,21
 513 0 513 0 414.748046875 172.262695312 c 1,22,23
 294 0 294 0 85.16796875 0 c 2,24,-1
 -4.6591796875 0 l 2,0,1
EndSplineSet
EndChar

StartChar: uniFE73
Encoding: 65139 65139 124
Width: 895
VWidth: 3443
GlyphClass: 2
Flags: W
AnchorPoint: "Anchor-10" 331.315 2044.75 basechar 0
AnchorPoint: "Anchor-7" 331.315 -141.598 basechar 0
LayerCount: 2
Fore
SplineSet
482.139648438 584.939453125 m 2,0,1
 482.139648438 490.826171875 482.139648438 490.826171875 561.486328125 411.481445312 c 128,-1,2
 640.83203125 332.135742188 640.83203125 332.135742188 808.9453125 332.135742188 c 2,3,-1
 931.182617188 332.135742188 l 1,4,-1
 931.182617188 30.4833984375 l 1,5,-1
 716.446289062 30.4833984375 l 2,6,7
 479.249023438 30.4833984375 479.249023438 30.4833984375 329.866210938 179.865234375 c 128,-1,8
 180.489257812 329.245117188 180.489257812 329.245117188 180.489257812 564.759765625 c 2,9,-1
 180.489257812 633.174804688 l 1,10,-1
 482.139648438 633.174804688 l 1,11,-1
 482.139648438 584.939453125 l 2,0,1
EndSplineSet
EndChar

StartChar: uniFE8E
Encoding: 65166 65166 150
Width: 572
VWidth: 3713
GlyphClass: 2
Flags: W
AnchorPoint: "Anchor-10" 250.495 1634.18 basechar 0
AnchorPoint: "Anchor-7" 323.405 -198.464 basechar 0
LayerCount: 2
Fore
SplineSet
577 0 m 2,0,-1
 502.556640625 0 l 2,1,2
 223 0 223 0 150.899414062 238.931640625 c 0,3,4
 114 362 114 362 112.533203125 590.065429688 c 0,5,6
 108 1079 108 1079 46.6552734375 1370.99804688 c 1,7,-1
 357.064453125 1571.25 l 2,8,9
 369 1579 369 1579 379.755859375 1579.34863281 c 0,10,11
 404 1579 404 1579 410.44140625 1516 c 0,12,13
 432.357534035 1267.95343251 432.357534035 1267.95343251 433.841796875 981.94921875 c 2,14,15
 434.455078125 863.775390625 l 2,16,17
 436 603 436 603 470.349609375 540.286132812 c 0,18,19
 496.03927237 494.930664067 496.03927237 494.930664067 568.548828125 494.930664062 c 2,20,-1
 577 494.930664062 l 2,21,22
 602.340820312 495.000945244 602.340820312 495.000945244 602.340820312 303 c 2,23,-1
 602.340820312 171 l 2,24,25
 602 0 602 0 577 0 c 2,0,-1
EndSplineSet
EndChar

StartChar: uniFEA2
Encoding: 65186 65186 170
Width: 1367
VWidth: 3747
GlyphClass: 2
Flags: W
AnchorPoint: "Anchor-10" 680.639 1364.02 basechar 0
AnchorPoint: "Anchor-7" 637.069 -849.641 basechar 0
LayerCount: 2
Fore
SplineSet
349.491210938 -64.4912109375 m 4,0,1
 350 181 350 181 689.989257812 350.4765625 c 0,2,3
 807 409 807 409 867.608398438 425.705078125 c 1,4,5
 917 0 917 0 1347.61132812 0 c 2,6,-1
 1372 0 l 2,7,8
 1397 0 1397 0 1397.34082031 171 c 2,9,-1
 1397.34082031 303 l 2,10,11
 1397.34082031 495.000945244 1397.34082031 495.000945244 1372 494.930664062 c 2,12,-1
 1338.56054688 494.930664062 l 2,13,14
 1120 495 1120 495 1051.72851562 512.84765625 c 1,15,16
 1090 528 1090 528 1207.77148438 545.422851562 c 1,17,-1
 1291.61425781 857.727539062 l 2,18,19
 1297.32835501 879.011893886 1297.32835501 879.011893886 1277.85839844 878.306640625 c 2,20,-1
 1267.93066406 878.150390625 l 2,21,22
 1258.36997721 877.999917489 1258.36997721 877.999917489 1249.2421875 878.001953125 c 0,23,24
 1118 878 1118 878 1017.93554688 907.670898438 c 0,25,26
 515 1057 515 1057 432.877929688 1056.58691406 c 0,27,28
 305 1056 305 1056 206.786132812 925.567382812 c 0,29,30
 134 830 134 830 81.0341796875 640.51953125 c 1,31,-1
 223.229492188 564.515625 l 1,32,33
 327 689 327 689 422.965820312 689.239257812 c 0,34,35
 492 689 492 689 664.129882812 649.313476562 c 1,36,37
 565 617 565 617 483.4375 566.014648438 c 0,38,39
 122 341 122 341 120.922851562 -89.9970703125 c 4,40,41
 121.000976562 -398.206054688 121.000976562 -398.206054688 281.359375 -547.043945312 c 4,42,43
 444 -697 444 -697 815.908203125 -697.46875 c 4,44,45
 884 -697 884 -697 966 -691.137695312 c 4,46,47
 1053.95117188 -684.00390625 1053.95117188 -684.00390625 1106 -593 c 6,48,-1
 1223.8203125 -387 l 6,49,50
 1262 -320 1262 -320 1262 -295 c 28,51,52
 1262 -259 1262 -259 1216 -267.903320312 c 4,53,54
 1036 -302 1036 -302 787.170898438 -301.796875 c 4,55,56
 350 -302 350 -302 349.491210938 -64.4912109375 c 4,0,1
EndSplineSet
EndChar

StartChar: uniFEA3
Encoding: 65187 65187 171
Width: 1365
VWidth: 3753
GlyphClass: 2
Flags: W
AnchorPoint: "Anchor-10" 511.983 1439.88 basechar 0
AnchorPoint: "Anchor-7" 582.7 -175.896 basechar 0
LayerCount: 2
Fore
SplineSet
-4.6591796875 0 m 2,0,1
 -60 0 -60 0 -60 171 c 2,2,-1
 -60 303 l 2,3,4
 -60 494.930664062 -60 494.930664062 -4.6591796875 494.930664062 c 2,5,-1
 45.7578125 494.930664062 l 2,6,7
 466.036150101 495.000005964 466.036150101 495.000005964 675 596 c 2,8,-1
 764.288085938 639.15625 l 1,9,10
 737 647 737 647 641 684.180664062 c 0,11,12
 475 749 475 749 429.553710938 748.686523438 c 0,13,14
 291.909636526 749.000205933 291.909636526 749.000205933 208.732421875 644.512695312 c 2,15,-1
 197.831054688 630.818359375 l 1,16,-1
 56.6279296875 703.568359375 l 1,17,-1
 64.84375 729.750976562 l 2,18,19
 124 918 124 918 217.604492188 1025.50292969 c 0,20,21
 313 1136 313 1136 459.014648438 1136.59277344 c 0,22,23
 555 1137 555 1137 775.096679688 1028.81445312 c 0,24,25
 1005 915 1005 915 1130.828125 898.51953125 c 4,26,27
 1211.66411724 888.043528983 1211.66411724 888.043528983 1282.57226562 889.969726562 c 6,28,-1
 1288.32421875 890.125976562 l 6,29,30
 1314.23195431 891.007895904 1314.23195431 891.007895904 1306.71386719 866.127929688 c 6,31,-1
 1197.50292969 504.7109375 l 5,32,33
 1108 479 1108 479 599.846679688 162.102539062 c 0,34,35
 340 0 340 0 25.7841796875 0 c 2,36,-1
 -4.6591796875 0 l 2,0,1
EndSplineSet
EndChar

StartChar: uniFEA4
Encoding: 65188 65188 172
Width: 1355
VWidth: 3753
GlyphClass: 2
Flags: W
AnchorPoint: "Anchor-10" 512.275 1423.68 basechar 0
AnchorPoint: "Anchor-7" 545.822 -172.531 basechar 0
LayerCount: 2
Fore
SplineSet
-4.6591796875 0 m 2,0,1
 -60 0 -60 0 -60 171 c 2,2,-1
 -60 303 l 2,3,4
 -60 494.930664062 -60 494.930664062 -4.6591796875 494.930664062 c 2,5,-1
 45.7578125 494.930664062 l 2,6,7
 466.036150101 495.000005964 466.036150101 495.000005964 675 596 c 2,8,-1
 764.288085938 639.15625 l 1,9,10
 737 647 737 647 641 684.180664062 c 0,11,12
 475 749 475 749 429.553710938 748.686523438 c 0,13,14
 291.909636526 749.000205933 291.909636526 749.000205933 208.732421875 644.512695312 c 2,15,-1
 197.831054688 630.818359375 l 1,16,-1
 56.6279296875 703.568359375 l 1,17,-1
 64.84375 729.750976562 l 2,18,19
 124 918 124 918 217.604492188 1025.50292969 c 0,20,21
 313 1136 313 1136 459.014648438 1136.59277344 c 0,22,23
 556 1137 556 1137 777.096679688 1028.81445312 c 0,24,25
 1006 916 1006 916 1130.828125 898.51953125 c 0,26,27
 1208.34258868 887.953300703 1208.34258868 887.953300703 1282.57226562 889.969726562 c 2,28,-1
 1288.32421875 890.125976562 l 2,29,30
 1314.07606562 891.002589332 1314.07606562 891.002589332 1306.71386719 866.127929688 c 2,31,-1
 1217.50292969 564.7109375 l 1,32,33
 1113 563 1113 563 1047 506 c 1,34,35
 1049.95234 493.206526684 1049.95234 493.206526684 1095 493.45703125 c 2,36,-1
 1360 494.930664062 l 6,37,38
 1385.34082031 495.000945244 1385.34082031 495.000945244 1385.34082031 303 c 6,39,-1
 1385.34082031 171 l 6,40,41
 1385 0 1385 0 1360 0 c 6,42,-1
 1296.95898438 0 l 2,43,44
 897 0 897 0 827 363 c 1,45,46
 683 244 683 244 599.846679688 192.102539062 c 0,47,48
 292 0 292 0 25.7841796875 0 c 2,49,-1
 -4.6591796875 0 l 2,0,1
EndSplineSet
EndChar

StartChar: uniFEAA
Encoding: 65194 65194 178
Width: 1129
VWidth: 3745
GlyphClass: 2
Flags: W
AnchorPoint: "Anchor-10" 646.121 1529.85 basechar 0
AnchorPoint: "Anchor-7" 482.785 -232.355 basechar 0
LayerCount: 2
Fore
SplineSet
1134 0 m 2,0,-1
 1118.72753906 0 l 2,1,2
 916 0 916 0 814.540039062 203.997070312 c 1,3,4
 668 0 668 0 423.119140625 -0.1884765625 c 0,5,6
 66 -0 66 -0 63.7099609375 372.096679688 c 0,7,8
 63 494 63 494 109.271484375 632.56640625 c 1,9,-1
 260.845703125 615.985351562 l 1,10,-1
 262.356445312 568.306640625 l 2,11,12
 265 497 265 497 436.95703125 497.176757812 c 0,13,14
 564 497 564 497 635.379882812 534.534179688 c 0,15,16
 681 558 681 558 668.731445312 594.129882812 c 2,17,-1
 521 1039 l 5,18,-1
 705.333007812 1240.59863281 l 6,19,20
 727 1264 727 1264 736.038085938 1263.59765625 c 4,21,22
 753.607721941 1263.99121304 753.607721941 1263.99121304 762.065429688 1238.46484375 c 6,23,-1
 949.1953125 673.684570312 l 2,24,25
 1008.39934198 494.999758171 1008.39934198 494.999758171 1122.49707031 494.930664062 c 2,26,-1
 1134 494.930664062 l 2,27,28
 1159.34082031 495.000945244 1159.34082031 495.000945244 1159.34082031 303 c 2,29,-1
 1159.34082031 171 l 2,30,31
 1159 0 1159 0 1134 0 c 2,0,-1
EndSplineSet
PairPos2: "'kern' Horizontal Kerning lookup 15-7" uniFB90 dx=-120 dy=0 dh=-120 dv=0 dx=0 dy=0 dh=0 dv=0
PairPos2: "'kern' Horizontal Kerning lookup 15-7" uni06A9 dx=-120 dy=0 dh=-120 dv=0 dx=0 dy=0 dh=0 dv=0
PairPos2: "'kern' Horizontal Kerning lookup 15-7" uniFB94 dx=-120 dy=0 dh=-120 dv=0 dx=0 dy=0 dh=0 dv=0
PairPos2: "'kern' Horizontal Kerning lookup 15-7" afii57509 dx=-120 dy=0 dh=-120 dv=0 dx=0 dy=0 dh=0 dv=0
EndChar

StartChar: uniFEAE
Encoding: 65198 65198 182
Width: 857
VWidth: 3752
GlyphClass: 2
Flags: W
AnchorPoint: "Anchor-7" 371.246 -726.137 basechar 0
AnchorPoint: "Anchor-10" 503.511 1114.68 basechar 0
LayerCount: 2
Fore
SplineSet
46.8935546875 -391.8828125 m 0,0,1
 330 -192 330 -192 483 76.4130859375 c 0,2,3
 501 108 501 108 495.185546875 137 c 0,4,5
 482 206 482 206 290 434 c 1,6,-1
 508 758 l 1,7,8
 602 637 602 637 612.865234375 624 c 0,9,10
 722.058658615 494.930664062 722.058658615 494.930664062 854.4921875 494.930664062 c 2,11,-1
 862 494.930664062 l 2,12,13
 887.340820312 495.000945244 887.340820312 495.000945244 887.340820312 303 c 2,14,-1
 887.340820312 171 l 2,15,16
 887 0 887 0 862 0 c 2,17,-1
 849.936523438 0 l 2,18,19
 757 0 757 0 713.931640625 31 c 5,20,21
 700 -73 700 -73 675.201171875 -178 c 0,22,23
 620 -404 620 -404 523 -483.046875 c 0,24,25
 477 -520 477 -520 365 -520 c 2,26,-1
 121 -520 l 2,27,28
 -34 -520 -34 -520 -34.095703125 -469.412109375 c 0,29,30
 -34 -448 -34 -448 46.8935546875 -391.8828125 c 0,0,1
EndSplineSet
PairPos2: "'kern' Horizontal Kerning lookup 15-1" uniFEF3 dx=20 dy=0 dh=20 dv=0 dx=0 dy=0 dh=0 dv=0
PairPos2: "'kern' Horizontal Kerning lookup 15-1" uniFB58 dx=20 dy=0 dh=20 dv=0 dx=0 dy=0 dh=0 dv=0
PairPos2: "'kern' Horizontal Kerning lookup 15-1" uniFBFE dx=20 dy=0 dh=20 dv=0 dx=0 dy=0 dh=0 dv=0
PairPos2: "'kern' Horizontal Kerning lookup 15-4" uni0621 dx=-196 dy=0 dh=-196 dv=0 dx=0 dy=0 dh=0 dv=0
PairPos2: "'kern' Horizontal Kerning lookup 15-3" uni0648 dx=-43 dy=0 dh=-43 dv=0 dx=0 dy=0 dh=0 dv=0
PairPos2: "'kern' Horizontal Kerning lookup 15-1" uni0644 dx=-43 dy=0 dh=-43 dv=0 dx=0 dy=0 dh=0 dv=0
PairPos2: "'kern' Horizontal Kerning lookup 15-1" uni0642 dx=-43 dy=0 dh=-43 dv=0 dx=0 dy=0 dh=0 dv=0
PairPos2: "'kern' Horizontal Kerning lookup 15-1" uni0632 dx=-43 dy=0 dh=-43 dv=0 dx=0 dy=0 dh=0 dv=0
PairPos2: "'kern' Horizontal Kerning lookup 15-1" uni0631 dx=-43 dy=0 dh=-43 dv=0 dx=0 dy=0 dh=0 dv=0
PairPos2: "'kern' Horizontal Kerning lookup 15-1" uniFB8A dx=-43 dy=0 dh=-43 dv=0 dx=0 dy=0 dh=0 dv=0
PairPos2: "'kern' Horizontal Kerning lookup 15-1" afii57508 dx=-43 dy=0 dh=-43 dv=0 dx=0 dy=0 dh=0 dv=0
PairPos2: "'kern' Horizontal Kerning lookup 15-1" uniFB7C dx=-128 dy=0 dh=-128 dv=0 dx=0 dy=0 dh=0 dv=0
PairPos2: "'kern' Horizontal Kerning lookup 15-1" uni06CC dx=-43 dy=0 dh=-43 dv=0 dx=0 dy=0 dh=0 dv=0
PairPos2: "'kern' Horizontal Kerning lookup 15-1" uniFEEB dx=-128 dy=0 dh=-128 dv=0 dx=0 dy=0 dh=0 dv=0
PairPos2: "'kern' Horizontal Kerning lookup 15-1" uniFEDF dx=-128 dy=0 dh=-128 dv=0 dx=0 dy=0 dh=0 dv=0
PairPos2: "'kern' Horizontal Kerning lookup 15-1" uniFB90 dx=-213 dy=0 dh=-213 dv=0 dx=0 dy=0 dh=0 dv=0
PairPos2: "'kern' Horizontal Kerning lookup 15-1" uni06A9 dx=-213 dy=0 dh=-213 dv=0 dx=0 dy=0 dh=0 dv=0
PairPos2: "'kern' Horizontal Kerning lookup 15-1" uni0649 dx=-43 dy=0 dh=-43 dv=0 dx=0 dy=0 dh=0 dv=0
PairPos2: "'kern' Horizontal Kerning lookup 15-1" uni0647 dx=-128 dy=0 dh=-128 dv=0 dx=0 dy=0 dh=0 dv=0
PairPos2: "'kern' Horizontal Kerning lookup 15-1" uniFEE7 dx=-128 dy=0 dh=-128 dv=0 dx=0 dy=0 dh=0 dv=0
PairPos2: "'kern' Horizontal Kerning lookup 15-1" uniFEE3 dx=-128 dy=0 dh=-128 dv=0 dx=0 dy=0 dh=0 dv=0
PairPos2: "'kern' Horizontal Kerning lookup 15-1" uni0645 dx=-128 dy=0 dh=-128 dv=0 dx=0 dy=0 dh=0 dv=0
PairPos2: "'kern' Horizontal Kerning lookup 15-1" uniFEDB dx=-213 dy=0 dh=-213 dv=0 dx=0 dy=0 dh=0 dv=0
PairPos2: "'kern' Horizontal Kerning lookup 15-1" uniFED7 dx=-128 dy=0 dh=-128 dv=0 dx=0 dy=0 dh=0 dv=0
PairPos2: "'kern' Horizontal Kerning lookup 15-1" uniFED3 dx=-128 dy=0 dh=-128 dv=0 dx=0 dy=0 dh=0 dv=0
PairPos2: "'kern' Horizontal Kerning lookup 15-1" uni0641 dx=-128 dy=0 dh=-128 dv=0 dx=0 dy=0 dh=0 dv=0
PairPos2: "'kern' Horizontal Kerning lookup 15-1" uniFECF dx=-128 dy=0 dh=-128 dv=0 dx=0 dy=0 dh=0 dv=0
PairPos2: "'kern' Horizontal Kerning lookup 15-1" uniFECB dx=-128 dy=0 dh=-128 dv=0 dx=0 dy=0 dh=0 dv=0
PairPos2: "'kern' Horizontal Kerning lookup 15-1" uniFEC7 dx=-128 dy=0 dh=-128 dv=0 dx=0 dy=0 dh=0 dv=0
PairPos2: "'kern' Horizontal Kerning lookup 15-1" uni0638 dx=-128 dy=0 dh=-128 dv=0 dx=0 dy=0 dh=0 dv=0
PairPos2: "'kern' Horizontal Kerning lookup 15-1" uniFEC3 dx=-128 dy=0 dh=-128 dv=0 dx=0 dy=0 dh=0 dv=0
PairPos2: "'kern' Horizontal Kerning lookup 15-1" uni0637 dx=-128 dy=0 dh=-128 dv=0 dx=0 dy=0 dh=0 dv=0
PairPos2: "'kern' Horizontal Kerning lookup 15-1" uniFEBF dx=-128 dy=0 dh=-128 dv=0 dx=0 dy=0 dh=0 dv=0
PairPos2: "'kern' Horizontal Kerning lookup 15-1" uni0636 dx=-128 dy=0 dh=-128 dv=0 dx=0 dy=0 dh=0 dv=0
PairPos2: "'kern' Horizontal Kerning lookup 15-1" uniFEBB dx=-128 dy=0 dh=-128 dv=0 dx=0 dy=0 dh=0 dv=0
PairPos2: "'kern' Horizontal Kerning lookup 15-1" uni0635 dx=-128 dy=0 dh=-128 dv=0 dx=0 dy=0 dh=0 dv=0
PairPos2: "'kern' Horizontal Kerning lookup 15-1" uniFEB7 dx=-128 dy=0 dh=-128 dv=0 dx=0 dy=0 dh=0 dv=0
PairPos2: "'kern' Horizontal Kerning lookup 15-1" uni0634 dx=-128 dy=0 dh=-128 dv=0 dx=0 dy=0 dh=0 dv=0
PairPos2: "'kern' Horizontal Kerning lookup 15-1" uniFEB3 dx=-128 dy=0 dh=-128 dv=0 dx=0 dy=0 dh=0 dv=0
PairPos2: "'kern' Horizontal Kerning lookup 15-1" uni0633 dx=-128 dy=0 dh=-128 dv=0 dx=0 dy=0 dh=0 dv=0
PairPos2: "'kern' Horizontal Kerning lookup 15-1" uni0630 dx=-128 dy=0 dh=-128 dv=0 dx=0 dy=0 dh=0 dv=0
PairPos2: "'kern' Horizontal Kerning lookup 15-1" uni062F dx=-128 dy=0 dh=-128 dv=0 dx=0 dy=0 dh=0 dv=0
PairPos2: "'kern' Horizontal Kerning lookup 15-1" uniFEA7 dx=-128 dy=0 dh=-128 dv=0 dx=0 dy=0 dh=0 dv=0
PairPos2: "'kern' Horizontal Kerning lookup 15-1" uniFEA3 dx=-128 dy=0 dh=-128 dv=0 dx=0 dy=0 dh=0 dv=0
PairPos2: "'kern' Horizontal Kerning lookup 15-1" uniFE9F dx=-128 dy=0 dh=-128 dv=0 dx=0 dy=0 dh=0 dv=0
PairPos2: "'kern' Horizontal Kerning lookup 15-1" uniFE9B dx=-128 dy=0 dh=-128 dv=0 dx=0 dy=0 dh=0 dv=0
PairPos2: "'kern' Horizontal Kerning lookup 15-1" uni062B dx=-128 dy=0 dh=-128 dv=0 dx=0 dy=0 dh=0 dv=0
PairPos2: "'kern' Horizontal Kerning lookup 15-1" uniFE97 dx=-128 dy=0 dh=-128 dv=0 dx=0 dy=0 dh=0 dv=0
PairPos2: "'kern' Horizontal Kerning lookup 15-1" uni062A dx=-128 dy=0 dh=-128 dv=0 dx=0 dy=0 dh=0 dv=0
PairPos2: "'kern' Horizontal Kerning lookup 15-1" uni0629 dx=-128 dy=0 dh=-128 dv=0 dx=0 dy=0 dh=0 dv=0
PairPos2: "'kern' Horizontal Kerning lookup 15-1" uni0628 dx=-128 dy=0 dh=-128 dv=0 dx=0 dy=0 dh=0 dv=0
PairPos2: "'kern' Horizontal Kerning lookup 15-1" uni0627 dx=-150 dy=0 dh=-150 dv=0 dx=0 dy=0 dh=0 dv=0
PairPos2: "'kern' Horizontal Kerning lookup 15-1" uni0622 dx=-150 dy=0 dh=-150 dv=0 dx=0 dy=0 dh=0 dv=0
PairPos2: "'kern' Horizontal Kerning lookup 15-1" uniFB94 dx=-235 dy=0 dh=-235 dv=0 dx=0 dy=0 dh=0 dv=0
PairPos2: "'kern' Horizontal Kerning lookup 15-1" afii57509 dx=-235 dy=0 dh=-235 dv=0 dx=0 dy=0 dh=0 dv=0
PairPos2: "'kern' Horizontal Kerning lookup 15-1" uniFB56 dx=-128 dy=0 dh=-128 dv=0 dx=0 dy=0 dh=0 dv=0
PairPos2: "'kern' Horizontal Kerning lookup 15-1" afii57506 dx=-128 dy=0 dh=-128 dv=0 dx=0 dy=0 dh=0 dv=0
EndChar

StartChar: uniFEB2
Encoding: 65202 65202 186
Width: 2464
VWidth: 3752
GlyphClass: 2
Flags: W
AnchorPoint: "Anchor-10" 1692.2 1234.76 basechar 0
AnchorPoint: "Anchor-7" 595.613 -793.732 basechar 0
LayerCount: 2
Fore
SplineSet
931.727539062 401.73046875 m 1,0,-1
 1145.4765625 697.595703125 l 2,1,2
 1165.91563005 725.883232562 1165.91563005 725.883232562 1186.16210938 697.595703125 c 2,3,-1
 1249.04296875 609.741210938 l 2,4,5
 1330 496 1330 496 1456.90625 496.599609375 c 16,6,7
 1576.64546871 496.998817998 1576.64546871 496.998817998 1595.42480469 626.698242188 c 2,8,-1
 1614.58984375 759.061523438 l 1,9,-1
 1763.26953125 759.061523438 l 1,10,-1
 1788.14941406 632.560546875 l 2,11,12
 1815 495 1815 495 1930.71191406 495.663085938 c 0,13,14
 2048.87612949 495.999647186 2048.87612949 495.999647186 2069.98535156 656.793945312 c 2,15,-1
 2087.87109375 793.034179688 l 1,16,-1
 2249.92871094 793.034179688 l 1,17,-1
 2267.01367188 659.215820312 l 2,18,19
 2288.00886094 494.930664062 2288.00886094 494.930664062 2440.1484375 494.930664062 c 2,20,-1
 2469.36425781 494.930664062 l 2,21,22
 2494.70507812 494.999202337 2494.70507812 494.999202337 2494.70507812 303 c 2,23,-1
 2494.70507812 171 l 2,24,25
 2495 0 2495 0 2469.36425781 0 c 2,26,-1
 2439.24023438 0 l 2,27,28
 2264 0 2264 0 2166.23632812 163.749023438 c 1,29,30
 2062 -1 2062 -1 1928.1875 -0.2412109375 c 0,31,32
 1788 1 1788 1 1682.04980469 171.181640625 c 1,33,34
 1576 0 1576 0 1456.16601562 0.033203125 c 0,35,36
 1405 -0 1405 -0 1338.5390625 34.34375 c 1,37,38
 1312 -305 1312 -305 1109.25488281 -455.1953125 c 0,39,40
 959 -567 959 -567 718.983398438 -567.462890625 c 0,41,42
 396 -567 396 -567 234.981445312 -405.92578125 c 4,43,44
 76.9931892879 -242.489654328 76.9931892879 -242.489654328 77.33203125 30.6279296875 c 0,45,46
 77 289 77 289 203.59765625 549.059570312 c 1,47,-1
 380.661132812 494.107421875 l 1,48,49
 329 321 329 321 328.901367188 207.822265625 c 0,50,51
 329 89 329 89 380.943359375 24.2216796875 c 0,52,53
 479 -96 479 -96 724.557617188 -95.9609375 c 0,54,55
 991 -96 991 -96 1087.68945312 42.5625 c 0,56,57
 1118 86 1118 86 1107.05957031 115.955078125 c 0,58,59
 1103 127 1103 127 1084.39941406 161.391601562 c 0,60,61
 1047 232 1047 232 931.727539062 401.73046875 c 1,0,-1
EndSplineSet
EndChar

StartChar: uniFEB3
Encoding: 65203 65203 187
Width: 1535
VWidth: 3752
GlyphClass: 2
Flags: W
AnchorPoint: "Anchor-10" 836.082 1241.4 basechar 0
AnchorPoint: "Anchor-7" 702.787 -224.589 basechar 0
LayerCount: 2
Fore
SplineSet
-4.6591796875 0 m 2,0,1
 -60 0 -60 0 -60 171 c 2,2,-1
 -60 303 l 2,3,4
 -60 494.930664062 -60 494.930664062 -4.6591796875 494.930664062 c 2,5,-1
 77.3173828125 494.930664062 l 6,6,7
 253.070375913 495.000027775 253.070375913 495.000027775 272.12109375 627.634765625 c 2,8,-1
 291.286132812 761.065429688 l 1,9,-1
 439.965820312 761.065429688 l 1,10,-1
 462.845703125 631.1640625 l 2,11,12
 486 497 486 497 618.541992188 496.599609375 c 0,13,14
 738.281518652 497.000943574 738.281518652 497.000943574 757.060546875 626.698242188 c 2,15,-1
 776.225585938 759.061523438 l 1,16,-1
 924.905273438 759.061523438 l 1,17,-1
 949.78515625 632.560546875 l 2,18,19
 977 495 977 495 1089.50292969 494.930664062 c 0,20,21
 1161 495 1161 495 1187.00195312 522.958984375 c 0,22,23
 1215 554 1215 554 1207.12402344 599 c 0,24,25
 1199.96082234 639.219974908 1199.96082234 639.219974908 1170 696 c 2,26,-1
 1119.94140625 790.868164062 l 1,27,-1
 1298.86523438 1013.32714844 l 2,28,29
 1326 1047 1326 1047 1348.50878906 1012.26074219 c 0,30,31
 1475 817 1475 817 1474.36425781 591.590820312 c 0,32,33
 1473 337 1473 337 1336.70800781 144.848632812 c 0,34,35
 1233 -1 1233 -1 1069 0 c 0,36,37
 950 1 950 1 843.685546875 171.181640625 c 1,38,39
 737 -1 737 -1 617.801757812 0.033203125 c 0,40,41
 455 1 455 1 365.458984375 165.491210938 c 1,42,43
 231 0 231 0 50.4453125 0 c 2,44,-1
 -4.6591796875 0 l 2,0,1
EndSplineSet
EndChar

StartChar: uniFEB4
Encoding: 65204 65204 188
Width: 1626
VWidth: 3752
GlyphClass: 2
Flags: W
AnchorPoint: "Anchor-7" 711.587 -232.589 basechar 0
AnchorPoint: "Anchor-10" 811.136 1274.73 basechar 0
LayerCount: 2
Fore
SplineSet
1089.82324219 -0.2412109375 m 0,0,1
 950 1 950 1 843.685546875 171.181640625 c 1,2,3
 737 -1 737 -1 617.801757812 0.033203125 c 0,4,5
 455 1 455 1 365.458984375 165.491210938 c 1,6,7
 231 0 231 0 50.4453125 0 c 2,8,-1
 -4.6591796875 0 l 2,9,10
 -60 0 -60 0 -60 171 c 2,11,-1
 -60 303 l 2,12,13
 -60 494.930664062 -60 494.930664062 -4.6591796875 494.930664062 c 2,14,-1
 77.3173828125 494.930664062 l 6,15,16
 253.070375913 495.000027775 253.070375913 495.000027775 272.12109375 627.634765625 c 2,17,-1
 291.286132812 761.065429688 l 1,18,-1
 439.965820312 761.065429688 l 1,19,-1
 462.845703125 631.1640625 l 2,20,21
 486 497 486 497 618.541992188 496.599609375 c 0,22,23
 738.281518652 497.000943574 738.281518652 497.000943574 757.060546875 626.698242188 c 2,24,-1
 776.225585938 759.061523438 l 1,25,-1
 924.905273438 759.061523438 l 1,26,-1
 949.78515625 632.560546875 l 2,27,28
 977 495 977 495 1092.34765625 495.663085938 c 0,29,30
 1210.51173599 495.998613571 1210.51173599 495.998613571 1231.62109375 656.793945312 c 2,31,-1
 1249.50683594 793.034179688 l 1,32,-1
 1411.56445312 793.034179688 l 1,33,-1
 1428.64941406 659.215820312 l 2,34,35
 1450.00901474 494.930664062 1450.00901474 494.930664062 1601.78417969 494.930664062 c 2,36,-1
 1631 494.930664062 l 2,37,38
 1656.34082031 495.000945244 1656.34082031 495.000945244 1656.34082031 303 c 2,39,-1
 1656.34082031 171 l 2,40,41
 1656 0 1656 0 1631 0 c 2,42,-1
 1600.87597656 0 l 2,43,44
 1426 0 1426 0 1327.87207031 163.749023438 c 1,45,46
 1224 -1 1224 -1 1089.82324219 -0.2412109375 c 0,0,1
EndSplineSet
EndChar

StartChar: uniFEBA
Encoding: 65210 65210 194
Width: 2646
VWidth: 3753
GlyphClass: 2
Flags: W
AnchorPoint: "Anchor-7" 688.402 -774.108 basechar 0
AnchorPoint: "Anchor-10" 2118.87 1390.76 basechar 0
LayerCount: 2
Fore
SplineSet
1109.25488281 -455.1953125 m 4,0,1
 959 -567 959 -567 698.983398438 -567.462890625 c 4,2,3
 396 -567 396 -567 234.981445312 -405.92578125 c 0,4,5
 76.9931892879 -242.489654328 76.9931892879 -242.489654328 77.33203125 30.6279296875 c 0,6,7
 77 289 77 289 203.59765625 549.059570312 c 1,8,-1
 380.661132812 494.107421875 l 1,9,10
 329 321 329 321 328.901367188 207.822265625 c 0,11,12
 329 89 329 89 380.943359375 24.2216796875 c 0,13,14
 479 -96 479 -96 704.557617188 -95.9609375 c 0,15,16
 991 -96 991 -96 1087.68945312 42.5625 c 0,17,18
 1118 86 1118 86 1107.05957031 115.955078125 c 0,19,20
 1103 127 1103 127 1084.39941406 161.391601562 c 0,21,22
 1047 232 1047 232 931.727539062 401.73046875 c 1,23,-1
 1141.91699219 694.395507812 l 2,24,25
 1164.85691979 725.804099307 1164.85691979 725.804099307 1191.32617188 691.1953125 c 2,26,-1
 1251.17578125 612.94140625 l 2,27,28
 1340 497 1340 497 1440.95605469 496.896484375 c 1,29,30
 1544 629 1544 629 1610.16796875 700.897460938 c 0,31,32
 1932 1049 1932 1049 2212.50488281 1048.79394531 c 0,33,34
 2419 1048 2419 1048 2502.66113281 885.391601562 c 0,35,36
 2545 804 2545 804 2544.90917969 699.462890625 c 0,37,38
 2545 574 2545 574 2520.67773438 494.930664062 c 1,39,-1
 2650.72851562 494.930664062 l 2,40,41
 2676.06933594 495.000190233 2676.06933594 495.000190233 2676.06933594 303 c 2,42,-1
 2676.06933594 171 l 2,43,44
 2676 0 2676 0 2650.72851562 0 c 2,45,-1
 2622.73535156 0 l 2,46,47
 2450 0 2450 0 2283.38476562 172.798828125 c 1,48,49
 2074.92741846 -2.06088337734 2074.92741846 -2.06088337734 1790.20898438 -2.080078125 c 2,50,-1
 1587.41210938 -2.09375 l 2,51,52
 1443 -2 1443 -2 1337.47265625 34.34375 c 1,53,54
 1311 -306 1311 -306 1109.25488281 -455.1953125 c 4,0,1
1671.01464844 494.455078125 m 1,55,-1
 1912.71484375 494.455078125 l 2,56,57
 2218.0824146 494.004306822 2218.0824146 494.004306822 2281.37890625 541.134765625 c 0,58,59
 2300 555 2300 555 2296.13085938 581.33203125 c 0,60,61
 2278 690 2278 690 2089.64648438 689.1953125 c 0,62,63
 1938 688 1938 688 1738.16210938 546.856445312 c 0,64,65
 1710 527 1710 527 1671.01464844 494.455078125 c 1,55,-1
EndSplineSet
EndChar

StartChar: uniFEBB
Encoding: 65211 65211 195
Width: 1703
VWidth: 3753
GlyphClass: 2
Flags: W
AnchorPoint: "Anchor-10" 1132.76 1374.51 basechar 0
AnchorPoint: "Anchor-7" 632.342 -216.568 basechar 0
LayerCount: 2
Fore
SplineSet
528.228515625 496.896484375 m 1,0,1
 639 639 639 639 697.439453125 700.897460938 c 0,2,3
 1024 1049 1024 1049 1299.77734375 1048.79394531 c 0,4,5
 1504 1048 1504 1048 1589.93261719 885.391601562 c 0,6,7
 1632 805 1632 805 1632.18164062 699.462890625 c 0,8,9
 1632 517 1632 517 1546.05078125 364.055664062 c 0,10,11
 1341.97266827 -0.0487637078581 1341.97266827 -0.0487637078581 877.481445312 -0.080078125 c 2,12,-1
 674.684570312 -0.09375 l 2,13,14
 482 -0 482 -0 313.875 183.073242188 c 1,15,16
 161 0 161 0 28.1640625 0 c 2,17,-1
 -4.6591796875 0 l 2,18,19
 -60 0 -60 0 -60 171 c 2,20,-1
 -60 303 l 2,21,22
 -60 494.930664062 -60 494.930664062 -4.6591796875 494.930664062 c 2,23,-1
 29.400390625 494.930664062 l 2,24,25
 196.337264258 495.000140364 196.337264258 495.000140364 219.54296875 655.153320312 c 6,26,-1
 239.51171875 792.966796875 l 5,27,-1
 401.443359375 793.048828125 l 5,28,-1
 422.337890625 658.008789062 l 6,29,30
 446 503 446 503 528.228515625 496.896484375 c 1,0,1
758.287109375 494.455078125 m 1,31,-1
 999.986328125 494.455078125 l 2,32,33
 1304 494 1304 494 1368.65039062 541.134765625 c 0,34,35
 1388 555 1388 555 1383.40332031 581.33203125 c 0,36,37
 1365 690 1365 690 1176.91894531 689.1953125 c 0,38,39
 1020 688 1020 688 825.434570312 546.856445312 c 0,40,41
 798 527 798 527 758.287109375 494.455078125 c 1,31,-1
EndSplineSet
EndChar

StartChar: uniFEBC
Encoding: 65212 65212 196
Width: 1720
VWidth: 3753
GlyphClass: 2
Flags: W
AnchorPoint: "Anchor-7" 682.342 -216.568 basechar 0
AnchorPoint: "Anchor-10" 1201.34 1385.9 basechar 0
LayerCount: 2
Fore
SplineSet
219.54296875 655.153320312 m 6,0,-1
 239.51171875 792.966796875 l 5,1,-1
 401.443359375 793.048828125 l 5,2,-1
 422.337890625 658.008789062 l 6,3,4
 446 503 446 503 528.228515625 496.896484375 c 1,5,6
 641 640 641 640 697.439453125 700.897460938 c 0,7,8
 1020 1049 1020 1049 1299.77734375 1048.79394531 c 0,9,10
 1506 1048 1506 1048 1589.93261719 885.391601562 c 0,11,12
 1632 804 1632 804 1632.18164062 699.462890625 c 0,13,14
 1632 577 1632 577 1607.94921875 494.930664062 c 1,15,-1
 1725 494.930664062 l 2,16,17
 1750.34082031 495.000945244 1750.34082031 495.000945244 1750.34082031 303 c 2,18,-1
 1750.34082031 171 l 2,19,20
 1750 0 1750 0 1725 0 c 2,21,-1
 1697.00683594 0 l 2,22,23
 1537 0 1537 0 1370.65722656 172.798828125 c 1,24,25
 1164.92775828 -0.0606994730358 1164.92775828 -0.0606994730358 877.481445312 -0.080078125 c 2,26,-1
 674.684570312 -0.09375 l 2,27,28
 482 -0 482 -0 313.875 183.073242188 c 1,29,30
 158 0 158 0 28.1640625 0 c 2,31,-1
 -4.6591796875 0 l 2,32,33
 -60 0 -60 0 -60 171 c 2,34,-1
 -60 303 l 2,35,36
 -60 494.930664062 -60 494.930664062 -4.6591796875 494.930664062 c 2,37,-1
 29.400390625 494.930664062 l 2,38,39
 196 495 196 495 219.54296875 655.153320312 c 6,0,-1
758.287109375 494.455078125 m 1,40,-1
 999.986328125 494.455078125 l 2,41,42
 1304 494 1304 494 1368.65039062 541.134765625 c 0,43,44
 1388 555 1388 555 1383.40332031 581.33203125 c 0,45,46
 1365 690 1365 690 1176.91894531 689.1953125 c 0,47,48
 1020 688 1020 688 825.434570312 546.856445312 c 0,49,50
 798 527 798 527 758.287109375 494.455078125 c 1,40,-1
EndSplineSet
EndChar

StartChar: uniFEC2
Encoding: 65218 65218 202
Width: 1629
VWidth: 3753
GlyphClass: 2
Flags: W
AnchorPoint: "Anchor-10" 540.374 1658.33 basechar 0
AnchorPoint: "Anchor-7" 829.173 -205.469 basechar 0
LayerCount: 2
Fore
SplineSet
1634 0 m 6,0,-1
 1604.94140625 0 l 6,1,2
 1445 0 1445 0 1282.39160156 172.814453125 c 1,3,4
 1079.84206292 -1.1356367934 1079.84206292 -1.1356367934 797.749023438 -0.998046875 c 2,5,-1
 299.203125 -0.7548828125 l 1,6,7
 158 175 158 175 70.3994140625 369.064453125 c 0,8,9
 14.194888235 494.564829584 14.194888235 494.564829584 113.862304688 494.588867188 c 2,10,-1
 437.79296875 494.666992188 l 1,11,12
 421 1047 421 1047 368.059570312 1371.72949219 c 1,13,-1
 681.595703125 1575.63574219 l 2,14,15
 734.522658314 1609.6928432 734.522658314 1609.6928432 734.463867188 1538.58984375 c 2,16,-1
 733.862304688 811.049804688 l 1,17,18
 1003 1049 1003 1049 1220.04492188 1048.80957031 c 0,19,20
 1425 1048 1425 1048 1510.20117188 885.407226562 c 0,21,22
 1553 803 1553 803 1552.75195312 695.2109375 c 0,23,24
 1552 588 1552 588 1520.75097656 494.930664062 c 1,25,-1
 1634 494.930664062 l 6,26,27
 1659.34082031 495.000945244 1659.34082031 495.000945244 1659.34082031 303 c 6,28,-1
 1659.34082031 171 l 6,29,30
 1659 0 1659 0 1634 0 c 6,0,-1
678.5546875 494.470703125 m 1,31,-1
 920.254882812 494.470703125 l 2,32,33
 1223 494 1223 494 1288.91894531 541.150390625 c 0,34,35
 1308 555 1308 555 1303.67089844 581.34765625 c 0,36,37
 1286 690 1286 690 1097.18652344 689.2109375 c 0,38,39
 943 688 943 688 745.702148438 546.87109375 c 0,40,41
 718 527 718 527 678.5546875 494.470703125 c 1,31,-1
EndSplineSet
EndChar

StartChar: uniFEC3
Encoding: 65219 65219 203
Width: 1322
VWidth: 3753
GlyphClass: 2
Flags: W
AnchorPoint: "Anchor-10" 191.977 1647.53 basechar 0
AnchorPoint: "Anchor-7" 493.441 -199.068 basechar 0
LayerCount: 2
Fore
SplineSet
-4.6591796875 0 m 2,0,1
 -60 0 -60 0 -60 171 c 2,2,-1
 -60 303 l 2,3,4
 -60 495.035050066 -60 495.035050066 -4.6591796875 494.930664062 c 2,5,-1
 135.127929688 494.666992188 l 1,6,7
 119 1047 119 1047 65.39453125 1371.72949219 c 5,8,-1
 378.930664062 1575.63574219 l 6,9,10
 431.857901092 1609.90798597 431.857901092 1609.90798597 431.799804688 1539.65625 c 6,11,-1
 431.197265625 811.049804688 l 1,12,13
 702 1049 702 1049 918.447265625 1048.79394531 c 0,14,15
 1124 1048 1124 1048 1208.60253906 885.391601562 c 0,16,17
 1252 803 1252 803 1251.15332031 695.1953125 c 0,18,19
 1250 514 1250 514 1164.72070312 364.055664062 c 0,20,21
 958 0 958 0 496.151367188 0 c 2,22,-1
 -4.6591796875 0 l 2,0,1
376.95703125 494.455078125 m 1,23,-1
 618.65625 494.455078125 l 2,24,25
 924 494 924 494 987.3203125 541.134765625 c 0,26,27
 1006 555 1006 555 1002.07226562 581.33203125 c 0,28,29
 984 690 984 690 795.588867188 689.1953125 c 0,30,31
 644 688 644 688 444.104492188 546.856445312 c 0,32,33
 416 527 416 527 376.95703125 494.455078125 c 1,23,-1
EndSplineSet
EndChar

StartChar: uniFEC4
Encoding: 65220 65220 204
Width: 1328
VWidth: 3753
GlyphClass: 2
Flags: W
AnchorPoint: "Anchor-7" 507.041 -194.802 basechar 0
AnchorPoint: "Anchor-10" 196.243 1643.26 basechar 0
LayerCount: 2
Fore
SplineSet
1333 0 m 2,0,-1
 1304.41015625 0 l 2,1,2
 1143 0 1143 0 980.793945312 172.798828125 c 1,3,4
 778 0 778 0 496.151367188 0 c 2,5,-1
 -4.6591796875 0 l 2,6,7
 -60 0 -60 0 -60 171 c 2,8,-1
 -60 303 l 2,9,10
 -60 495.035050066 -60 495.035050066 -4.6591796875 494.930664062 c 2,11,-1
 135.127929688 494.666992188 l 1,12,13
 119 1047 119 1047 65.39453125 1371.72949219 c 1,14,-1
 378.930664062 1575.63574219 l 2,15,16
 431.857797085 1609.90791862 431.857797085 1609.90791862 431.798828125 1538.58984375 c 2,17,-1
 431.197265625 811.049804688 l 1,18,19
 702 1049 702 1049 918.447265625 1048.79394531 c 0,20,21
 1124 1048 1124 1048 1208.60253906 885.391601562 c 0,22,23
 1252 803 1252 803 1251.15332031 695.1953125 c 0,24,25
 1251 588 1251 588 1219.15234375 494.930664062 c 1,26,-1
 1333 494.930664062 l 2,27,28
 1358.34082031 495.000945244 1358.34082031 495.000945244 1358.34082031 303 c 2,29,-1
 1358.34082031 171 l 2,30,31
 1358 0 1358 0 1333 0 c 2,0,-1
376.95703125 494.455078125 m 1,32,-1
 618.65625 494.455078125 l 2,33,34
 924 494 924 494 987.3203125 541.134765625 c 0,35,36
 1006 555 1006 555 1002.07226562 581.33203125 c 0,37,38
 984 690 984 690 795.588867188 689.1953125 c 0,39,40
 644 688 644 688 444.104492188 546.856445312 c 0,41,42
 416 527 416 527 376.95703125 494.455078125 c 1,32,-1
EndSplineSet
EndChar

StartChar: uniFECA
Encoding: 65226 65226 210
Width: 1314
VWidth: 3747
GlyphClass: 2
Flags: W
AnchorPoint: "Anchor-10" 704.861 1347.25 basechar 0
AnchorPoint: "Anchor-7" 618.791 -812.06 basechar 0
LayerCount: 2
Fore
SplineSet
746.908203125 -697.46875 m 4,0,1
 408 -699 408 -699 246.725585938 -547.250976562 c 0,2,3
 86 -397 86 -397 85.654296875 -111.403320312 c 0,4,5
 86 407 86 407 614.9296875 658.888671875 c 1,6,7
 537 687 537 687 310.836914062 716.745117188 c 1,8,-1
 310.690429688 940.165039062 l 1,9,10
 440 1019 440 1019 775.4921875 1018.79296875 c 0,11,12
 1112 1019 1112 1019 1111.88476562 818.421875 c 0,13,14
 1112 640 1112 640 976.099609375 527.616210938 c 1,15,16
 1021.0954498 494.930664062 1021.0954498 494.930664062 1279.59375 494.930664062 c 2,17,-1
 1319 494.930664062 l 2,18,19
 1344.34082031 495.000945244 1344.34082031 495.000945244 1344.34082031 303 c 2,20,-1
 1344.34082031 171 l 2,21,22
 1344 0 1344 0 1319 0 c 2,23,-1
 1290.77734375 0 l 2,24,25
 886 0 886 0 740.794921875 322.264648438 c 1,26,27
 310 167 310 167 315.306640625 -78 c 24,28,29
 321 -301 321 -301 728.170898438 -301.796875 c 4,30,31
 967 -302 967 -302 1147 -267.903320312 c 4,32,33
 1193 -259 1193 -259 1193 -295 c 28,34,35
 1193 -320.245673364 1193 -320.245673364 1154.8203125 -387 c 6,36,-1
 1037 -593 l 6,37,38
 985 -684 985 -684 897 -691.137695312 c 4,39,40
 815 -697 815 -697 746.908203125 -697.46875 c 4,0,1
EndSplineSet
EndChar

StartChar: uniFECB
Encoding: 65227 65227 211
Width: 1026
VWidth: 3747
GlyphClass: 2
Flags: W
AnchorPoint: "Anchor-10" 509.702 1485.5 basechar 0
AnchorPoint: "Anchor-7" 508.066 -201.427 basechar 0
LayerCount: 2
Fore
SplineSet
-4.6591796875 0 m 2,0,1
 -60 0 -60 0 -60 171 c 2,2,-1
 -60 303 l 2,3,4
 -60 494.930664062 -60 494.930664062 -4.6591796875 494.930664062 c 2,5,-1
 151.708007812 494.930664062 l 1,6,7
 85 597 85 597 84.8623046875 710.30859375 c 0,8,9
 85 811 85 811 133.232421875 900.916015625 c 0,10,11
 278 1170 278 1170 516.362304688 1169.82226562 c 0,12,13
 721 1170 721 1170 865.361328125 1003.6640625 c 1,14,-1
 824.463867188 783.08984375 l 5,15,16
 709 844 709 844 585.259765625 843.918945312 c 4,17,18
 430 844 430 844 330.151367188 738.471679688 c 4,19,20
 305 712 305 712 305.499023438 699.3828125 c 4,21,22
 306 679 306 679 342.642578125 640.149414062 c 0,23,24
 385 597 385 597 434.619140625 569.8125 c 0,25,26
 505 532 505 532 526.046875 536.188476562 c 0,27,28
 739 584 739 584 784.643554688 594.1484375 c 2,29,-1
 893.040039062 618.568359375 l 2,30,31
 985.576131027 638.906837972 985.576131027 638.906837972 967.776367188 563.728515625 c 2,32,-1
 880 193 l 1,33,34
 568 94 568 94 402.200195312 50.1162109375 c 0,35,36
 215 0 215 0 42.5625 0 c 2,37,-1
 -4.6591796875 0 l 2,0,1
EndSplineSet
EndChar

StartChar: uniFECC
Encoding: 65228 65228 212
Width: 1029
VWidth: 3749
GlyphClass: 2
Flags: W
AnchorPoint: "Anchor-10" 520.738 1285.06 basechar 0
AnchorPoint: "Anchor-7" 500.445 -201.154 basechar 0
LayerCount: 2
Fore
SplineSet
1034 0 m 2,0,-1
 991.078125 0 l 2,1,2
 722 0 722 0 557.641601562 200.666015625 c 1,3,4
 349 0 349 0 86.23046875 0 c 2,5,-1
 -4.6591796875 0 l 2,6,7
 -60 0 -60 0 -60 171 c 2,8,-1
 -60 303 l 2,9,10
 -60 494.930664062 -60 494.930664062 -4.6591796875 494.930664062 c 2,11,-1
 83.576171875 494.930664062 l 2,12,13
 357 495 357 495 463.106445312 553.430664062 c 1,14,15
 362.174351845 682.776565651 362.174351845 682.776565651 139.013671875 711.518554688 c 2,16,-1
 120.421875 713.913085938 l 1,17,-1
 120.275390625 937.311523438 l 1,18,19
 264 1025 264 1025 567.481445312 1026.27832031 c 0,20,21
 759 1027 759 1027 861.5859375 955.690429688 c 0,22,23
 928 909 928 909 921.396484375 824.373046875 c 0,24,25
 908 660 908 660 735.448242188 542.112304688 c 1,26,27
 813.114134175 494.93066406 813.114134175 494.93066406 993.732421875 494.930664062 c 2,28,-1
 1034 494.930664062 l 2,29,30
 1059.34082031 495.000945244 1059.34082031 495.000945244 1059.34082031 303 c 2,31,-1
 1059.34082031 171 l 2,32,33
 1059 0 1059 0 1034 0 c 2,0,-1
EndSplineSet
EndChar

StartChar: uniFEDA
Encoding: 65242 65242 226
Width: 1950
VWidth: 3713
GlyphClass: 2
Flags: W
AnchorPoint: "Anchor-10" 921.587 1591.45 basechar 0
AnchorPoint: "Anchor-7" 889.161 -199.19 basechar 0
LayerCount: 2
Fore
SplineSet
1596.19628906 162 m 5,0,1
 1402 0 1402 0 852 0 c 0,2,3
 500 0 500 0 312.755859375 102.430664062 c 0,4,5
 79 230 79 230 78.4521484375 537.642578125 c 0,6,7
 78 771 78 771 191.454101562 994.09375 c 1,8,-1
 345.512695312 938.196289062 l 1,9,10
 316 830 316 830 315.83335666 756.286267699 c 0,11,12
 316 687 316 687 341.935546875 647.479492188 c 0,13,14
 444 491 444 491 882 491 c 0,15,16
 1441 491 1441 491 1490.57128906 605.1171875 c 0,17,18
 1520 672 1520 672 1489.36230469 979.356445312 c 0,19,20
 1473 1147 1473 1147 1440.63476562 1371.25195312 c 1,21,-1
 1773.85449219 1572.67773438 l 2,22,23
 1812.00504488 1595.7391088 1812.00504488 1595.7391088 1811.56445312 1531.18945312 c 2,24,-1
 1811.56445312 741.268554688 l 2,25,26
 1811.56445312 495.00024157 1811.56445312 495.00024157 1937.01171875 494.930664062 c 2,27,-1
 1955 494.930664062 l 2,28,29
 1980.00012308 494.930664062 1980.00012308 494.930664062 1980.34082031 303 c 2,30,-1
 1980.34082031 171 l 2,31,32
 1980.34082031 0 1980.34082031 0 1955 0 c 2,33,-1
 1927.44433594 0 l 2,34,35
 1678 0 1678 0 1596.19628906 162 c 5,0,1
1081.23339844 737.109375 m 0,36,37
 932 636 932 636 628.579101562 732.51171875 c 1,38,-1
 648.5859375 937.451171875 l 1,39,40
 798 884 798 884 893.1953125 884.49609375 c 0,41,42
 965 885 965 885 1005.58203125 902.038085938 c 0,43,44
 1034 914 1034 914 1036.55273438 933.125 c 1,45,46
 1030 954 1030 954 929.1328125 975.841796875 c 0,47,48
 726 1020 726 1020 731.818359375 1213.54296875 c 0,49,50
 739 1422 739 1422 1076.58886719 1465.87304688 c 0,51,52
 1146 1475 1146 1475 1157.62792969 1457.36328125 c 0,53,54
 1173 1436 1173 1436 1152.75683594 1389.70605469 c 1,55,-1
 1109.82519531 1266.83789062 l 1,56,57
 872 1244 872 1244 871.956054688 1195.328125 c 0,58,59
 872 1176 872 1176 964.064453125 1160.328125 c 0,60,61
 1056 1144 1056 1144 1098.37304688 1116.43652344 c 0,62,63
 1183 1060 1183 1060 1185.92285156 935.239257812 c 0,64,65
 1189 811 1189 811 1081.23339844 737.109375 c 0,36,37
EndSplineSet
EndChar

StartChar: uniFEDB
Encoding: 65243 65243 227
Width: 1030
VWidth: 3732
GlyphClass: 2
Flags: W
AnchorPoint: "Anchor-10" 243.521 1602.94 basechar 0
AnchorPoint: "Anchor-7" 335.081 -252.218 basechar 0
LayerCount: 2
Fore
SplineSet
-4.6591796875 0 m 2,0,1
 -60 0 -60 0 -60 171 c 2,2,-1
 -60 303 l 2,3,4
 -60 494.930664062 -60 494.930664062 -4.6591796875 494.930664062 c 2,5,-1
 76.5654296875 494.930664062 l 2,6,7
 387 495 387 495 435.922851562 582.678710938 c 0,8,9
 452 612 452 612 423.463867188 652.12890625 c 0,10,11
 354 750 354 750 7.51171875 1005.05761719 c 1,12,-1
 83.9931640625 1348.203125 l 1,13,-1
 920 1617.61132812 l 2,14,15
 967.080416148 1633.02632974 967.080416148 1633.02632974 961.2109375 1590 c 2,16,-1
 918.286132812 1275.33886719 l 1,17,-1
 418.130859375 1115.45898438 l 1,18,19
 753 844 753 844 754.092773438 548.396484375 c 0,20,21
 756 0 756 0 78.8193359375 0 c 6,22,-1
 -4.6591796875 0 l 2,0,1
EndSplineSet
EndChar

StartChar: uniFEDC
Encoding: 65244 65244 228
Width: 1211
VWidth: 3732
GlyphClass: 2
Flags: W
AnchorPoint: "Anchor-10" 241.319 1591.78 basechar 0
AnchorPoint: "Anchor-7" 404.945 -187.381 basechar 0
LayerCount: 2
Fore
SplineSet
1196.89257812 494.930664062 m 6,0,1
 1216 494.930664062 l 6,2,3
 1241.00012308 494.930664061 1241.00012308 494.930664061 1241.34082031 303 c 6,4,-1
 1241.34082031 171 l 6,5,6
 1241.34082031 0 1241.34082031 0 1216 0 c 6,7,-1
 1196.02148438 0 l 6,8,9
 927 0 927 0 683.595703125 287.53125 c 5,10,11
 551 0 551 0 94.15234375 0 c 2,12,-1
 -4.6591796875 0 l 2,13,14
 -60 0 -60 0 -60 171 c 2,15,-1
 -60 303 l 2,16,17
 -60 495 -60 495 -4.6591796875 494.930664062 c 2,18,-1
 96.5654296875 494.930664062 l 2,19,20
 386.961312025 494.930664062 386.961312025 494.930664062 435.922851562 582.678710938 c 4,21,22
 452 612 452 612 423.463867188 652.12890625 c 4,23,24
 354 750 354 750 7.51171875 1005.05761719 c 5,25,-1
 83.9931640625 1348.203125 l 5,26,-1
 920 1617.61132812 l 6,27,28
 966.96585191 1632.74635481 966.96585191 1632.74635481 961.2109375 1590 c 6,29,-1
 918.286132812 1275.33886719 l 5,30,-1
 418.130859375 1115.45898438 l 5,31,32
 497 1045 497 1045 857 705.248046875 c 4,33,34
 1080 495 1080 495 1196.89257812 494.930664062 c 6,0,1
EndSplineSet
EndChar

StartChar: uniFEDE
Encoding: 65246 65246 230
Width: 1470
VWidth: 3753
GlyphClass: 2
Flags: W
AnchorPoint: "Anchor-10" 571.865 1112.54 basechar 0
AnchorPoint: "Anchor-7" 628.653 -771.119 basechar 0
LayerCount: 2
Fore
SplineSet
704.557617188 -95.9609375 m 0,0,1
 927 -97 927 -97 1020.31640625 50.4208984375 c 0,2,3
 1052 101 1052 101 1046.52636719 182.3984375 c 0,4,5
 1014 676 1014 676 935.416015625 1370.65039062 c 1,6,-1
 1234 1552.92773438 l 2,7,8
 1297.14549595 1591.08792636 1297.14549595 1591.08792636 1300.17382812 1513 c 2,9,-1
 1333.09765625 664.033203125 l 2,10,11
 1340.00283128 494.930664062 1340.00283128 494.930664062 1442.734375 494.930664062 c 2,12,-1
 1475 494.930664062 l 2,13,14
 1500.34082031 495.000945244 1500.34082031 495.000945244 1500.34082031 303 c 2,15,-1
 1500.34082031 171 l 2,16,17
 1500 0 1500 0 1475 0 c 2,18,-1
 1442.52441406 0 l 2,19,20
 1371 0 1371 0 1318.36816406 40.7744140625 c 1,21,22
 1293 -286 1293 -286 1110.65917969 -438.263671875 c 4,23,24
 955 -568 955 -568 698.983398438 -567.462890625 c 0,25,26
 394 -567 394 -567 234.981445312 -395.92578125 c 0,27,28
 77 -227 77 -227 77.33203125 30.6279296875 c 0,29,30
 77 309 77 309 203.59765625 549.059570312 c 1,31,-1
 380.661132812 494.107421875 l 1,32,33
 329 321 329 321 328.901367188 207.822265625 c 0,34,35
 329 91 329 91 390.943359375 14.2216796875 c 0,36,37
 480 -95 480 -95 704.557617188 -95.9609375 c 0,0,1
EndSplineSet
EndChar

StartChar: uniFEDF
Encoding: 65247 65247 231
Width: 636
VWidth: 3713
GlyphClass: 2
Flags: W
AnchorPoint: "Anchor-10" 248.597 1618.49 basechar 0
AnchorPoint: "Anchor-7" 183.305 -220.229 basechar 0
LayerCount: 2
Fore
SplineSet
-4.6591796875 0 m 2,0,1
 -60 0 -60 0 -60 171 c 2,2,-1
 -60 303 l 2,3,4
 -60 494.930664062 -60 494.930664062 -4.6591796875 494.930664062 c 2,5,-1
 16.53515625 494.930664062 l 2,6,7
 196 495 196 495 191.420898438 592.771484375 c 0,8,9
 182 837 182 837 106.596679688 1373.1875 c 5,10,-1
 418.930664062 1565.91894531 l 6,11,12
 471.817186333 1598.88604212 471.817186333 1598.88604212 474.748046875 1533.45605469 c 6,13,-1
 515.860351562 615.64453125 l 2,14,15
 526.881062285 374.601385844 526.881062285 374.601385844 455.444335938 226.657226562 c 0,16,17
 346 0 346 0 30.892578125 0 c 2,18,-1
 -4.6591796875 0 l 2,0,1
EndSplineSet
EndChar

StartChar: uniFEE0
Encoding: 65248 65248 232
Width: 651
VWidth: 3713
GlyphClass: 2
Flags: W
AnchorPoint: "Anchor-10" 288.333 1628.48 basechar 0
AnchorPoint: "Anchor-7" 284.362 -216.796 basechar 0
LayerCount: 2
Fore
SplineSet
656 0 m 2,0,-1
 615.435546875 0 l 2,1,2
 427 0 427 0 327.360351562 170.094726562 c 5,3,4
 202 0 202 0 56.5390625 0 c 2,5,-1
 -4.6591796875 0 l 2,6,7
 -60 0 -60 0 -60 171 c 2,8,-1
 -60 303 l 2,9,10
 -60 494.930664062 -60 494.930664062 -4.6591796875 494.930664062 c 2,11,-1
 58.3955078125 494.930664062 l 2,12,13
 206 495 206 495 198.75390625 703.678710938 c 4,14,15
 189 988 189 988 141.541992188 1367.75976562 c 5,16,-1
 463.9296875 1570.37011719 l 6,17,18
 517.186523438 1604.11819718 517.186523438 1604.11819718 517.186523438 1530.38964844 c 6,19,-1
 517.186523438 727.0546875 l 6,20,21
 516.999944268 494.930664062 516.999944268 494.930664062 625.870117188 494.930664062 c 2,22,-1
 656 494.930664062 l 2,23,24
 681.340820312 495.000945244 681.340820312 495.000945244 681.340820312 303 c 2,25,-1
 681.340820312 171 l 2,26,27
 681 0 681 0 656 0 c 2,0,-1
EndSplineSet
EndChar

StartChar: uniFEE2
Encoding: 65250 65250 234
Width: 1335
VWidth: 3789
GlyphClass: 2
Flags: W
AnchorPoint: "Anchor-10" 643.718 1202.23 basechar 0
AnchorPoint: "Anchor-7" 271.716 -791.776 basechar 0
LayerCount: 2
Fore
SplineSet
1322.15234375 494.930664062 m 6,0,-1
 1340.13769531 494.930664062 l 6,1,2
 1365.47851562 495.000976562 1365.47851562 495.000976562 1365.47851562 303 c 6,3,-1
 1365.47851562 171 l 6,4,5
 1365 0 1365 0 1340.13769531 0 c 6,6,-1
 1325.75195312 0 l 6,7,8
 1249 0 1249 0 1162.20214844 68.197265625 c 5,9,10
 1068 -203 1068 -203 852.147460938 -203.079101562 c 4,11,12
 630 -203 630 -203 550.741210938 0.6171875 c 4,13,14
 519 83 519 83 518.81640625 279.649414062 c 4,15,16
 519 328 519 328 520.73046875 382.880859375 c 5,17,18
 424 349 424 349 359.991210938 252.213867188 c 5,19,-1
 375.454101562 -279.473632812 l 6,20,21
 378 -378 378 -378 239.278320312 -529 c 4,22,23
 154 -623 154 -623 120 -624 c 4,24,25
 98.421875 -624 98.421875 -624 94.9267578125 -543 c 6,26,-1
 80.63671875 -211.83203125 l 6,27,28
 76 -104 76 -104 75.603515625 -4.2841796875 c 4,29,30
 76 145 76 145 87.0888671875 272.079101562 c 4,31,32
 113 551 113 551 333.427734375 691.580078125 c 4,33,34
 444 762 444 762 554.00390625 777.186523438 c 5,35,36
 575 871 575 871 592.21484375 900.362304688 c 4,37,38
 618 944 618 944 651.098632812 943.874023438 c 4,39,40
 671.375976562 944.001953125 671.375976562 944.001953125 696.146484375 925.96875 c 6,41,-1
 1202.74414062 557.151367188 l 6,42,43
 1288 495 1288 495 1322.15234375 494.930664062 c 6,0,-1
742.456054688 483.6171875 m 5,44,45
 740 431 740 431 739.90625 387.416015625 c 4,46,47
 740 336 740 336 743.383789062 297.515625 c 4,48,49
 751 225 751 225 786.29296875 196.696289062 c 4,50,51
 815 174 815 174 868.412109375 174.16796875 c 4,52,53
 978 174 978 174 978.322265625 261.734375 c 4,54,55
 978 334 978 334 742.456054688 483.6171875 c 5,44,45
EndSplineSet
EndChar

StartChar: uniFEE3
Encoding: 65251 65251 235
Width: 1045
VWidth: 3756
GlyphClass: 2
Flags: W
AnchorPoint: "Anchor-10" 543.686 1198.77 basechar 0
AnchorPoint: "Anchor-7" 529.424 -259.04 basechar 0
LayerCount: 2
Fore
SplineSet
-4.6591796875 0 m 2,0,1
 -60 0 -60 0 -60 171 c 2,2,-1
 -60 303 l 2,3,4
 -60 494.930664062 -60 494.930664062 -4.6591796875 494.930664062 c 2,5,-1
 31.248046875 494.930664062 l 2,6,7
 156 495 156 495 251.524414062 626.916015625 c 0,8,9
 379 802 379 802 461.264648438 877.395507812 c 0,10,11
 541 949 541 949 627.196289062 949.369140625 c 0,12,13
 693 949 693 949 758.620117188 908.706054688 c 0,14,15
 913 813 913 813 963.815429688 573.395507812 c 0,16,17
 982 487 982 487 982.239151048 411.146509931 c 0,18,19
 982 192 982 192 831.145507812 60.7763671875 c 0,20,21
 743 -16 743 -16 667.138467509 -16.2522498017 c 0,22,23
 529 -16 529 -16 302.1796875 178.619140625 c 1,24,25
 150 0 150 0 6.9853515625 0 c 6,26,-1
 -4.6591796875 0 l 2,0,1
498 557 m 1,27,28
 632.701085966 420.593836996 632.701085966 420.593836996 707.298825205 420.593836996 c 0,29,30
 755.277667856 420.593836996 755.277667856 420.593836996 755.277667856 478.657434427 c 0,31,32
 755.277667856 531.620085741 755.277667856 531.620085741 719.2578125 586.415039062 c 0,33,34
 668.87246013 663.831156367 668.87246013 663.831156367 618.800526904 663.831156367 c 0,35,36
 572.89194467 663.831156367 572.89194467 663.831156367 498 557 c 1,27,28
EndSplineSet
EndChar

StartChar: uniFEE4
Encoding: 65252 65252 236
Width: 1145
VWidth: 3756
GlyphClass: 2
Flags: W
AnchorPoint: "Anchor-10" 551.076 1181.23 basechar 0
AnchorPoint: "Anchor-7" 513.449 -269.66 basechar 0
LayerCount: 2
Fore
SplineSet
1150 0 m 2,0,-1
 1125.61425781 0 l 2,1,2
 1026 0 1026 0 894.921875 91.689453125 c 1,3,4
 849 23 849 23 778.967773438 -32.939453125 c 0,5,6
 716 -83 716 -83 642.80859375 -83.0947265625 c 0,7,8
 505 -83 505 -83 289.229492188 115.48046875 c 1,9,10
 178 0 178 0 16.5849609375 0 c 2,11,-1
 -4.6591796875 0 l 2,12,13
 -60 0 -60 0 -60 171 c 2,14,-1
 -60 303 l 2,15,16
 -60 494.930664062 -60 494.930664062 -4.6591796875 494.930664062 c 2,17,-1
 31.2392578125 494.930664062 l 2,18,19
 175 495 175 495 241.194335938 585.89453125 c 0,20,21
 355 742 355 742 442.650390625 813.330078125 c 0,22,23
 534 887 534 887 619.517578125 887.283203125 c 0,24,25
 688 887 688 887 752.477539062 840.6640625 c 0,26,27
 848 772 848 772 949.123046875 592.309570312 c 0,28,29
 1004.03910145 494.930664062 1004.03910145 494.930664062 1132.01464844 494.930664062 c 2,30,-1
 1150 494.930664062 l 2,31,32
 1175.34082031 495.000945244 1175.34082031 495.000945244 1175.34082031 303 c 2,33,-1
 1175.34082031 171 l 2,34,35
 1175 0 1175 0 1150 0 c 2,0,-1
477.591796875 499.536132812 m 1,36,37
 612 363 612 363 686.890625 363.129882812 c 0,38,39
 735 363 735 363 734.869140625 421.193359375 c 0,40,41
 735 474 735 474 698.849609375 528.951171875 c 0,42,43
 648 606 648 606 598.392578125 606.3671875 c 0,44,45
 552 606 552 606 477.591796875 499.536132812 c 1,36,37
EndSplineSet
EndChar

StartChar: uniFEEA
Encoding: 65258 65258 242
Width: 1041
VWidth: 3740
GlyphClass: 2
Flags: W
AnchorPoint: "Anchor-10" 645.345 1495.69 basechar 0
AnchorPoint: "Anchor-7" 475.202 -208.468 basechar 0
LayerCount: 2
Fore
SplineSet
1046 0 m 2,0,-1
 1027.45507812 0 l 2,1,2
 777 0 777 0 679 233 c 1,3,-1
 531.211914062 105.482421875 l 1,4,5
 422 106 422 106 328.299804688 121.864257812 c 0,6,7
 170 148 170 148 125.299804688 200.375 c 0,8,9
 82 251 82 251 80.498046875 524.487304688 c 0,10,11
 80 656 80 656 105.473632812 733.426757812 c 0,12,13
 158 891 158 891 531.778320312 1066.58886719 c 1,14,-1
 514.71484375 1146.24023438 l 1,15,-1
 682.565429688 1309.46679688 l 2,16,17
 709 1335 709 1335 722.609375 1335.04199219 c 0,18,19
 751.058376187 1334.99991366 751.058376187 1334.99991366 761.274414062 1274.26660156 c 2,20,-1
 867.6484375 641.883789062 l 2,21,22
 892 495 892 495 1017.3125 494.930664062 c 2,23,-1
 1046 494.930664062 l 2,24,25
 1071.34082031 494.930664062 1071.34082031 494.930664062 1071.34082031 303 c 2,26,-1
 1071.34082031 171 l 2,27,28
 1071 0 1071 0 1046 0 c 2,0,-1
287.079101562 656.091796875 m 0,29,30
 287 637 287 637 307 628.098632812 c 0,31,32
 367 600 367 600 561.625976562 598.202148438 c 0,33,34
 592 598 592 598 625.497070312 599.0546875 c 1,35,-1
 580.182617188 813.125976562 l 1,36,37
 352 737 352 737 305 688.266601562 c 0,38,39
 287 670 287 670 287.079101562 656.091796875 c 0,29,30
EndSplineSet
EndChar

StartChar: uniFEEB
Encoding: 65259 65259 243
Width: 1262
VWidth: 3747
GlyphClass: 2
Flags: W
AnchorPoint: "Anchor-10" 522.316 1592.96 basechar 0
AnchorPoint: "Anchor-7" 573.812 -213.204 basechar 0
LayerCount: 2
Fore
SplineSet
-4.6591796875 0 m 2,0,1
 -60 0 -60 0 -60 171 c 2,2,-1
 -60 303 l 2,3,4
 -60 494.425151287 -60 494.425151287 -4.6591796875 494.930664062 c 2,5,-1
 151.213867188 496.354492188 l 1,6,7
 60 601 60 601 118.68359375 780.8203125 c 0,8,9
 177 959 177 959 301.134765625 1036.15917969 c 1,10,-1
 178.817382812 1097.56445312 l 1,11,-1
 283.091796875 1419.23339844 l 1,12,-1
 694.049804688 1201.86328125 l 2,13,14
 1188.6664456 940.554184553 1188.6664456 940.554184553 1185.43614393 586 c 0,15,16
 1184.53922949 487.555705235 1184.53922949 487.555705235 1145.26171875 381.922851562 c 0,17,18
 1100 260 1100 260 1039.40039062 184.331054688 c 0,19,20
 980 109 980 109 925.537109375 109.896484375 c 0,21,22
 746 113 746 113 485.904296875 209.791015625 c 1,23,24
 271 0 271 0 47.9052734375 0 c 2,25,-1
 -4.6591796875 0 l 2,0,1
763.901367188 745.45703125 m 1,26,27
 747 620 747 620 682.861328125 549.336914062 c 1,28,29
 827 488 827 488 904.009765625 473.90234375 c 1,30,31
 951 538 951 538 912.6796875 612.59765625 c 0,32,33
 877 683 877 683 763.901367188 745.45703125 c 1,26,27
510.109375 625.078125 m 1,34,35
 551 647 551 647 571.8984375 711.313476562 c 0,36,37
 596 787 596 787 584.544921875 821.779296875 c 0,38,39
 574 854 574 854 522.095703125 876.25390625 c 0,40,41
 426 917 426 917 354.991210938 825.09375 c 0,42,43
 312 769 312 769 331.623046875 732.775390625 c 0,44,45
 366 669 366 669 510.109375 625.078125 c 1,34,35
EndSplineSet
EndChar

StartChar: uniFEEC
Encoding: 65260 65260 244
Width: 968
VWidth: 3775
GlyphClass: 2
Flags: W
AnchorPoint: "Anchor-7" 372.532 -612.585 basechar 0
AnchorPoint: "Anchor-10" 456.286 1372.17 basechar 0
LayerCount: 2
Fore
SplineSet
914.188476562 0 m 6,0,1
 686 0 686 0 789.979492188 -441.274414062 c 1,2,-1
 570.0859375 -590.408203125 l 1,3,4
 235 -378 235 -378 114.111328125 0.009765625 c 1,5,-1
 -4.6591796875 0 l 2,6,7
 -60 0 -60 0 -60 171 c 2,8,-1
 -60 303 l 2,9,10
 -60 496.11250145 -60 496.11250145 -4.6591796875 494.930664062 c 2,11,-1
 104.723632812 492.594726562 l 1,12,13
 197 857 197 857 336.367700979 1021 c 0,14,15
 413 1111 413 1111 475.708007812 1111.97070312 c 0,16,17
 545 1113 545 1113 636.645507812 1017 c 0,18,19
 781 865 781 865 781.193359375 652.4140625 c 0,20,21
 781 493 781 493 672.752929688 307 c 0,22,23
 552 100 552 100 334.9375 6.0947265625 c 1,24,25
 420 -116 420 -116 526 -194 c 1,26,27
 539 0 539 0 626 171 c 0,28,29
 793.31686313 494.997181547 793.31686313 494.997181547 966 494.930664062 c 2,30,-1
 972.733398438 494.930664062 l 2,31,32
 998.07421875 494.930664062 998.07421875 494.930664062 998.07421875 303 c 2,33,-1
 998.07421875 171 l 2,34,35
 998 0 998 0 972.733398438 0 c 2,36,-1
 914.188476562 0 l 6,0,1
305.690429688 498.797851562 m 1,37,38
 659 522 659 522 614.4609375 611.62890625 c 0,39,40
 576 690 576 690 450.176757812 774.81640625 c 1,41,42
 361 650 361 650 305.690429688 498.797851562 c 1,37,38
EndSplineSet
EndChar

StartChar: uniFEEE
Encoding: 65262 65262 246
Width: 867
VWidth: 3781
GlyphClass: 2
Flags: W
AnchorPoint: "Anchor-7" 321.246 -726.137 basechar 0
AnchorPoint: "Anchor-10" 369.69 1285.41 basechar 0
LayerCount: 2
Fore
SplineSet
114.893554688 -391.8828125 m 4,0,1
 360 -221 360 -221 507 -2.1806640625 c 9,2,-1
 465.700195312 0.4912109375 l 2,3,4
 240 15 240 15 164.194335938 102.387695312 c 0,5,6
 77 203 77 203 76.6064453125 366.970703125 c 0,7,8
 77 485 77 485 122.798828125 635.729492188 c 0,9,10
 170 789 170 789 240.213867188 867.330078125 c 0,11,12
 327 964 327 964 444.626953125 964.107421875 c 0,13,14
 663 964 663 964 751.818359375 674.438476562 c 8,15,16
 781 580 781 580 782.861328125 494.930664062 c 1,17,-1
 872 494.930664062 l 2,18,19
 897.340820312 495.000945244 897.340820312 495.000945244 897.340820312 303 c 2,20,-1
 897.340820312 171 l 2,21,22
 897 0 897 0 872 0 c 2,23,-1
 777.391601562 0 l 1,24,25
 770 -68 770 -68 742.493164062 -178 c 16,26,27
 685 -409 685 -409 591 -483.046875 c 4,28,29
 545 -520 545 -520 433 -520 c 6,30,-1
 189 -520 l 6,31,32
 34 -520 34 -520 33.904296875 -469.412109375 c 4,33,34
 34 -448 34 -448 114.893554688 -391.8828125 c 4,0,1
583.155273438 486.203125 m 1,35,36
 562 541 562 541 537.75 576 c 0,37,38
 491 642 491 642 408 642.52734375 c 0,39,40
 332.950195312 641.872070312 332.950195312 641.872070312 308.184570312 577.583984375 c 0,41,42
 300.897460938 557.783203125 300.897460938 557.783203125 300.897460938 542.310546875 c 0,43,44
 300.897460938 497.939453125 300.897460938 497.939453125 360.825195312 489.162109375 c 0,45,46
 389.982421875 485.000976562 389.982421875 485.000976562 475.258789062 485.000976562 c 0,47,48
 521.099609375 485.000976562 521.099609375 485.000976562 583.155273438 486.203125 c 1,35,36
EndSplineSet
EndChar

StartChar: uniFEF0
Encoding: 65264 65264 248
Width: 1489
VWidth: 3753
GlyphClass: 2
Flags: W
AnchorPoint: "Anchor-10" 725.938 989.34 basechar 0
AnchorPoint: "Anchor-7" 657.979 -801.205 basechar 0
LayerCount: 2
Fore
SplineSet
708.983398438 -567.462890625 m 0,0,1
 396 -567 396 -567 234.981445312 -405.92578125 c 0,2,3
 76.9931892879 -242.489654328 76.9931892879 -242.489654328 77.33203125 30.6279296875 c 0,4,5
 77 289 77 289 203.59765625 549.059570312 c 1,6,-1
 380.661132812 494.107421875 l 1,7,8
 329 321 329 321 328.901367188 207.822265625 c 0,9,10
 329 89 329 89 380.943359375 24.2216796875 c 0,11,12
 492 -114 492 -114 745.499023438 -113.346679688 c 0,13,14
 1001.42144335 -113.003458143 1001.42144335 -113.003458143 1135.32617188 -24.1328125 c 0,15,16
 1171 -0 1171 -0 1126 11.0848092285 c 0,17,18
 1083 22 1083 22 889.994140625 45.5673828125 c 0,19,20
 812 55 812 55 824.555664062 156.443359375 c 0,21,22
 865.991512257 494.930664062 865.991512257 494.930664062 1002.68164062 494.930664062 c 2,23,-1
 1494 494.930664062 l 2,24,25
 1519.34082031 495.000945244 1519.34082031 495.000945244 1519.34082031 303 c 2,26,-1
 1519.34082031 171 l 2,27,28
 1519 0 1519 0 1494 0 c 2,29,-1
 1380.30859375 0 l 1,30,31
 1396 -32 1396 -32 1396.13671875 -85 c 0,32,33
 1397 -283 1397 -283 1203 -427 c 0,34,35
 1011 -568 1011 -568 708.983398438 -567.462890625 c 0,0,1
EndSplineSet
EndChar

StartChar: uniFEFB
Encoding: 65275 65275 259
Width: 1287
VWidth: 3713
GlyphClass: 3
Flags: W
AnchorPoint: "Anchor-9" 203.706 1509.26 baselig 1
AnchorPoint: "Anchor-9" 901.15 1629.56 baselig 0
AnchorPoint: "Anchor-6" 411.197 -232.729 baselig 1
AnchorPoint: "Anchor-6" 975.96 -192.064 baselig 0
LayerCount: 2
Fore
SplineSet
717.491210938 490.337890625 m 1,0,1
 828 538 828 538 828.063476562 708 c 0,2,3
 828 790 828 790 804.39453125 998.926757812 c 0,4,5
 783 1188 783 1188 760.665039062 1377.56640625 c 1,6,-1
 1080 1561 l 2,7,8
 1127.98900418 1588.99358577 1127.98900418 1588.99358577 1129.734375 1532.52246094 c 2,9,-1
 1152.10058594 808.868164062 l 2,10,11
 1165 377 1165 377 953.326171875 166.876953125 c 0,12,13
 730 -53 730 -53 283 -53 c 5,14,15
 174 79 174 79 36 281 c 4,16,17
 -12.2850671901 352.902763098 -12.2850671901 352.902763098 37 355 c 0,18,19
 253 364 253 364 416.626953125 395.20703125 c 1,20,21
 281 852 281 852 37 1180 c 1,22,-1
 298 1388.90625 l 2,23,24
 320 1407 320 1407 337.041015625 1379 c 0,25,26
 539 1045 539 1045 717.491210938 490.337890625 c 1,0,1
EndSplineSet
LCarets2: 1 0
Ligature2: "'rlig' Required Ligatures in Arabic lookup 16 subtable" uniFEDF uniFE8E
EndChar

StartChar: uniFEFC
Encoding: 65276 65276 260
Width: 1281
VWidth: 3713
GlyphClass: 3
Flags: W
AnchorPoint: "Anchor-9" 901.15 1629.56 baselig 0
AnchorPoint: "Anchor-6" 975.96 -192.064 baselig 0
AnchorPoint: "Anchor-6" 411.197 -232.729 baselig 1
AnchorPoint: "Anchor-9" 203.706 1509.26 baselig 1
LayerCount: 2
Fore
SplineSet
416.626953125 395.20703125 m 1,0,1
 283 850 283 850 37 1180 c 1,2,-1
 298 1388.90625 l 2,3,4
 320 1407 320 1407 337.041015625 1379 c 0,5,6
 539 1045 539 1045 717.491210938 490.337890625 c 1,7,8
 828 539 828 539 828.060546875 707 c 0,9,10
 828 779 828 779 804.39453125 998.926757812 c 0,11,12
 795 1083 795 1083 760.665039062 1377.56640625 c 1,13,-1
 1085 1564.03417969 l 2,14,15
 1128.02997498 1589.01740349 1128.02997498 1589.01740349 1129.83886719 1530.38964844 c 2,16,-1
 1152.10058594 808.868164062 l 2,17,18
 1158 606 1158 606 1178.51855469 561.552734375 c 0,19,20
 1208.03071435 494.930664062 1208.03071435 494.930664062 1256.94433594 494.930664062 c 2,21,-1
 1286 494.930664062 l 2,22,23
 1311.34082031 495.000945244 1311.34082031 495.000945244 1311.34082031 303 c 2,24,-1
 1311.34082031 171 l 2,25,26
 1311 0 1311 0 1286 0 c 2,27,-1
 1256.61132812 0 l 2,28,29
 1035 0 1035 0 952 184 c 1,30,31
 739 -52 739 -52 283 -53 c 5,32,33
 163 91 163 91 36 281 c 0,34,35
 -10.9080118694 352.870755028 -10.9080118694 352.870755028 37 355 c 0,36,37
 263 364 263 364 416.626953125 395.20703125 c 1,0,1
EndSplineSet
LCarets2: 1 0
Ligature2: "'rlig' Required Ligatures in Arabic lookup 16 subtable" uniFEE0 uniFE8E
EndChar

StartChar: arabic_dot
Encoding: 65536 -1 261
Width: 233
VWidth: 3240
GlyphClass: 2
Flags: W
LayerCount: 2
Fore
SplineSet
116.03125 320.60082441 m 1,0,-1
 309.442612674 127.190403855 l 1,1,-1
 116.03125 -66.2228430569 l 1,2,-1
 -77.380112674 127.190403855 l 1,3,-1
 116.03125 320.60082441 l 1,0,-1
EndSplineSet
EndChar

StartChar: arabic_2dots
Encoding: 65537 -1 262
Width: 612
VWidth: 3240
GlyphClass: 2
Flags: W
LayerCount: 2
Fore
SplineSet
486.857421875 308.127174376 m 1,0,-1
 672.431879798 122.552716453 l 1,1,-1
 486.857413529 -63.0236312516 l 1,2,-1
 310.127340358 113.707399329 l 1,3,-1
 306.591796875 117.242961965 l 1,4,-1
 303.056253392 113.707399329 l 1,5,-1
 126.326180221 -63.0236312516 l 1,6,-1
 -59.2482860479 122.552716453 l 1,7,-1
 126.326171875 308.127174376 l 1,8,-1
 303.056262969 131.397083282 l 1,9,-1
 306.591796875 127.861549376 l 1,10,-1
 310.127330781 131.397083282 l 1,11,-1
 486.857421875 308.127174376 l 1,0,-1
EndSplineSet
EndChar

StartChar: arabic_3dots
Encoding: 65538 -1 263
Width: 590
VWidth: 3240
GlyphClass: 2
Flags: W
LayerCount: 2
Fore
SplineSet
-68.3205804226 96.4394437906 m 1,0,-1
 109.548828125 274.310730788 l 1,1,-1
 287.418236672 96.4394437906 l 1,2,-1
 109.548828125 -81.4327824306 l 1,3,-1
 -68.3205804226 96.4394437906 l 1,0,-1
303.944068015 96.4394437906 m 1,4,-1
 481.813467227 274.310721453 l 1,5,-1
 659.681927217 96.4394437907 l 1,6,-1
 481.813467227 -81.4327730958 l 1,7,-1
 303.944068015 96.4394437906 l 1,4,-1
117.853294374 375.466778198 m 1,8,-1
 295.63962976 553.252174376 l 1,9,-1
 473.424086731 375.466778198 l 1,10,-1
 295.63962976 197.679503605 l 1,11,-1
 117.853294374 375.466778198 l 1,8,-1
EndSplineSet
EndChar

StartChar: arabic_3dots_a
Encoding: 65539 -1 264
Width: 636
VWidth: 3240
GlyphClass: 2
Flags: W
LayerCount: 2
Fore
SplineSet
-46.9865867133 137.515625 m 1,0,-1
 130.882803165 315.386893327 l 1,1,-1
 308.75125382 137.515625 l 1,2,-1
 130.882803165 -40.3556433276 l 1,3,-1
 -46.9865867133 137.515625 l 1,0,-1
325.277085162 137.515625 m 1,4,-1
 503.14647504 315.386893327 l 5,5,-1
 681.014925695 137.515625 l 5,6,-1
 503.14647504 -40.3556433276 l 1,7,-1
 325.277085162 137.515625 l 1,4,-1
139.187250734 -141.511709411 m 1,8,-1
 316.972646911 36.2755651814 l 1,9,-1
 494.757103882 -141.511709411 l 1,10,-1
 316.972646911 -319.298044797 l 1,11,-1
 139.187250734 -141.511709411 l 1,8,-1
EndSplineSet
EndChar

StartChar: uni066E.fina
Encoding: 65540 -1 265
Width: 1943
VWidth: 3753
GlyphClass: 2
Flags: W
AnchorPoint: "Anchor-10" 1060.57 1821.78 basechar 0
AnchorPoint: "Anchor-7" 991.416 -346.569 basechar 0
LayerCount: 2
Fore
SplineSet
1948 0 m 2,0,-1
 1930.61914062 0 l 2,1,2
 1632 0 1632 0 1559.01953125 235.4765625 c 1,3,4
 1317 0 1317 0 813.678710938 0 c 0,5,6
 500 0 500 0 312.755859375 102.430664062 c 4,7,8
 79 230 79 230 78.4521484375 537.642578125 c 0,9,10
 78 771 78 771 191.454101562 994.09375 c 1,11,-1
 345.512695312 938.196289062 l 1,12,13
 316 830 316 830 315.83335666 756.286267699 c 0,14,15
 316 687 316 687 341.935546875 647.479492188 c 0,16,17
 444 491 444 491 863.188476562 491.239257812 c 0,18,19
 1484.11269511 490.999956568 1484.11269511 490.999956568 1587.41015625 737.362304688 c 2,20,-1
 1598.95703125 764.901367188 l 1,21,-1
 1742.75878906 734.340820312 l 1,22,-1
 1735.37402344 692.580078125 l 2,23,24
 1732 673 1732 673 1731.66015625 652.793945312 c 0,25,26
 1732.17079178 495.334783514 1732.17079178 495.334783514 1922.6875 494.930664062 c 2,27,-1
 1948 494.930664062 l 2,28,29
 1973.34082031 494.930664062 1973.34082031 494.930664062 1973.34082031 303 c 2,30,-1
 1973.34082031 171 l 2,31,32
 1973 0 1973 0 1948 0 c 2,0,-1
EndSplineSet
EndChar

StartChar: uni06A1.fina
Encoding: 65543 -1 266
Width: 1891
VWidth: 3748
GlyphClass: 2
Flags: W
AnchorPoint: "Anchor-10" 766.929 2001.83 basechar 0
AnchorPoint: "Anchor-7" 954.113 -431.558 basechar 0
LayerCount: 2
Fore
SplineSet
836.189453125 491.237304688 m 0,0,1
 1050 491 1050 491 1223.52539062 523.555664062 c 1,2,3
 1124 635 1124 635 1123.6640625 757.09375 c 0,4,5
 1124 950 1124 950 1248.50683594 1088.45996094 c 0,6,7
 1347 1197 1347 1197 1482.39160156 1196.80175781 c 0,8,9
 1618 1197 1618 1197 1732.77246094 1031.80664062 c 0,10,11
 1810 921 1810 921 1809.55761719 773.401367188 c 0,12,13
 1810 639 1810 639 1694.27050781 516.568359375 c 1,14,15
 1787.29809807 494.930664062 1787.29809807 494.930664062 1865.19335938 494.930664062 c 2,16,-1
 1896 494.930664062 l 6,17,18
 1921.34082031 495.000945244 1921.34082031 495.000945244 1921.34082031 303 c 6,19,-1
 1921.34082031 171 l 6,20,21
 1921 0 1921 0 1896 0 c 6,22,-1
 1856.24804688 0 l 2,23,24
 1675 0 1675 0 1459.16308594 202.987304688 c 1,25,26
 1183 0 1183 0 813.678710938 0 c 0,27,28
 500 0 500 0 312.755859375 102.430664062 c 0,29,30
 79 229 79 229 78.4501953125 539.200195312 c 0,31,32
 78 772 78 772 191.454101562 994.09375 c 1,33,-1
 345.512695312 938.196289062 l 1,34,35
 316 830 316 830 315.833007812 756.286132812 c 0,36,37
 316 687 316 687 341.935546875 647.479492188 c 0,38,39
 444 491 444 491 836.189453125 491.237304688 c 0,0,1
1604.50488281 709.872070312 m 0,40,41
 1605 743 1605 743 1555.12890625 789.071289062 c 0,42,43
 1506 835 1506 835 1461.02441406 834.935546875 c 0,44,45
 1418 835 1418 835 1372.62988281 785.692382812 c 0,46,47
 1330 739 1330 739 1329.89648438 700.353515625 c 0,48,49
 1330 667 1330 667 1361.75488281 639.071289062 c 0,50,51
 1430 579 1430 579 1466.91894531 579.2890625 c 0,52,53
 1503 579 1503 579 1554.03515625 627.352539062 c 0,54,55
 1604 673 1604 673 1604.50488281 709.872070312 c 0,40,41
EndSplineSet
EndChar

StartChar: uni06A1.init
Encoding: 65544 -1 267
Width: 842
VWidth: 3781
GlyphClass: 2
Flags: W
AnchorPoint: "Anchor-10" 487.044 2063.37 basechar 0
AnchorPoint: "Anchor-7" 434.877 -342.91 basechar 0
LayerCount: 2
Fore
SplineSet
-14.6591796875 0 m 2,0,1
 -90 0 -90 0 -90 171 c 2,2,-1
 -90 303 l 2,3,4
 -90 494.930664062 -90 494.930664062 -14.6591796875 494.930664062 c 2,5,-1
 169.006835938 494.930664062 l 2,6,7
 352 495 352 495 450.157226562 523.68359375 c 0,8,9
 544 551 544 551 562.22265625 610.573242188 c 1,10,11
 461 596 461 596 382.875976562 596.27734375 c 0,12,13
 122 596 122 596 97.595703125 771.0546875 c 0,14,15
 93 804 93 804 92.5205078125 844.41796875 c 0,16,17
 93 904 93 904 103.663085938 977.088867188 c 0,18,19
 161 1360 161 1360 423.73046875 1359.99121094 c 0,20,21
 547 1360 547 1360 623.272460938 1264.70898438 c 0,22,23
 768 1086 768 1086 772.603515625 696.203125 c 0,24,25
 773 662 773 662 771.401367188 625.815429688 c 0,26,27
 760 283 760 283 615.626953125 142.466796875 c 0,28,29
 470 0 470 0 193.461914062 0 c 2,30,-1
 -14.6591796875 0 l 2,0,1
560.409179688 930.608398438 m 1,31,32
 500 1067 500 1067 401.688476562 1067.375 c 0,33,34
 327 1067 327 1067 301.448242188 1016.00292969 c 0,35,36
 288 989 288 989 288.130859375 969.991210938 c 0,37,38
 288 954 288 954 298.235351562 943.205078125 c 0,39,40
 321.057478986 919.921121857 321.057478986 919.921121857 418.606445312 920.784179688 c 0,41,42
 443 921 443 921 472.463867188 922.177734375 c 0,43,44
 526 925 526 925 560.409179688 930.608398438 c 1,31,32
EndSplineSet
EndChar

StartChar: uni06A1.medi
Encoding: 65545 -1 268
Width: 907
VWidth: 3748
GlyphClass: 2
Flags: W
AnchorPoint: "Anchor-10" 758.142 1723.05 basechar 0
AnchorPoint: "Anchor-7" 697.662 -335.969 basechar 0
LayerCount: 2
Fore
SplineSet
912 0 m 2,0,-1
 880.087890625 0 l 2,1,2
 688 0 688 0 475.146484375 203.452148438 c 1,3,4
 245 0 245 0 38.2158203125 0 c 6,5,-1
 -4.6591796875 0 l 2,6,7
 -60 0 -60 0 -60 171 c 2,8,-1
 -60 303 l 2,9,10
 -60 494.930664062 -60 494.930664062 -4.6591796875 494.930664062 c 2,11,-1
 37.458984375 494.930664062 l 6,12,13
 131 495 131 495 239.53125 523.555664062 c 1,14,15
 140 635 140 635 139.670898438 757.09375 c 0,16,17
 140 950 140 950 264.513671875 1088.45996094 c 0,18,19
 363 1197 363 1197 498.3984375 1196.80175781 c 0,20,21
 634 1197 634 1197 748.779296875 1031.80664062 c 0,22,23
 826 921 826 921 825.564453125 773.401367188 c 0,24,25
 826 639 826 639 710.27734375 516.568359375 c 1,26,27
 797.278787865 494.93066406 797.278787865 494.93066406 886.51171875 494.930664062 c 2,28,-1
 912 494.930664062 l 2,29,30
 937.340820312 495.000945244 937.340820312 495.000945244 937.340820312 303 c 2,31,-1
 937.340820312 171 l 2,32,33
 937 0 937 0 912 0 c 2,0,-1
620.505859375 709.200195312 m 0,34,35
 621 743 621 743 571.135742188 789.071289062 c 0,36,37
 522 835 522 835 477.03125 834.935546875 c 0,38,39
 434 835 434 835 388.63671875 785.692382812 c 0,40,41
 346 739 346 739 345.900390625 700.354492188 c 0,42,43
 346 667 346 667 377.76171875 639.071289062 c 0,44,45
 446 579 446 579 482.92578125 579.2890625 c 0,46,47
 519 579 519 579 570.041992188 627.352539062 c 0,48,49
 621 675 621 675 620.505859375 709.200195312 c 0,34,35
EndSplineSet
EndChar

StartChar: uni066F.fina
Encoding: 65546 -1 269
Width: 1453
VWidth: 3781
GlyphClass: 2
Flags: W
AnchorPoint: "Anchor-10" 480.781 784.357 basechar 0
AnchorPoint: "Anchor-7" 402.041 -854 basechar 0
LayerCount: 2
Fore
SplineSet
1170.04296875 491.293945312 m 5,0,1
 1148.88769531 546.090820312 1148.88769531 546.090820312 1124.63769531 581.090820312 c 4,2,3
 1078.87868491 647.649380897 1078.87868491 647.649380897 998.390214726 647.649380897 c 4,4,5
 920.102873491 647.649380897 920.102873491 647.649380897 895.072265625 582.674804688 c 4,6,7
 887.785120302 562.873948498 887.785120302 562.873948498 887.785120302 547.401275123 c 4,8,9
 887.785120302 503.03012333 887.785120302 503.03012333 947.712890625 494.252929688 c 4,10,11
 976.86979671 490.091468252 976.86979671 490.091468252 1062.14653424 490.091468252 c 4,12,13
 1107.98668526 490.091468252 1107.98668526 490.091468252 1170.04296875 491.293945312 c 5,0,1
1458 0 m 6,14,-1
 1366.15234375 0 l 5,15,16
 1360 -133 1360 -133 1329.328125 -209.473632812 c 4,17,18
 1184 -568 1184 -568 729.390625 -567.454101562 c 4,19,20
 396 -567 396 -567 232.983398438 -401.260742188 c 4,21,22
 78.0016743405 -238.968559407 78.0016743405 -238.968559407 77.9111328125 29.7109375 c 4,23,24
 78 288 78 288 203.59765625 549.060546875 c 5,25,-1
 380.661132812 494.107421875 l 5,26,27
 329 322 329 322 328.901027129 208.155165028 c 4,28,29
 329 89 329 89 380.943359375 24.2216796875 c 4,30,31
 478 -97 478 -97 753.117196053 -97.3609757806 c 4,32,33
 1033 -97 1033 -97 1166.79980469 -0.05859375 c 5,34,-1
 1067.80078125 0.0498046875 l 6,35,36
 840 0 840 0 752.857421875 102.387695312 c 4,37,38
 666 204 666 204 665.921433094 367.432323045 c 4,39,40
 666 486 666 486 711.461914062 635.729492188 c 4,41,42
 758 789 758 789 828.877929688 867.330078125 c 4,43,44
 916 964 916 964 1033.40414347 964.111858907 c 4,45,46
 1244 964 1244 964 1328.97558594 690.866210938 c 4,47,48
 1362 586 1362 586 1365.32226562 494.930664062 c 5,49,-1
 1458 494.930664062 l 6,50,51
 1483.34082031 495.000945244 1483.34082031 495.000945244 1483.34082031 303 c 6,52,-1
 1483.34082031 171 l 6,53,54
 1483 0 1483 0 1458 0 c 6,14,-1
EndSplineSet
EndChar

StartChar: arabic_gaf_bar
Encoding: 65550 -1 270
Width: 788
VWidth: 3142
GlyphClass: 2
Flags: W
LayerCount: 2
Fore
SplineSet
782.442166169 2098 m 2,0,-1
 753.061523438 1951.98828125 l 1,1,-1
 -3.693359375 1703.41601562 l 1,2,-1
 33 1873 l 5,3,-1
 761 2116.22437107 l 2,4,5
 788.054168905 2125.26315296 788.054168905 2125.26315296 782.442166169 2098 c 2,0,-1
EndSplineSet
EndChar

StartChar: guillemotleft
Encoding: 171 171 279
Width: 1377
VWidth: 3386
Flags: W
LayerCount: 2
Fore
SplineSet
358.000976562 -5.10546875 m 6,0,1
 72 389.19921875 72 389.19921875 71.873046875 479.623046875 c 4,2,3
 72 580.212890625 72 580.212890625 357.9453125 974.90234375 c 6,4,-1
 376.909179688 1001.078125 l 5,5,-1
 715.384765625 1001.078125 l 5,6,-1
 618.821289062 861.859375 l 6,7,8
 405 553 405 553 405.729492188 479.146484375 c 4,9,10
 405.998046875 413.53515625 405.998046875 413.53515625 618.700195312 108.1015625 c 6,11,-1
 715.745117188 -31.251953125 l 5,12,-1
 376.965820312 -31.251953125 l 5,13,-1
 358.000976562 -5.10546875 l 6,0,1
918.486328125 -5.0283203125 m 6,14,15
 633 389.768485184 633 389.768485184 633 469.626953125 c 4,16,17
 633 579.543320946 633 579.543320946 918.428710938 974.821289062 c 6,18,-1
 937.388671875 1001.078125 l 5,19,-1
 1275.92773438 1001.078125 l 5,20,-1
 1179.35449219 861.858398438 l 6,21,22
 966 554 966 554 966.205078125 484.200195312 c 4,23,24
 966.001116942 414.382340037 966.001116942 414.382340037 1179.24609375 108.095703125 c 6,25,-1
 1276.26367188 -31.251953125 l 5,26,-1
 937.44921875 -31.251953125 l 5,27,-1
 918.486328125 -5.0283203125 l 6,14,15
EndSplineSet
EndChar

StartChar: guillemotright
Encoding: 187 187 280
Width: 1377
VWidth: 3386
Flags: W
LayerCount: 2
Fore
SplineSet
1019.13574219 -5.10546875 m 2,0,1
 1000.17089844 -31.251953125 l 1,2,-1
 661.391601562 -31.251953125 l 1,3,-1
 758.436523438 108.1015625 l 2,4,5
 971.138671875 413.53515625 971.138671875 413.53515625 971.407226562 479.146484375 c 0,6,7
 972.13671875 553 972.13671875 553 758.315429688 861.859375 c 2,8,-1
 661.751953125 1001.078125 l 1,9,-1
 1000.22753906 1001.078125 l 1,10,-1
 1019.19140625 974.90234375 l 2,11,12
 1305.13671875 580.212890625 1305.13671875 580.212890625 1305.26367188 479.623046875 c 0,13,14
 1305.13671875 389.19921875 1305.13671875 389.19921875 1019.13574219 -5.10546875 c 2,0,1
458.650390625 -5.0283203125 m 2,15,-1
 439.6875 -31.251953125 l 1,16,-1
 100.873046875 -31.251953125 l 1,17,-1
 197.890625 108.095703125 l 2,18,19
 411.135742188 414.3828125 411.135742188 414.3828125 410.931640625 484.200195312 c 0,20,21
 411.13671875 554 411.13671875 554 197.782226562 861.858398438 c 2,22,-1
 101.208984375 1001.078125 l 1,23,-1
 439.748046875 1001.078125 l 1,24,-1
 458.708007812 974.821289062 l 2,25,26
 744.13671875 579.54296875 744.13671875 579.54296875 744.13671875 469.626953125 c 0,27,28
 744.13671875 389.768554688 744.13671875 389.768554688 458.650390625 -5.0283203125 c 2,15,-1
EndSplineSet
EndChar

StartChar: exclam
Encoding: 33 33 289
Width: 708
VWidth: 9
Flags: W
LayerCount: 2
Fore
SplineSet
120.532226562 233.598632812 m 128,-1,1
 120.532226562 330.665039062 120.532226562 330.665039062 188.797851562 398.930664062 c 128,-1,2
 257.064453125 467.197265625 257.064453125 467.197265625 354.130859375 467.197265625 c 128,-1,3
 451.196289062 467.197265625 451.196289062 467.197265625 519.462890625 398.930664062 c 128,-1,4
 587.729492188 330.665039062 587.729492188 330.665039062 587.729492188 233.598632812 c 128,-1,5
 587.729492188 136.532226562 587.729492188 136.532226562 519.462890625 68.2666015625 c 128,-1,6
 451.196289062 0 451.196289062 0 354.130859375 0 c 128,-1,7
 257.064453125 0 257.064453125 0 188.797851562 68.2666015625 c 128,-1,0
 120.532226562 136.532226562 120.532226562 136.532226562 120.532226562 233.598632812 c 128,-1,1
489.580078125 687.473632812 m 6,8,9
 479.758085038 598.888671875 479.758085038 598.888671875 426.819335938 598.888671875 c 6,10,-1
 288.153320312 598.888671875 l 6,11,12
 238.599421878 599.000907276 238.599421878 599.000907276 227.521484375 687.686523438 c 6,13,-1
 150.193359375 1306.74511719 l 2,14,15
 121.053078615 1541.57226562 121.053078615 1541.57226562 348.501953125 1541.57226562 c 2,16,-1
 377.46484375 1541.57226562 l 2,17,18
 584.327071693 1542.00067737 584.327071693 1542.00067737 558.35546875 1307.76171875 c 2,19,-1
 489.580078125 687.473632812 l 6,8,9
EndSplineSet
EndChar

StartChar: period
Encoding: 46 46 290
Width: 708
VWidth: 3395
Flags: W
LayerCount: 2
Fore
SplineSet
120.46484375 233.598632812 m 128,-1,1
 120.46484375 330.665039062 120.46484375 330.665039062 188.731445312 398.930664062 c 128,-1,2
 256.997070312 467.197265625 256.997070312 467.197265625 354.063476562 467.197265625 c 128,-1,3
 451.12890625 467.197265625 451.12890625 467.197265625 519.395507812 398.930664062 c 128,-1,4
 587.662109375 330.665039062 587.662109375 330.665039062 587.662109375 233.598632812 c 128,-1,5
 587.662109375 136.532226562 587.662109375 136.532226562 519.395507812 68.2666015625 c 128,-1,6
 451.12890625 0 451.12890625 0 354.063476562 0 c 128,-1,7
 256.997070312 0 256.997070312 0 188.731445312 68.2666015625 c 128,-1,0
 120.46484375 136.532226562 120.46484375 136.532226562 120.46484375 233.598632812 c 128,-1,1
EndSplineSet
EndChar

StartChar: colon
Encoding: 58 58 291
Width: 708
VWidth: 3395
Flags: W
LayerCount: 2
Fore
SplineSet
120.797851562 956.259765625 m 128,-1,1
 120.797851562 1053.32617188 120.797851562 1053.32617188 189.064453125 1121.59179688 c 128,-1,2
 257.331054688 1189.85839844 257.331054688 1189.85839844 354.396484375 1189.85839844 c 128,-1,3
 451.462890625 1189.85839844 451.462890625 1189.85839844 519.728515625 1121.59179688 c 128,-1,4
 587.995117188 1053.32617188 587.995117188 1053.32617188 587.995117188 956.259765625 c 128,-1,5
 587.995117188 859.194335938 587.995117188 859.194335938 519.728515625 790.927734375 c 128,-1,6
 451.462890625 722.661132812 451.462890625 722.661132812 354.396484375 722.661132812 c 128,-1,7
 257.331054688 722.661132812 257.331054688 722.661132812 189.064453125 790.927734375 c 128,-1,0
 120.797851562 859.194335938 120.797851562 859.194335938 120.797851562 956.259765625 c 128,-1,1
120.797851562 233.598632812 m 128,-1,9
 120.797851562 330.665039062 120.797851562 330.665039062 189.064453125 398.930664062 c 128,-1,10
 257.331054688 467.197265625 257.331054688 467.197265625 354.396484375 467.197265625 c 128,-1,11
 451.462890625 467.197265625 451.462890625 467.197265625 519.728515625 398.930664062 c 128,-1,12
 587.995117188 330.665039062 587.995117188 330.665039062 587.995117188 233.598632812 c 128,-1,13
 587.995117188 136.532226562 587.995117188 136.532226562 519.728515625 68.2666015625 c 128,-1,14
 451.462890625 0 451.462890625 0 354.396484375 0 c 128,-1,15
 257.331054688 0 257.331054688 0 189.064453125 68.2666015625 c 128,-1,8
 120.797851562 136.532226562 120.797851562 136.532226562 120.797851562 233.598632812 c 128,-1,9
EndSplineSet
EndChar

StartChar: uniFDFC
Encoding: 65020 65020 292
Width: 2815
VWidth: 3741
Flags: W
LayerCount: 2
Fore
SplineSet
2617.49316406 -108.583007812 m 0,0,1
 2560 -319.328125 2560 -319.328125 2450 -402.364257812 c 0,2,3
 2391 -447.080078125 2391 -447.080078125 2202.97363281 -447.297851562 c 0,4,5
 2075 -447.080078125 2075 -447.080078125 1963.76757812 -428.666992188 c 0,6,7
 1918 -420.969726562 1918 -420.969726562 1917.90429688 -389.649414062 c 0,8,9
 1918 -373.413085938 1918 -373.413085938 1926 -364.170898438 c 0,10,11
 1952 -337.044921875 1952 -337.044921875 1988.89355469 -317.353515625 c 0,12,13
 2274 -158.004882812 2274 -158.004882812 2425 128.657226562 c 0,14,15
 2442 160.91015625 2442 160.91015625 2437.18554688 185.155273438 c 0,16,17
 2421 259.754882812 2421 259.754882812 2201 493.8125 c 1,18,-1
 2420 795.942382812 l 1,19,20
 2558 671.919921875 2558 671.919921875 2624.10253906 463.97265625 c 0,21,22
 2663 340.881835938 2663 340.881835938 2662.99023438 202.872070312 c 0,23,24
 2663 60.2001953125 2663 60.2001953125 2617.49316406 -108.583007812 c 0,0,1
1953.78125 233.330078125 m 1,25,-1
 2124.44140625 62.669921875 l 1,26,-1
 1953.78125 -107.993164062 l 1,27,-1
 1795.01757812 50.7734375 l 1,28,-1
 1636.25292969 -107.993164062 l 1,29,-1
 1465.59277344 62.669921875 l 1,30,-1
 1636.25292969 233.330078125 l 1,31,-1
 1795.01757812 74.56640625 l 1,32,-1
 1953.78125 233.330078125 l 1,25,-1
1892.19824219 804.55078125 m 0,33,34
 1923 843 1923 843 1891.65332031 909.79296875 c 0,35,36
 1867 963 1867 963 1841.37402344 1016.59960938 c 1,37,-1
 2002.74902344 1202.75195312 l 2,38,39
 2042 1248 2042 1248 2061.35351562 1208.83007812 c 0,40,41
 2145 1044 2145 1044 2145.37402344 834.73046875 c 0,42,43
 2147 577 2147 577 2033.91796875 460.921875 c 0,44,45
 1928.32394919 353.330078125 1928.32394919 353.330078125 1788.74414062 353.330078125 c 2,46,-1
 1690.55175781 353.330078125 l 6,47,48
 1497 353 1497 353 1400.23828125 453.057617188 c 0,49,50
 1290 568 1290 568 1297.39160156 961.327148438 c 0,51,52
 1303 1244 1303 1244 1275.68164062 1349.97753906 c 1,53,-1
 1512 1530 l 2,54,55
 1557 1564 1557 1564 1566 1504 c 0,56,57
 1586 1376 1586 1376 1574.28808594 1107.8046875 c 0,58,59
 1563 859 1563 859 1611.34960938 810.616210938 c 0,60,61
 1648.40565174 773.594726562 1648.40565174 773.594726562 1731.109375 773.594726562 c 2,62,-1
 1785.78027344 773.594726562 l 2,63,64
 1867 774 1867 774 1892.19824219 804.55078125 c 0,33,34
1137.16699219 262.814453125 m 0,65,66
 1083 -245 1083 -245 631.185546875 -244.65625 c 0,67,68
 384 -244 384 -244 244.399414062 -91.0693359375 c 0,69,70
 120 45 120 45 120.3984375 292.264648438 c 0,71,72
 121 495 121 495 219.375976562 710.4140625 c 1,73,-1
 389 669 l 1,74,75
 302 389 302 389 407.17578125 265.802734375 c 0,76,77
 476 184 476 184 632.591796875 184.595703125 c 0,78,79
 888 185 888 185 880.384765625 403.935546875 c 0,80,81
 863 880 863 880 799.14453125 1351.48144531 c 1,82,-1
 1023.76074219 1520.36425781 l 2,83,84
 1048 1540 1048 1540 1050.859375 1541.38964844 c 0,85,86
 1083.44488775 1550.11918374 1083.44488775 1550.11918374 1086.24902344 1498.19921875 c 2,87,-1
 1139.40429688 514.002929688 l 2,88,89
 1148 355 1148 355 1137.16699219 262.814453125 c 0,65,66
EndSplineSet
EndChar

StartChar: uniFD3E
Encoding: 64830 64830 294
Width: 1503
VWidth: 10
Flags: W
LayerCount: 2
Fore
SplineSet
766.446289062 724.634765625 m 1,0,1
 724.526367188 719.336914062 724.526367188 719.336914062 724.526367188 682.715820312 c 0,2,3
 724.526367188 654.381835938 724.526367188 654.381835938 750.321289062 643.67578125 c 0,4,5
 757.262695312 640.795898438 757.262695312 640.795898438 766.153320312 640.795898438 c 128,-1,6
 775.043945312 640.795898438 775.043945312 640.795898438 782.482421875 643.885742188 c 1,7,8
 808.366210938 661.455078125 808.366210938 661.455078125 808.366210938 674.375 c 0,9,10
 808.366210938 724.634765625 808.366210938 724.634765625 766.446289062 724.634765625 c 1,0,1
875.163085938 871.985351562 m 0,11,12
 984.364257812 808.235351562 984.364257812 808.235351562 984.364257812 686.0078125 c 0,13,14
 984.364257812 592.506835938 984.364257812 592.506835938 920.510742188 528.653320312 c 128,-1,15
 856.657226562 464.796875 856.657226562 464.796875 766.446289062 464.796875 c 128,-1,16
 676.236328125 464.796875 676.236328125 464.796875 612.380859375 528.650390625 c 128,-1,17
 548.52734375 592.506835938 548.52734375 592.506835938 548.52734375 682.715820312 c 128,-1,18
 548.52734375 772.879882812 548.52734375 772.879882812 612.381835938 836.78125 c 128,-1,19
 676.237304688 900.633789062 676.237304688 900.633789062 751.159179688 900.633789062 c 128,-1,20
 826.080078125 900.633789062 826.080078125 900.633789062 875.163085938 871.985351562 c 0,11,12
717.962890625 265.889648438 m 2,21,22
 735.87890625 247.974609375 735.87890625 247.974609375 742.708007812 218.033203125 c 0,23,24
 785.061523438 33.06640625 785.061523438 33.06640625 910.032226562 -129.623046875 c 1,25,26
 841.594726562 51.19921875 841.594726562 51.19921875 812.442382812 212.288085938 c 0,27,28
 804.31640625 256.767578125 804.31640625 256.767578125 836.950195312 289.401367188 c 2,29,-1
 878.416992188 330.869140625 l 2,30,31
 904.916015625 356.642578125 904.916015625 356.642578125 940.643554688 356.642578125 c 2,32,-1
 1100.04980469 356.642578125 l 1,33,-1
 1100.04980469 1025.34277344 l 1,34,-1
 940.643554688 1025.34277344 l 1,35,36
 903.4609375 1027.19335938 903.4609375 1027.19335938 891.604492188 1038.78320312 c 0,37,38
 878.927734375 1050.66015625 878.927734375 1050.66015625 878.416992188 1051.1171875 c 2,39,-1
 833.907226562 1095.62890625 l 2,40,41
 802.127929688 1127.45996094 802.127929688 1127.45996094 809.237304688 1171.74121094 c 0,42,43
 840.528320312 1370.65820312 840.528320312 1370.65820312 923.590820312 1578.96777344 c 1,44,45
 775.461914062 1396.2578125 775.461914062 1396.2578125 731.265625 1151.12695312 c 0,46,47
 726.455078125 1124.58886719 726.455078125 1124.58886719 707 1105.13378906 c 2,48,-1
 652.983398438 1051.11816406 l 2,49,50
 627.475585938 1025.34277344 627.475585938 1025.34277344 590.7578125 1025.34277344 c 2,51,-1
 431.3515625 1025.34277344 l 1,52,-1
 431.3515625 865.935546875 l 2,53,54
 430.920898438 829.053710938 430.920898438 829.053710938 405.576171875 803.709960938 c 2,55,-1
 292.858398438 690.9921875 l 1,56,-1
 405.575195312 578.276367188 l 2,57,58
 431.3515625 552.102539062 431.3515625 552.102539062 431.3515625 516.05078125 c 2,59,-1
 431.3515625 356.642578125 l 1,60,-1
 590.7578125 356.642578125 l 1,61,62
 630.823242188 353.026367188 630.823242188 353.026367188 652.981445312 330.869140625 c 2,63,-1
 717.962890625 265.889648438 l 2,21,22
575.790039062 159.161132812 m 1,64,-1
 554.307617188 180.643554688 l 1,65,-1
 342.954101562 180.643554688 l 1,66,67
 310.3984375 181.33203125 310.3984375 181.33203125 283.048828125 206.01953125 c 0,68,69
 255.352539062 230.033203125 255.352539062 230.033203125 255.352539062 268.643554688 c 2,70,-1
 255.352539062 479.6015625 l 1,71,-1
 106.18359375 628.765625 l 2,72,73
 43.947265625 690.981445312 43.947265625 690.981445312 106.184570312 753.217773438 c 2,74,-1
 255.352539062 902.384765625 l 1,75,-1
 255.352539062 1113.34179688 l 2,76,77
 254.931640625 1140.25976562 254.931640625 1140.25976562 278.73828125 1170.23535156 c 0,78,79
 302.076171875 1201.34179688 302.076171875 1201.34179688 343.3515625 1201.34179688 c 2,80,-1
 554.307617188 1201.34179688 l 1,81,-1
 563.57421875 1210.609375 l 1,82,83
 685.862304688 1809.05566406 685.862304688 1809.05566406 1190.51367188 1956.65625 c 0,84,85
 1233.05859375 1969.0546875 1233.05859375 1969.0546875 1261.08300781 1943.61816406 c 0,86,87
 1290.65820312 1915.72167969 1290.65820312 1915.72167969 1290.67675781 1884.18554688 c 0,88,89
 1290.65820312 1851.72167969 1290.65820312 1851.72167969 1283.69824219 1814.58886719 c 1,90,91
 1069.86035156 1620.25683594 1069.86035156 1620.25683594 992.828125 1201.34179688 c 1,92,-1
 1188.04882812 1201.34179688 l 2,93,94
 1235.19238281 1201.05957031 1235.19238281 1201.05957031 1263.1015625 1158.93066406 c 0,95,96
 1276.04785156 1138.68847656 1276.04785156 1138.68847656 1276.04785156 1113.34179688 c 2,97,-1
 1276.04785156 268.643554688 l 2,98,99
 1275.74511719 222.702148438 1275.74511719 222.702148438 1223.17382812 187.854492188 c 0,100,101
 1213.30957031 180.643554688 1213.30957031 180.643554688 1188.04882812 180.643554688 c 2,102,-1
 997.223632812 180.643554688 l 1,103,104
 1075.19335938 -210.131835938 1075.19335938 -210.131835938 1271.86035156 -369.205078125 c 0,105,106
 1330.125 -415.997070312 1330.125 -415.997070312 1273.48925781 -478.422851562 c 0,107,108
 1254.39257812 -499.197265625 1254.39257812 -499.197265625 1204.29882812 -525.844726562 c 1,109,-1
 1191.8515625 -522.182617188 l 2,110,111
 706.12890625 -379.731445312 706.12890625 -379.731445312 575.790039062 159.161132812 c 1,64,-1
EndSplineSet
EndChar

StartChar: uniFD3F
Encoding: 64831 64831 295
Width: 1506
VWidth: 10
Flags: W
LayerCount: 2
Fore
SplineSet
739.35546875 724.634765625 m 132,-1,1
 697.435546875 724.634765625 697.435546875 724.634765625 697.435546875 675.663085938 c 4,2,3
 697.435546875 654.377929688 697.435546875 654.377929688 723.229492188 643.67578125 c 4,4,5
 730.172851562 640.795898438 730.172851562 640.795898438 743.41796875 640.795898438 c 132,-1,6
 756.6640625 640.795898438 756.6640625 640.795898438 768.96875 653.1015625 c 132,-1,7
 781.275390625 665.407226562 781.275390625 665.407226562 781.275390625 682.715820312 c 4,8,0
 781.275390625 724.634765625 781.275390625 724.634765625 739.35546875 724.634765625 c 132,-1,1
521.436523438 682.715820312 m 132,-1,10
 521.436523438 772.926757812 521.436523438 772.926757812 585.291015625 836.78125 c 132,-1,11
 649.145507812 900.633789062 649.145507812 900.633789062 739.35546875 900.633789062 c 4,12,13
 869.884765625 900.633789062 869.884765625 900.633789062 932.0546875 785.328125 c 4,14,15
 957.274414062 738.548828125 957.274414062 738.548828125 957.274414062 688.303710938 c 4,16,17
 957.274414062 592.504882812 957.274414062 592.504882812 893.420898438 528.653320312 c 132,-1,18
 829.565429688 464.796875 829.565429688 464.796875 739.35546875 464.796875 c 132,-1,19
 649.145507812 464.796875 649.145507812 464.796875 585.291992188 528.650390625 c 132,-1,9
 521.436523438 592.505859375 521.436523438 592.505859375 521.436523438 682.715820312 c 132,-1,10
764.233398438 223.072265625 m 4,20,21
 770.022460938 248.073242188 770.022460938 248.073242188 787.841796875 265.893554688 c 6,22,-1
 852.817382812 330.869140625 l 6,23,24
 879.31640625 356.642578125 879.31640625 356.642578125 915.04296875 356.642578125 c 6,25,-1
 1074.44921875 356.642578125 l 5,26,-1
 1074.44921875 516.05078125 l 6,27,28
 1074.12988281 552.180664062 1074.12988281 552.180664062 1100.22558594 578.276367188 c 6,29,-1
 1212.94238281 690.9921875 l 5,30,-1
 1100.22363281 803.709960938 l 6,31,32
 1074.44921875 829.537109375 1074.44921875 829.537109375 1074.44921875 865.935546875 c 6,33,-1
 1074.44921875 1025.34277344 l 5,34,-1
 915.04296875 1025.34277344 l 6,35,36
 878.875 1025.06054688 878.875 1025.06054688 852.817382812 1051.1171875 c 6,37,-1
 798.799804688 1105.13476562 l 6,38,39
 779.728515625 1124.25976562 779.728515625 1124.25976562 769.21875 1179.47265625 c 4,40,41
 727.461914062 1399.45800781 727.461914062 1399.45800781 582.23828125 1578.93945312 c 5,42,43
 661.329101562 1380.2578125 661.329101562 1380.2578125 696.563476562 1171.74316406 c 4,44,45
 703.956054688 1127.69335938 703.956054688 1127.69335938 671.893554688 1095.62988281 c 6,46,-1
 627.383789062 1051.11816406 l 6,47,48
 601.875 1025.34277344 601.875 1025.34277344 565.158203125 1025.34277344 c 6,49,-1
 405.751953125 1025.34277344 l 5,50,-1
 405.751953125 356.642578125 l 5,51,-1
 565.158203125 356.642578125 l 6,52,53
 601.989257812 356.260742188 601.989257812 356.260742188 627.381835938 330.869140625 c 6,54,-1
 668.852539062 289.399414062 l 6,55,56
 700.795898438 257.065429688 700.795898438 257.065429688 695.389648438 224.126953125 c 4,57,58
 666.662109375 57.599609375 666.662109375 57.599609375 595.721679688 -129.747070312 c 5,59,60
 718.928710938 28.7998046875 718.928710938 28.7998046875 764.233398438 223.072265625 c 4,20,21
301.501953125 -525.84375 m 5,61,62
 179.19921875 -461.864257812 179.19921875 -461.864257812 214.209960938 -392.828125 c 4,63,64
 220.798828125 -379.731445312 220.798828125 -379.731445312 233.942382812 -369.205078125 c 4,65,66
 429.864257812 -210.131835938 429.864257812 -210.131835938 508.577148438 180.643554688 c 5,67,-1
 317.751953125 180.643554688 l 6,68,69
 270.61328125 180.287109375 270.61328125 180.287109375 236.204101562 237.171875 c 4,70,71
 229.752929688 246.834960938 229.752929688 246.834960938 229.752929688 268.643554688 c 6,72,-1
 229.752929688 1113.34179688 l 6,73,74
 229.33203125 1176.52636719 229.33203125 1176.52636719 286.280273438 1194.88964844 c 4,75,76
 308.155273438 1201.34179688 308.155273438 1201.34179688 317.751953125 1201.34179688 c 6,77,-1
 512.973632812 1201.34179688 l 5,78,79
 436.263671875 1620.25683594 436.263671875 1620.25683594 222.1015625 1814.58984375 c 5,80,81
 201.598632812 1923.1875 201.598632812 1923.1875 260.162109375 1954.33886719 c 4,82,83
 284.797851562 1966.92089844 284.797851562 1966.92089844 315.296875 1956.65332031 c 4,84,85
 820.26171875 1804.7890625 820.26171875 1804.7890625 942.2265625 1210.61035156 c 5,86,-1
 951.494140625 1201.34179688 l 5,87,-1
 1162.44921875 1201.34179688 l 6,88,89
 1236.24414062 1201.05078125 1236.24414062 1201.05078125 1247.41113281 1134.98632812 c 4,90,91
 1250.44824219 1114.62890625 1250.44824219 1114.62890625 1250.44824219 1113.34179688 c 6,92,-1
 1250.44824219 902.384765625 l 5,93,-1
 1399.61816406 753.217773438 l 6,94,95
 1434.65722656 717.862304688 1434.65722656 717.862304688 1425.76757812 681.5859375 c 4,96,97
 1416.64257812 645.791992188 1416.64257812 645.791992188 1399.61621094 628.765625 c 6,98,-1
 1250.44824219 479.6015625 l 5,99,-1
 1250.44824219 268.643554688 l 6,100,101
 1250.14746094 222.018554688 1250.14746094 222.018554688 1193.92089844 187.094726562 c 4,102,103
 1184.54296875 180.643554688 1184.54296875 180.643554688 1162.44921875 180.643554688 c 6,104,-1
 951.494140625 180.643554688 l 5,105,-1
 930.010742188 159.16015625 l 5,106,107
 800.13671875 -379.14453125 800.13671875 -379.14453125 313.951171875 -522.180664062 c 6,108,-1
 301.501953125 -525.84375 l 5,61,62
EndSplineSet
EndChar

StartChar: NameMe.303
Encoding: 65562 -1 296
Width: 636
VWidth: 3713
Flags: W
AnchorPoint: "Anchor-7" 210.877 -228.763 basechar 0
LayerCount: 2
Fore
SplineSet
-4.6591796875 494.930664062 m 2,0,-1
 26.53515625 494.930664062 l 2,1,2
 181 495 181 495 191.340820312 594.129882812 c 0,3,4
 197 645 197 645 186.975585938 765.553710938 c 0,5,6
 177 884 177 884 129.866210938 1285.05859375 c 1,7,-1
 425.331054688 1485.45703125 l 2,8,9
 474.045475183 1519.03134181 474.045475183 1519.03134181 477.376953125 1447.05664062 c 2,10,-1
 515.860351562 615.64453125 l 2,11,12
 527 370 527 370 457.577148438 226.657226562 c 0,13,14
 348 0 348 0 40.892578125 0 c 6,15,-1
 -4.6591796875 0 l 2,16,17
 -60 0 -60 0 -60 171 c 2,18,-1
 -60 303 l 2,19,20
 -60 495 -60 495 -4.6591796875 494.930664062 c 2,0,-1
EndSplineSet
EndChar

StartChar: NameMe.304
Encoding: 65563 -1 297
Width: 631
VWidth: 3713
Flags: W
LayerCount: 2
Fore
SplineSet
636 0 m 6,0,-1
 591.1015625 0 l 2,1,2
 414 0 414 0 313.693359375 170.094726562 c 1,3,4
 189 0 189 0 49.2060546875 0 c 2,5,-1
 -4.6591796875 0 l 2,6,7
 -60 0 -60 0 -60 171 c 2,8,-1
 -60 303 l 2,9,10
 -60 494.930664062 -60 494.930664062 -4.6591796875 494.930664062 c 2,11,-1
 49.3955078125 494.930664062 l 2,12,13
 194 495 194 495 185.75390625 693.678710938 c 0,14,15
 178 871 178 871 149.208007812 1118.42871094 c 1,16,-1
 456 1324.93847656 l 2,17,18
 503.51953125 1356.67907166 503.51953125 1356.67907166 503.51953125 1302 c 2,19,-1
 503.51953125 727.0546875 l 2,20,21
 504 580 504 580 531.427734375 537.505859375 c 0,22,23
 560.046607336 494.930664061 560.046607336 494.930664061 606.537109375 494.930664062 c 2,24,-1
 636 494.930664062 l 6,25,26
 661.340820312 495.000945244 661.340820312 495.000945244 661.340820312 303 c 6,27,-1
 661.340820312 171 l 6,28,29
 661 0 661 0 636 0 c 6,0,-1
EndSplineSet
EndChar

StartChar: NameMe.306
Encoding: 65566 -1 299
Width: 574
VWidth: 3713
Flags: W
LayerCount: 2
Fore
SplineSet
579 0 m 6,0,-1
 545.223632812 0 l 6,1,2
 333 0 333 0 255.986328125 67.1884765625 c 0,3,4
 109.969950207 193.025897016 109.969950207 193.025897016 112.40625 568.647460938 c 2,5,6
 113.172851562 686.83984375 l 2,7,8
 115.007492293 1026.38663885 115.007492293 1026.38663885 60.54296875 1237.32519531 c 2,9,-1
 57.322265625 1249.79882812 l 1,10,-1
 365 1431.07910156 l 2,11,12
 382 1441 382 1441 394.584960938 1441.44824219 c 0,13,14
 417 1441 417 1441 419.012695312 1404.58203125 c 0,15,16
 436.021753188 1114.6291741 436.021753188 1114.6291741 432.967773438 985.89453125 c 2,17,-1
 428.4765625 796.576171875 l 2,18,19
 424 607 424 607 469.68359375 540.286132812 c 0,20,21
 501.047947401 494.930664062 501.047947401 494.930664062 550.149414062 494.930664062 c 6,22,-1
 579 494.930664062 l 6,23,24
 604.340820312 495.000945244 604.340820312 495.000945244 604.340820312 303 c 6,25,-1
 604.340820312 171 l 6,26,27
 604 0 604 0 579 0 c 6,0,-1
EndSplineSet
EndChar

StartChar: uni06C1
Encoding: 1729 1729 300
Width: 1012
VWidth: 2424
Flags: W
AnchorPoint: "Anchor-7" 479.202 -199.801 basechar 0
AnchorPoint: "Anchor-10" 623.045 1189.49 basechar 0
LayerCount: 2
Fore
SplineSet
197 464 m 0,0,1
 399 855 399 855 680.095703125 825.981445312 c 0,2,3
 777 816 777 816 826.596679688 734.1171875 c 0,4,5
 869 665 869 665 881.745117188 564 c 0,6,7
 885 538 885 538 884.801757812 529.141601562 c 0,8,9
 885 510 885 510 894.3515625 503.544921875 c 0,10,11
 906.956907401 495.029112125 906.956907401 495.029112125 946.291992188 495.012695312 c 2,12,-1
 1042.2265625 494.97265625 l 5,13,-1
 1042.2265625 0 l 5,14,-1
 922.953125 0 l 2,15,16
 601 0 601 0 573 263.315429688 c 0,17,18
 569 301 569 301 570.150390625 320 c 0,19,20
 574 363 574 363 552 364.173828125 c 0,21,22
 537 365 537 365 524.237304688 338 c 0,23,24
 445 175 445 175 424.801757812 130.912109375 c 0,25,26
 362 -7 362 -7 298.522460938 -144.155273438 c 1,27,-1
 12.765625 4.259765625 l 1,28,29
 76 230 76 230 197 464 c 0,0,1
EndSplineSet
EndChar

StartChar: NameMe.65567
Encoding: 65567 -1 304
Width: 678
VWidth: 3745
Flags: W
LayerCount: 2
Fore
SplineSet
249.519516205 -34.3411985078 m 0,0,1
 395 -33 395 -33 450.605377501 34.3289956444 c 1,2,-1
 346.974152948 71.4620869111 l 1,3,4
 222 119 222 119 268.980047984 241.715874898 c 0,5,6
 332 406 332 406 459.206579901 457.370244785 c 0,7,8
 541 490 541 490 657.783011469 453.941446894 c 1,9,10
 652 388 652 388 627.07558916 285.689765813 c 1,11,-1
 590.719423298 288.72162838 l 2,12,13
 488 297 488 297 430.91801797 229.172899614 c 1,14,-1
 523.877335939 198.209566732 l 2,15,16
 628 164 628 164 597.529514811 22.5033489355 c 0,17,18
 583 -46 583 -46 551.65234375 -86.6318359375 c 0,19,20
 454 -215 454 -215 249.009765625 -214.874023438 c 0,21,22
 141 -215 141 -215 30.3125 -169.610351562 c 1,23,-1
 90.5068659642 6.45905189509 l 1,24,25
 176.168924983 -34.9984862791 176.168924983 -34.9984862791 249.519516205 -34.3411985078 c 0,0,1
EndSplineSet
EndChar

StartChar: NameMe.65541
Encoding: 65541 -1 305
Width: 618
VWidth: 3752
Flags: W
AnchorPoint: "Anchor-10" 273.261 1302.53 basechar 0
AnchorPoint: "Anchor-7" 320.876 -228.542 basechar 0
LayerCount: 2
Fore
SplineSet
-4.6591796875 0 m 2,0,1
 -60 0 -60 0 -60 171 c 2,2,-1
 -60 303 l 2,3,4
 -60 494.930664062 -60 494.930664062 -4.6591796875 494.930664062 c 2,5,-1
 107.458007812 494.930664062 l 2,6,7
 232 495 232 495 277.95703125 540.958984375 c 0,8,9
 295 558 295 558 287 598 c 0,10,11
 277.22811536 645.882234734 277.22811536 645.882234734 256 693 c 2,12,-1
 202.896484375 810.868164062 l 5,13,-1
 381.8203125 1033.32714844 l 6,14,15
 409 1067 409 1067 431.463867188 1032.26074219 c 4,16,17
 557 838 557 838 557.323242188 594.215820312 c 4,18,19
 557 322 557 322 419.663085938 144.848632812 c 0,20,21
 307 0 307 0 76.955078125 0 c 2,22,-1
 -4.6591796875 0 l 2,0,1
EndSplineSet
EndChar

StartChar: NameMe.65542
Encoding: 65542 -1 306
Width: 688
VWidth: 3731
Flags: W
AnchorPoint: "Anchor-10" 335.951 1190.37 basechar 0
AnchorPoint: "Anchor-7" 310.317 -187.507 basechar 0
LayerCount: 2
Fore
SplineSet
-4.6591796875 0 m 2,0,1
 -60 0 -60 0 -60 171 c 2,2,-1
 -60 303 l 2,3,4
 -60 494.930664062 -60 494.930664062 -4.6591796875 494.930664062 c 2,5,-1
 93.84765625 494.930664062 l 6,6,7
 263.337263951 495.000138245 263.337263951 495.000138245 286.54296875 655.153320312 c 2,8,-1
 306.51171875 792.966796875 l 1,9,-1
 468.443359375 793.048828125 l 1,10,-1
 489.337890625 658.008789062 l 2,11,12
 515.010915402 494.930664062 515.010915402 494.930664062 674.548828125 494.930664062 c 2,13,-1
 693 494.930664062 l 2,14,15
 718.340820312 495.000945244 718.340820312 495.000945244 718.340820312 303 c 2,16,-1
 718.340820312 171 l 2,17,18
 718 0 718 0 693 0 c 2,19,-1
 672.407226562 0 l 2,20,21
 473 0 473 0 374.748046875 172.262695312 c 1,22,23
 254 0 254 0 71.16796875 0 c 2,24,-1
 -4.6591796875 0 l 2,0,1
EndSplineSet
EndChar
